G04*
G04 #@! TF.GenerationSoftware,Altium Limited,Altium Designer,21.9.2 (33)*
G04*
G04 Layer_Physical_Order=4*
G04 Layer_Color=16711680*
%FSLAX25Y25*%
%MOIN*%
G70*
G04*
G04 #@! TF.SameCoordinates,D22C8EEC-9F66-4CA6-A23B-34AD4F9630FA*
G04*
G04*
G04 #@! TF.FilePolarity,Positive*
G04*
G01*
G75*
%ADD12C,0.01000*%
%ADD32R,0.05906X0.05906*%
%ADD46C,0.05000*%
%ADD59C,0.00800*%
%ADD61C,0.01200*%
%ADD65C,0.00600*%
%ADD66C,0.13000*%
%ADD67C,0.06000*%
%ADD68C,0.25000*%
%ADD69C,0.05906*%
%ADD70R,0.05906X0.05906*%
%ADD71C,0.01800*%
G04:AMPARAMS|DCode=83|XSize=125.98mil|YSize=180mil|CornerRadius=0mil|HoleSize=0mil|Usage=FLASHONLY|Rotation=135.000|XOffset=0mil|YOffset=0mil|HoleType=Round|Shape=Rectangle|*
%AMROTATEDRECTD83*
4,1,4,0.10818,0.01910,-0.01910,-0.10818,-0.10818,-0.01910,0.01910,0.10818,0.10818,0.01910,0.0*
%
%ADD83ROTATEDRECTD83*%

D12*
X188000Y-34864D02*
X198432Y-24432D01*
X188000Y-35000D02*
Y-34864D01*
X157500Y-127000D02*
X162500Y-132000D01*
X254000D01*
X280000Y-106000D01*
D32*
X320500Y-56000D02*
D03*
X91000Y-53000D02*
D03*
D46*
X36000Y-80000D02*
D03*
X-500Y-70500D02*
D03*
X30500Y-92000D02*
D03*
X87500Y-22000D02*
D03*
X101000Y-12000D02*
D03*
X339000Y-9000D02*
D03*
X343000Y2500D02*
D03*
X337500Y-31500D02*
D03*
D59*
X93673Y-70500D02*
G03*
X94234Y-70266I-4J800D01*
G01*
X161727Y-1600D02*
G03*
X161167Y-1833I4J-800D01*
G01*
X121669Y-41000D02*
G03*
X122233Y-40767I0J800D01*
G01*
X-500Y-70500D02*
Y-70500D01*
X94234Y-70266D02*
X107500Y-57000D01*
X-500Y-70500D02*
X93673D01*
X121000Y-92000D02*
Y-59500D01*
X107500Y-97000D02*
X116000D01*
X121000Y-92000D01*
X63500Y-103500D02*
X72000Y-112000D01*
X100000D01*
X115843Y-41000D02*
X121669D01*
X122233Y-40767D02*
X161167Y-1833D01*
X161731Y-1600D02*
X194363D01*
X161727Y-1600D02*
X161731Y-1600D01*
X164000Y-3000D02*
X193783D01*
X103500Y-42500D02*
X124500D01*
X164000Y-3000D01*
X193783D02*
X198183Y-7400D01*
X337450Y-15500D02*
X343850Y-9100D01*
X373000D01*
X376343Y-12116D02*
X376500Y-11958D01*
Y-9000D01*
X371913Y-7500D02*
X372213Y-7200D01*
X374700D02*
X376500Y-9000D01*
X372213Y-7200D02*
X374700D01*
X345000Y-7500D02*
X371913D01*
X340500Y-3000D02*
X345000Y-7500D01*
X101000Y-40000D02*
X103500Y-42500D01*
X101000Y-40000D02*
Y-33500D01*
X107500Y-27000D01*
Y-37000D02*
X111843D01*
X115843Y-41000D01*
X341100Y-1600D02*
X345600Y-6100D01*
X363500D01*
X367000Y-2600D01*
X373000Y-5100D02*
X373700Y-5800D01*
X375280D01*
X378500Y-9020D01*
X275500Y-19000D02*
X377287D01*
X378500Y-17787D02*
Y-9020D01*
X377287Y-19000D02*
X378500Y-17787D01*
X215000Y-79500D02*
X275500Y-19000D01*
X107500Y-127000D02*
X113500Y-133000D01*
X362500Y-2600D02*
Y2000D01*
X253500Y2500D02*
X260000Y9000D01*
X355500D01*
X362500Y2000D01*
X358500Y-3100D02*
Y-2000D01*
X296375Y-3000D02*
X340500D01*
X350250Y6250D02*
X358500Y-2000D01*
X350250Y6250D02*
Y6410D01*
X194363Y-1600D02*
X198763Y-6000D01*
X198183Y-7400D02*
X291975D01*
X296375Y-3000D01*
X198763Y-6000D02*
X291000D01*
X295400Y-1600D01*
X341100D01*
X243500Y2500D02*
X245000D01*
X250500Y-3000D01*
X258000D01*
X267410Y6410D01*
X350250D01*
X273400Y-17100D02*
X376500D01*
X167500Y-117000D02*
X169520D01*
X212400Y-78100D02*
X273400Y-17100D01*
X154500Y-122000D02*
X170000D01*
X173500Y-118500D01*
Y-115000D01*
X152500Y-124000D02*
X154500Y-122000D01*
X113500Y-133000D02*
X150500D01*
X152500Y-131000D01*
Y-124000D01*
X339000Y-124500D02*
X352500D01*
X281000Y-66500D02*
X339000Y-124500D01*
X236500Y-66500D02*
X281000D01*
X167500Y-97000D02*
X190500D01*
X272000Y-15500D01*
X337450D01*
X169520Y-117000D02*
X188120Y-98400D01*
X191080D01*
X211380Y-78100D01*
X212400D01*
X173500Y-115000D02*
X188700Y-99800D01*
X191660D01*
X211960Y-79500D01*
X215000D01*
X167500Y-27000D02*
X200500Y-60000D01*
X219500D01*
D61*
X398000Y-36783D02*
G03*
X398060Y-37153I1200J5D01*
G01*
X390585Y-46000D02*
G03*
X391320Y-45749I-0J1200D01*
G01*
X391338Y-45735D02*
G03*
X391321Y-45748I716J-963D01*
G01*
X397997Y1006D02*
G03*
X397653Y1847I-1200J-0D01*
G01*
X398060Y-37153D02*
X399000Y-40000D01*
X397997Y1006D02*
X398000Y-36783D01*
X391338Y-45735D02*
X399000Y-40000D01*
X391320Y-45749D02*
X391321Y-45748D01*
X311500Y-46000D02*
X390585D01*
X397649Y1852D02*
X397653Y1847D01*
X392500Y7000D02*
X397649Y1852D01*
X373000Y7000D02*
X392500D01*
X305500Y-40000D02*
X311500Y-46000D01*
D65*
X233000Y-47000D02*
Y-44500D01*
X198500Y-10000D02*
X233000Y-44500D01*
X189000Y-7000D02*
X192000Y-10000D01*
X198500D01*
D66*
X0Y0D02*
D03*
Y-125000D02*
D03*
D67*
X127500Y-127000D02*
D03*
X107500Y3000D02*
D03*
Y-7000D02*
D03*
Y-17000D02*
D03*
Y-27000D02*
D03*
Y-37000D02*
D03*
Y-47000D02*
D03*
Y-57000D02*
D03*
Y-67000D02*
D03*
Y-77000D02*
D03*
Y-87000D02*
D03*
Y-97000D02*
D03*
Y-107000D02*
D03*
Y-117000D02*
D03*
Y-127000D02*
D03*
X117500D02*
D03*
X137500D02*
D03*
X147500D02*
D03*
X157500D02*
D03*
X167500D02*
D03*
Y-117000D02*
D03*
Y-107000D02*
D03*
Y-97000D02*
D03*
Y-87000D02*
D03*
Y-77000D02*
D03*
Y-67000D02*
D03*
Y-57000D02*
D03*
Y-47000D02*
D03*
Y-37000D02*
D03*
Y-27000D02*
D03*
Y-17000D02*
D03*
Y-7000D02*
D03*
Y3000D02*
D03*
D68*
X23000Y-20000D02*
D03*
X419500D02*
D03*
Y-109500D02*
D03*
X23000D02*
D03*
D69*
X320500Y-66000D02*
D03*
Y-76000D02*
D03*
X91000Y-63000D02*
D03*
X60000Y-2000D02*
D03*
X70000D02*
D03*
X253500Y2500D02*
D03*
X243500D02*
D03*
X233500D02*
D03*
X287000Y-28500D02*
D03*
D70*
X50000Y-2000D02*
D03*
X223500Y2500D02*
D03*
X297000Y-28500D02*
D03*
D71*
X121000Y-59500D02*
D03*
X63500Y-103500D02*
D03*
X268500Y-117500D02*
D03*
X233000Y-47000D02*
D03*
X189000Y-7000D02*
D03*
X179500D02*
D03*
X399000Y-40000D02*
D03*
X142000Y-77000D02*
D03*
X114500Y-83000D02*
D03*
X373000Y-5100D02*
D03*
Y-9100D02*
D03*
X376343Y-12116D02*
D03*
X376500Y-17100D02*
D03*
X367000Y-2600D02*
D03*
X362500D02*
D03*
X358500Y-3100D02*
D03*
X385000Y2000D02*
D03*
X365000Y-37600D02*
D03*
X379500Y-27600D02*
D03*
X394000Y-6600D02*
D03*
X355000Y-37600D02*
D03*
X373000Y7000D02*
D03*
X305500Y-40000D02*
D03*
X352500Y-124500D02*
D03*
X102000Y-72500D02*
D03*
X100000Y-112000D02*
D03*
X188000Y-35000D02*
D03*
X219500Y-60000D02*
D03*
X236500Y-66500D02*
D03*
X211000Y-87500D02*
D03*
X281500Y-87000D02*
D03*
D83*
X198432Y-24432D02*
D03*
X280000Y-106000D02*
D03*
M02*
