G04*
G04 #@! TF.GenerationSoftware,Altium Limited,Altium Designer,21.9.2 (33)*
G04*
G04 Layer_Color=8421504*
%FSLAX25Y25*%
%MOIN*%
G70*
G04*
G04 #@! TF.SameCoordinates,D22C8EEC-9F66-4CA6-A23B-34AD4F9630FA*
G04*
G04*
G04 #@! TF.FilePolarity,Positive*
G04*
G01*
G75*
%ADD14R,0.02756X0.03543*%
%ADD15R,0.05000X0.04000*%
%ADD16R,0.03543X0.02756*%
%ADD17R,0.02559X0.04331*%
%ADD18R,0.07795X0.02087*%
%ADD19R,0.01378X0.03543*%
%ADD20R,0.05512X0.09843*%
%ADD21R,0.04331X0.03937*%
%ADD22R,0.03937X0.03937*%
%ADD23O,0.02756X0.00787*%
%ADD24O,0.00787X0.02756*%
%ADD25R,0.03543X0.01575*%
%ADD26R,0.03150X0.03150*%
%ADD27R,0.08268X0.05512*%
%ADD28R,0.03937X0.04331*%
%ADD29R,0.03150X0.07480*%
%ADD30R,0.07284X0.03937*%
%ADD31R,0.03937X0.07874*%
%ADD32R,0.05906X0.05906*%
D14*
X2000Y-86941D02*
D03*
Y-92059D02*
D03*
X29500Y-85059D02*
D03*
Y-79941D02*
D03*
X374500Y-22441D02*
D03*
Y-27559D02*
D03*
X390000Y-16559D02*
D03*
Y-11441D02*
D03*
X397500Y-17559D02*
D03*
Y-12441D02*
D03*
X340500Y-101075D02*
D03*
Y-95957D02*
D03*
X348500Y-101075D02*
D03*
Y-95957D02*
D03*
X322000Y-21441D02*
D03*
Y-26559D02*
D03*
X314000Y-21441D02*
D03*
Y-26559D02*
D03*
X338000Y-20441D02*
D03*
Y-25559D02*
D03*
X360500Y-41559D02*
D03*
Y-36441D02*
D03*
X93500Y-9441D02*
D03*
Y-14559D02*
D03*
D15*
X23500Y-85650D02*
D03*
Y-80350D02*
D03*
X334000Y-101166D02*
D03*
Y-95866D02*
D03*
X383500Y-16650D02*
D03*
Y-11350D02*
D03*
X329500Y-21350D02*
D03*
Y-26650D02*
D03*
X87500Y-9350D02*
D03*
Y-14650D02*
D03*
X99000Y-20850D02*
D03*
Y-26150D02*
D03*
D16*
X16059Y-68000D02*
D03*
X10941D02*
D03*
X317441Y4000D02*
D03*
X322559D02*
D03*
X80559Y-36500D02*
D03*
X75441D02*
D03*
X353559Y-2500D02*
D03*
X348441D02*
D03*
X388941Y-40000D02*
D03*
X394059D02*
D03*
X340941Y-126500D02*
D03*
X346059D02*
D03*
X348059Y-39000D02*
D03*
X342941D02*
D03*
X353559Y2500D02*
D03*
X348441D02*
D03*
X375441Y2000D02*
D03*
X380559D02*
D03*
D17*
X16240Y-75276D02*
D03*
X12500D02*
D03*
X8760D02*
D03*
Y-84724D02*
D03*
X16240D02*
D03*
X390260Y-33724D02*
D03*
X394000D02*
D03*
X397740D02*
D03*
Y-24276D02*
D03*
X390260D02*
D03*
X340760Y-118240D02*
D03*
X344500D02*
D03*
X348240D02*
D03*
Y-108791D02*
D03*
X340760D02*
D03*
X321740Y-3776D02*
D03*
X318000D02*
D03*
X314260D02*
D03*
Y-13224D02*
D03*
X321740D02*
D03*
D18*
X118610Y3500D02*
D03*
Y-1500D02*
D03*
Y-6500D02*
D03*
Y-11500D02*
D03*
Y-16500D02*
D03*
Y-21500D02*
D03*
Y-26500D02*
D03*
Y-31500D02*
D03*
X155500Y3500D02*
D03*
Y-1500D02*
D03*
Y-6500D02*
D03*
Y-11500D02*
D03*
Y-16500D02*
D03*
Y-21500D02*
D03*
Y-26500D02*
D03*
Y-31500D02*
D03*
D19*
X75441Y-31740D02*
D03*
X78000D02*
D03*
X80559D02*
D03*
Y-24260D02*
D03*
X78000D02*
D03*
X75441D02*
D03*
D20*
X45339Y-23000D02*
D03*
X62661D02*
D03*
D21*
X129154Y-66500D02*
D03*
X135846D02*
D03*
X129154Y-77000D02*
D03*
X135846D02*
D03*
X146153Y-107000D02*
D03*
X152847D02*
D03*
X95346Y-32500D02*
D03*
X88653D02*
D03*
X88653Y-38500D02*
D03*
X95346D02*
D03*
X143846Y-86500D02*
D03*
X137153D02*
D03*
D22*
X357500Y-20000D02*
D03*
D23*
X347657Y-13110D02*
D03*
Y-15079D02*
D03*
Y-17047D02*
D03*
Y-19016D02*
D03*
Y-20984D02*
D03*
Y-22953D02*
D03*
Y-24921D02*
D03*
Y-26890D02*
D03*
X367342D02*
D03*
Y-24921D02*
D03*
Y-22953D02*
D03*
Y-20984D02*
D03*
Y-19016D02*
D03*
Y-17047D02*
D03*
Y-15079D02*
D03*
Y-13110D02*
D03*
D24*
X350610Y-29842D02*
D03*
X352579D02*
D03*
X354547D02*
D03*
X356516D02*
D03*
X358484D02*
D03*
X360453D02*
D03*
X362421D02*
D03*
X364390D02*
D03*
Y-10158D02*
D03*
X362421D02*
D03*
X360453D02*
D03*
X358484D02*
D03*
X356516D02*
D03*
X354547D02*
D03*
X352579D02*
D03*
X350610D02*
D03*
D25*
X368831Y1941D02*
D03*
Y4500D02*
D03*
Y7059D02*
D03*
X360169D02*
D03*
Y1941D02*
D03*
D26*
X121252Y-86500D02*
D03*
X127748D02*
D03*
D27*
X262500Y-124500D02*
D03*
Y-106783D02*
D03*
X226673Y-124500D02*
D03*
Y-106783D02*
D03*
X215000Y-124500D02*
D03*
Y-106783D02*
D03*
X179173Y-124500D02*
D03*
Y-106783D02*
D03*
X310000Y-124500D02*
D03*
Y-106783D02*
D03*
X274173Y-124500D02*
D03*
Y-106783D02*
D03*
D28*
X262000Y-93846D02*
D03*
Y-87154D02*
D03*
X215500Y-93846D02*
D03*
Y-87154D02*
D03*
X294000Y-93846D02*
D03*
Y-87154D02*
D03*
D29*
X50488Y-121051D02*
D03*
X54819D02*
D03*
X59150D02*
D03*
X63480D02*
D03*
X67811D02*
D03*
X72142D02*
D03*
X76472D02*
D03*
X80803D02*
D03*
D30*
X43791Y-84878D02*
D03*
D31*
X91000Y-81532D02*
D03*
D32*
X90000Y-120000D02*
D03*
X43500Y-120500D02*
D03*
M02*
