G04*
G04 #@! TF.GenerationSoftware,Altium Limited,Altium Designer,21.9.2 (33)*
G04*
G04 Layer_Physical_Order=1*
G04 Layer_Color=255*
%FSLAX25Y25*%
%MOIN*%
G70*
G04*
G04 #@! TF.SameCoordinates,D22C8EEC-9F66-4CA6-A23B-34AD4F9630FA*
G04*
G04*
G04 #@! TF.FilePolarity,Positive*
G04*
G01*
G75*
%ADD12C,0.01000*%
%ADD14R,0.02756X0.03543*%
%ADD15R,0.05000X0.04000*%
%ADD16R,0.03543X0.02756*%
%ADD17R,0.02559X0.04331*%
%ADD18R,0.07795X0.02087*%
%ADD19R,0.01378X0.03543*%
%ADD20R,0.05512X0.09843*%
%ADD21R,0.04331X0.03937*%
%ADD23O,0.02756X0.00787*%
%ADD24O,0.00787X0.02756*%
%ADD25R,0.03543X0.01575*%
%ADD26R,0.03150X0.03150*%
%ADD27R,0.08268X0.05512*%
%ADD28R,0.03937X0.04331*%
%ADD29R,0.03150X0.07480*%
%ADD30R,0.07284X0.03937*%
%ADD31R,0.03937X0.07874*%
%ADD32R,0.05906X0.05906*%
%ADD46C,0.05000*%
%ADD59C,0.00800*%
%ADD60C,0.02000*%
%ADD61C,0.01200*%
%ADD62C,0.01500*%
%ADD63R,0.13386X0.13386*%
%ADD64C,0.04000*%
%ADD65C,0.00600*%
%ADD66C,0.13000*%
%ADD67C,0.06000*%
%ADD68C,0.25000*%
%ADD69C,0.05906*%
%ADD70R,0.05906X0.05906*%
%ADD71C,0.01800*%
D12*
X75441Y-15851D02*
G03*
X75150Y-15150I-1000J-5D01*
G01*
X62288Y-2289D02*
G03*
X61586Y-2000I-703J-711D01*
G01*
X62289Y-2289D02*
G03*
X62288Y-2289I-704J-711D01*
G01*
X103982Y-23518D02*
G03*
X104272Y-22814I-711J704D01*
G01*
X102436Y-24650D02*
G03*
X103141Y-24359I0J1000D01*
G01*
X150239Y-72847D02*
G03*
X150944Y-72556I0J1000D01*
G01*
X158207Y-65293D02*
G03*
X158500Y-64586I-707J707D01*
G01*
X158793Y-40207D02*
G03*
X158500Y-40914I707J-707D01*
G01*
X177910Y-21500D02*
G03*
X177209Y-21791I5J-1000D01*
G01*
X171811Y-27189D02*
G03*
X171537Y-27714I711J-704D01*
G01*
X168216Y-31037D02*
G03*
X171537Y-27714I-716J4037D01*
G01*
X165550Y-33393D02*
G03*
X165773Y-33227I-481J877D01*
G01*
X165550Y-33393D02*
G03*
X163894Y-35049I1950J-3607D01*
G01*
X163727Y-35273D02*
G03*
X163894Y-35049I-711J704D01*
G01*
X168216Y-31037D02*
G03*
X167689Y-31311I177J-984D01*
G01*
X68000Y-25253D02*
G03*
X67707Y-24546I-1000J0D01*
G01*
X68000Y-31500D02*
G03*
X73500Y-37000I5500J0D01*
G01*
X62289Y-2289D02*
X75150Y-15150D01*
X62288Y-2289D02*
X62289Y-2289D01*
X75441Y-15851D02*
X75441Y-15855D01*
X45339Y-23000D02*
Y-17661D01*
X262000Y-87154D02*
X294000D01*
X78000Y-32240D02*
X80559D01*
X84500D01*
X13750Y-90750D02*
X15000Y-92000D01*
X12500Y-89500D02*
X13750Y-90750D01*
X10941Y-70441D02*
Y-68000D01*
Y-70441D02*
X12500Y-72000D01*
Y-75276D02*
Y-72000D01*
X15000Y-92000D02*
X30500D01*
X12500Y-89500D02*
Y-75276D01*
X58075Y-117811D02*
X59150Y-121051D01*
X100500Y-24650D02*
X102436D01*
X104272Y-22814D02*
Y-20228D01*
X103141Y-24359D02*
X103982Y-23518D01*
X179500Y-7000D02*
Y-6500D01*
X174500Y-12000D02*
X179500Y-7000D01*
X165500Y-12000D02*
X174500D01*
X155500Y-11500D02*
X165000D01*
X165500Y-12000D01*
X113500Y-1500D02*
X118610D01*
X112500Y-11500D02*
Y-2500D01*
X113500Y-1500D01*
X107500Y-16500D02*
X112500Y-11500D01*
X107500Y-17000D02*
Y-16500D01*
X104272Y-20228D02*
X107500Y-17000D01*
X99000Y-26150D02*
X100500Y-24650D01*
X99000Y-15082D02*
X101000Y-13082D01*
Y-12000D01*
X99000Y-20850D02*
Y-15082D01*
X158500Y-64586D02*
X158500Y-40914D01*
X150944Y-72556D02*
X158207Y-65293D01*
X158793Y-40207D02*
X163727Y-35273D01*
X129154Y-72847D02*
X150239D01*
X177910Y-21500D02*
X177914Y-21500D01*
X165773Y-33227D02*
X167689Y-31311D01*
X171811Y-27189D02*
X177209Y-21791D01*
X177914Y-21500D02*
X235000D01*
X78000Y-24260D02*
Y-21000D01*
Y-24760D02*
Y-24260D01*
X80559Y-36500D02*
Y-32240D01*
Y-39500D02*
Y-36500D01*
X73500Y-37000D02*
X75441D01*
X62661Y-19500D02*
X67707Y-24546D01*
X68000Y-31500D02*
Y-25253D01*
X75441Y-50441D02*
Y-37000D01*
X45339Y-17661D02*
X60000Y-3000D01*
X75441Y-24260D02*
Y-15855D01*
X60000Y-2000D02*
X61586D01*
X78000Y-21000D02*
X86500D01*
X75441Y-50441D02*
X88000Y-63000D01*
X91000D01*
X80559Y-39500D02*
X87653D01*
X84500Y-32240D02*
Y-25000D01*
X87500Y-22000D01*
X64000Y-133000D02*
X91500D01*
X87591Y-14559D02*
X93500D01*
X87500Y-22000D02*
Y-14650D01*
X88000Y-2500D02*
Y-2000D01*
X87500Y-9350D02*
Y-2500D01*
X99000Y-38500D02*
X107500Y-47000D01*
X95346Y-38500D02*
X99000D01*
X95346D02*
Y-32500D01*
X135846Y-77000D02*
X142000D01*
X114500Y-83000D02*
X118000Y-86500D01*
X121252D01*
X143846Y-92654D02*
Y-86500D01*
X141500Y-95000D02*
X143846Y-92654D01*
X115500Y-95000D02*
X141500D01*
X107500Y-87000D02*
X115500Y-95000D01*
X127748Y-86500D02*
X137153D01*
X127500Y-112000D02*
X132500Y-107000D01*
X100000Y-112000D02*
X127500D01*
X86500Y-21000D02*
X87500Y-22000D01*
X152847Y-107000D02*
X167500D01*
X107500Y-77000D02*
X129154D01*
X107500Y-67000D02*
X128654D01*
X54819Y-131819D02*
Y-121051D01*
Y-131819D02*
X58500Y-135500D01*
X164500D01*
X167500Y-132500D01*
Y-127000D01*
X72142Y-121051D02*
Y-109858D01*
X157500Y-95000D02*
Y-82500D01*
X163000Y-77000D01*
X167500D01*
X72142Y-109858D02*
X81000Y-101000D01*
X105702D01*
X105802Y-101100D01*
X151400D01*
X157500Y-95000D01*
X76472Y-121051D02*
Y-112972D01*
X86545Y-102900D01*
X109198D01*
X109298Y-103000D01*
X163500D01*
X167500Y-107000D01*
X91500Y-133000D02*
X107500Y-117000D01*
X63480Y-132480D02*
Y-121051D01*
Y-132480D02*
X64000Y-133000D01*
X321740Y-21181D02*
Y-13224D01*
X322000Y-21441D02*
X329409D01*
X314260Y-21181D02*
Y-13224D01*
X354118Y1941D02*
X360169D01*
X353559Y-2500D02*
Y2500D01*
X329500Y-26650D02*
X332650D01*
X318000Y-3776D02*
Y3441D01*
X329500Y-21350D02*
X338543D01*
X332650Y-26650D02*
X337500Y-31500D01*
X129154Y-77000D02*
Y-72847D01*
X235000Y-21500D02*
X235250Y-21250D01*
X132500Y-107000D02*
X146153D01*
X211347Y-87154D02*
X215500D01*
D14*
X2000Y-86941D02*
D03*
Y-92059D02*
D03*
X29500Y-85059D02*
D03*
Y-79941D02*
D03*
X374500Y-22441D02*
D03*
Y-27559D02*
D03*
X390000Y-16559D02*
D03*
Y-11441D02*
D03*
X397500Y-17559D02*
D03*
Y-12441D02*
D03*
X340500Y-101075D02*
D03*
Y-95957D02*
D03*
X348500Y-101075D02*
D03*
Y-95957D02*
D03*
X322000Y-21441D02*
D03*
Y-26559D02*
D03*
X314000Y-21441D02*
D03*
Y-26559D02*
D03*
X338000Y-20441D02*
D03*
Y-25559D02*
D03*
X360500Y-41559D02*
D03*
Y-36441D02*
D03*
X93500Y-9441D02*
D03*
Y-14559D02*
D03*
D15*
X23500Y-85650D02*
D03*
Y-80350D02*
D03*
X334000Y-101166D02*
D03*
Y-95866D02*
D03*
X383500Y-16650D02*
D03*
Y-11350D02*
D03*
X329500Y-21350D02*
D03*
Y-26650D02*
D03*
X87500Y-9350D02*
D03*
Y-14650D02*
D03*
X99000Y-20850D02*
D03*
Y-26150D02*
D03*
D16*
X16059Y-68000D02*
D03*
X10941D02*
D03*
X317441Y4000D02*
D03*
X322559D02*
D03*
X80559Y-36500D02*
D03*
X75441D02*
D03*
X353559Y-2500D02*
D03*
X348441D02*
D03*
X388941Y-40000D02*
D03*
X394059D02*
D03*
X340941Y-126500D02*
D03*
X346059D02*
D03*
X348059Y-39000D02*
D03*
X342941D02*
D03*
X353559Y2500D02*
D03*
X348441D02*
D03*
X375441Y2000D02*
D03*
X380559D02*
D03*
D17*
X16240Y-75276D02*
D03*
X12500D02*
D03*
X8760D02*
D03*
Y-84724D02*
D03*
X16240D02*
D03*
X390260Y-33724D02*
D03*
X394000D02*
D03*
X397740D02*
D03*
Y-24276D02*
D03*
X390260D02*
D03*
X340760Y-118240D02*
D03*
X344500D02*
D03*
X348240D02*
D03*
Y-108791D02*
D03*
X340760D02*
D03*
X321740Y-3776D02*
D03*
X318000D02*
D03*
X314260D02*
D03*
Y-13224D02*
D03*
X321740D02*
D03*
D18*
X118610Y3500D02*
D03*
Y-1500D02*
D03*
Y-6500D02*
D03*
Y-11500D02*
D03*
Y-16500D02*
D03*
Y-21500D02*
D03*
Y-26500D02*
D03*
Y-31500D02*
D03*
X155500Y3500D02*
D03*
Y-1500D02*
D03*
Y-6500D02*
D03*
Y-11500D02*
D03*
Y-16500D02*
D03*
Y-21500D02*
D03*
Y-26500D02*
D03*
Y-31500D02*
D03*
D19*
X75441Y-31740D02*
D03*
X78000D02*
D03*
X80559D02*
D03*
Y-24260D02*
D03*
X78000D02*
D03*
X75441D02*
D03*
D20*
X45339Y-23000D02*
D03*
X62661D02*
D03*
D21*
X129154Y-66500D02*
D03*
X135846D02*
D03*
X129154Y-77000D02*
D03*
X135846D02*
D03*
X146153Y-107000D02*
D03*
X152847D02*
D03*
X95346Y-32500D02*
D03*
X88653D02*
D03*
X88653Y-38500D02*
D03*
X95346D02*
D03*
X143846Y-86500D02*
D03*
X137153D02*
D03*
D23*
X347657Y-13110D02*
D03*
Y-15079D02*
D03*
Y-17047D02*
D03*
Y-19016D02*
D03*
Y-20984D02*
D03*
Y-22953D02*
D03*
Y-24921D02*
D03*
Y-26890D02*
D03*
X367342D02*
D03*
Y-24921D02*
D03*
Y-22953D02*
D03*
Y-20984D02*
D03*
Y-19016D02*
D03*
Y-17047D02*
D03*
Y-15079D02*
D03*
Y-13110D02*
D03*
D24*
X350610Y-29842D02*
D03*
X352579D02*
D03*
X354547D02*
D03*
X356516D02*
D03*
X358484D02*
D03*
X360453D02*
D03*
X362421D02*
D03*
X364390D02*
D03*
Y-10158D02*
D03*
X362421D02*
D03*
X360453D02*
D03*
X358484D02*
D03*
X356516D02*
D03*
X354547D02*
D03*
X352579D02*
D03*
X350610D02*
D03*
D25*
X368831Y1941D02*
D03*
Y4500D02*
D03*
Y7059D02*
D03*
X360169D02*
D03*
Y1941D02*
D03*
D26*
X121252Y-86500D02*
D03*
X127748D02*
D03*
D27*
X262500Y-124500D02*
D03*
Y-106783D02*
D03*
X226673Y-124500D02*
D03*
Y-106783D02*
D03*
X215000Y-124500D02*
D03*
Y-106783D02*
D03*
X179173Y-124500D02*
D03*
Y-106783D02*
D03*
X310000Y-124500D02*
D03*
Y-106783D02*
D03*
X274173Y-124500D02*
D03*
Y-106783D02*
D03*
D28*
X262000Y-93846D02*
D03*
Y-87154D02*
D03*
X215500Y-93846D02*
D03*
Y-87154D02*
D03*
X294000Y-93846D02*
D03*
Y-87154D02*
D03*
D29*
X50488Y-121051D02*
D03*
X54819D02*
D03*
X59150D02*
D03*
X63480D02*
D03*
X67811D02*
D03*
X72142D02*
D03*
X76472D02*
D03*
X80803D02*
D03*
D30*
X43791Y-84878D02*
D03*
D31*
X91000Y-81532D02*
D03*
D32*
X90000Y-120000D02*
D03*
X43500Y-120500D02*
D03*
X320500Y-56000D02*
D03*
X91000Y-53000D02*
D03*
D46*
X36000Y-80000D02*
D03*
X-500Y-70500D02*
D03*
X30500Y-92000D02*
D03*
X87500Y-22000D02*
D03*
X101000Y-12000D02*
D03*
X339000Y-9000D02*
D03*
X343000Y2500D02*
D03*
X337500Y-31500D02*
D03*
D59*
X41370Y-93370D02*
G03*
X41926Y-93600I562J569D01*
G01*
X248234Y7766D02*
G03*
X247669Y8000I-566J-566D01*
G01*
X157234Y-38419D02*
G03*
X157234Y-38420I566J-566D01*
G01*
X178327Y-12000D02*
G03*
X177767Y-12233I4J-800D01*
G01*
X130820Y-64833D02*
G03*
X130737Y-64931I568J-564D01*
G01*
X157234Y-38420D02*
G03*
X157000Y-38985I566J-565D01*
G01*
X156200Y-62500D02*
G03*
X157000Y-61700I0J800D01*
G01*
X159609Y-65929D02*
G03*
X160000Y-64607I-2109J1343D01*
G01*
X159609Y-65929D02*
G03*
X160035Y-69956I2720J-1748D01*
G01*
X162348Y-72269D02*
G03*
X162907Y-72500I563J569D01*
G01*
X160152Y-52623D02*
G03*
X160100Y-52988I1348J-377D01*
G01*
X162331Y-47000D02*
G03*
X161561Y-47585I0J-800D01*
G01*
X168080Y-21920D02*
G03*
X167228Y-22817I17031J-17031D01*
G01*
X166784Y-23065D02*
G03*
X167228Y-22817I-147J786D01*
G01*
X161345Y-34309D02*
G03*
X161557Y-33917I-569J563D01*
G01*
X163512Y-28293D02*
G03*
X161557Y-33917I21600J-10658D01*
G01*
X166784Y-23065D02*
G03*
X163578Y-27787I716J-3935D01*
G01*
X163512Y-28293D02*
G03*
X163578Y-27787I-719J351D01*
G01*
X170973Y-19027D02*
G03*
X170870Y-19155I569J-563D01*
G01*
X169656Y-20369D02*
G03*
X169527Y-20472I434J-672D01*
G01*
X169656Y-20369D02*
G03*
X170870Y-19155I-2156J3369D01*
G01*
X29559Y-80000D02*
X36000D01*
X29500Y-79941D02*
X29559Y-80000D01*
X29091Y-80350D02*
X29500Y-79941D01*
X23500Y-80350D02*
X29091D01*
X29769Y-84765D02*
X30089Y-85059D01*
X29724Y-84724D02*
X29769Y-84765D01*
X16240Y-84724D02*
X29724D01*
X30089Y-85059D02*
X33941D01*
X29500D02*
X30089D01*
X33941D02*
X37500Y-88618D01*
Y-89500D02*
Y-88618D01*
X30500Y-92000D02*
X33500Y-95000D01*
X37500Y-89500D02*
X41370Y-93370D01*
X41926Y-93600D02*
X53840D01*
X67811Y-107571D01*
X132000Y-48500D02*
Y-6969D01*
X121000Y-59500D02*
X132000Y-48500D01*
X118610Y-6500D02*
X131531D01*
X132000Y-6969D01*
X0Y-70500D02*
X500Y-71000D01*
X-500Y-70500D02*
X0D01*
X67811Y-121051D02*
Y-107571D01*
X33500Y-95000D02*
X43500D01*
X59150Y-121051D02*
Y-110650D01*
X43500Y-95000D02*
X59150Y-110650D01*
X248234Y7766D02*
X253500Y2500D01*
X163000Y8000D02*
X247669D01*
X165000Y-2000D02*
X184000D01*
X189000Y-7000D01*
X160500Y-6500D02*
X165000Y-2000D01*
X155500Y-6500D02*
X160500D01*
X161000Y6000D02*
X163000Y8000D01*
X161000Y1146D02*
Y6000D01*
X158354Y-1500D02*
X161000Y1146D01*
X155500Y-1500D02*
X158354D01*
X177767Y-12233D02*
X177767Y-12233D01*
X170973Y-19027D02*
X177767Y-12233D01*
X130737Y-64931D02*
X130919D01*
X161345Y-34309D02*
X161345Y-34309D01*
X157234Y-38419D02*
X161345Y-34309D01*
X157234Y-38420D02*
X157234Y-38419D01*
X157000Y-44000D02*
X157000Y-38985D01*
X157000Y-61700D02*
X157000Y-44000D01*
X149000Y-36000D02*
X157000Y-44000D01*
X149000Y-146D02*
X152646Y3500D01*
X149000Y-36000D02*
Y-146D01*
X152646Y3500D02*
X155500D01*
X178331Y-12000D02*
X229000D01*
X133153Y-62500D02*
X156200D01*
X162907Y-72500D02*
X174500D01*
X159609Y-65929D02*
Y-65929D01*
X160035Y-69956D02*
X162348Y-72269D01*
X160000Y-64607D02*
X160100Y-52988D01*
X164100Y-71100D02*
X209100D01*
X161500Y-53000D02*
X163000Y-51500D01*
X161500Y-68500D02*
X164100Y-71100D01*
X161500Y-68500D02*
Y-53000D01*
X209100Y-71100D02*
X262500Y-124500D01*
X162331Y-47000D02*
X162331Y-47000D01*
X160152Y-52623D02*
X161561Y-47585D01*
X162331Y-47000D02*
X167500D01*
X163000Y-51500D02*
X170000D01*
X129154Y-66500D02*
X130817Y-65022D01*
X130820Y-64833D02*
X133153Y-62500D01*
X130817Y-65022D02*
X130919Y-64931D01*
X168080Y-21920D02*
X169527Y-20472D01*
X356516Y-4984D02*
X358500Y-3000D01*
X178327Y-12000D02*
X178331Y-12000D01*
X169527Y-20472D02*
X169527Y-20472D01*
X130820Y-64833D02*
X130820Y-64833D01*
X397740Y-38469D02*
X399000Y-39729D01*
Y-40000D02*
Y-39729D01*
X397740Y-38469D02*
Y-33724D01*
X75441Y-36500D02*
Y-31740D01*
X60000Y-3000D02*
Y-2000D01*
X135846Y-69653D02*
Y-66500D01*
X134500Y-71000D02*
X135846Y-69653D01*
X122000Y-71000D02*
X134500D01*
X120500Y-72500D02*
X122000Y-71000D01*
X102000Y-72500D02*
X120500D01*
X364390Y-10158D02*
Y-8110D01*
X367500Y-5000D01*
X362421Y-10158D02*
Y-7079D01*
X360453Y-10158D02*
Y-4547D01*
X356516Y-10158D02*
Y-4984D01*
X367342Y-13110D02*
X371890D01*
X367342Y-15079D02*
X373421D01*
X367342Y-19016D02*
X374484D01*
X371890Y-13110D02*
X373000Y-12000D01*
Y-9500D01*
X373421Y-15079D02*
X376000Y-12500D01*
X360453Y-4547D02*
X362000Y-3000D01*
X354547Y-10158D02*
Y-3488D01*
X352579Y-10158D02*
Y-6579D01*
X350610Y-10158D02*
Y-7610D01*
X348441Y-5441D02*
X350610Y-7610D01*
X351441Y-5441D02*
X352579Y-6579D01*
X348441Y-5441D02*
X351441D01*
X343000Y2500D02*
X348441D01*
Y-5441D02*
Y-2500D01*
Y2500D01*
X368453Y4878D02*
X368831Y4500D01*
X345378Y4878D02*
X368453D01*
X343000Y2500D02*
X345378Y4878D01*
X380559Y2000D02*
X385000D01*
X358484Y-33484D02*
Y-29842D01*
X360453Y-36394D02*
Y-29842D01*
X362421Y-31921D02*
Y-29842D01*
Y-31921D02*
X365000Y-34500D01*
X356016Y-33484D02*
X358484D01*
X355000Y-34500D02*
X356016Y-33484D01*
X355000Y-37500D02*
Y-34500D01*
X365000Y-38000D02*
Y-34500D01*
X320500Y-66000D02*
X348000D01*
X360500Y-53500D01*
Y-41559D01*
X343957Y-95957D02*
X344500Y-96500D01*
X334000Y-95866D02*
X334091Y-95957D01*
X340500D01*
X343957D01*
X348500D01*
X348240Y-108791D02*
Y-101335D01*
X340760Y-108791D02*
Y-101335D01*
X346059Y-126500D02*
Y-123059D01*
X344500Y-121500D02*
X346059Y-123059D01*
X344500Y-121500D02*
Y-118240D01*
X394000Y-39941D02*
Y-33724D01*
X390260Y-38681D02*
Y-33724D01*
X388941Y-40000D02*
X390260Y-38681D01*
Y-24276D02*
Y-16819D01*
X390091Y-16650D02*
X390260Y-16819D01*
X382500Y-17650D02*
X383500Y-16650D01*
X382500Y-20000D02*
Y-17650D01*
X380059Y-22441D02*
X382500Y-20000D01*
X374500Y-22441D02*
X380059D01*
X383500Y-16650D02*
X390091D01*
X367342Y-20984D02*
X373043D01*
X374500Y-22441D01*
Y-27559D02*
X379441D01*
X383591Y-11441D02*
X390000D01*
X383500Y-11350D02*
X383591Y-11441D01*
X390000D02*
X394000D01*
X397740Y-24276D02*
Y-17799D01*
X394000Y-11441D02*
X396500D01*
X388941Y-44441D02*
Y-40000D01*
Y-44441D02*
X403441D01*
X404000Y-45000D01*
X352579Y-32421D02*
Y-29842D01*
X348059Y-36941D02*
X352579Y-32421D01*
X348059Y-39000D02*
Y-36941D01*
X343110Y-13110D02*
X347657D01*
X339000Y-9000D02*
X343110Y-13110D01*
X340606Y-17047D02*
X347657D01*
X339000Y-15441D02*
X340606Y-17047D01*
X339000Y-15441D02*
Y-9000D01*
X338500Y-24921D02*
X347657D01*
X339500Y-39000D02*
X342941D01*
X322559Y4000D02*
Y9441D01*
X338543Y-20984D02*
X347657D01*
X337500Y-31500D02*
X338000Y-31000D01*
X347657Y-17047D02*
X354547D01*
X338000Y-37500D02*
X339500Y-39000D01*
X338000Y-37500D02*
Y-31000D01*
X374484Y-19016D02*
X376500Y-17000D01*
X362421Y-7079D02*
X367000Y-2500D01*
X367500Y-5000D02*
X373000D01*
X348240Y-121740D02*
Y-118240D01*
Y-121740D02*
X351000Y-124500D01*
X352500D01*
X229000Y-12000D02*
X243500Y2500D01*
X253500Y-3000D02*
Y2500D01*
X235250Y-21250D02*
X253500Y-3000D01*
X167500Y-87000D02*
X182000D01*
X203000Y-108000D01*
Y-128000D02*
Y-108000D01*
Y-128000D02*
X206000Y-131000D01*
X303500D01*
X310000Y-124500D01*
X215000D02*
Y-121000D01*
X204400Y-110400D02*
X215000Y-121000D01*
X204400Y-110400D02*
Y-102400D01*
X215000Y-106783D02*
Y-94346D01*
X262500Y-106783D02*
Y-94346D01*
X307000Y-103784D02*
X310000Y-106783D01*
X307000Y-103784D02*
Y-100000D01*
X300847Y-93846D02*
X307000Y-100000D01*
X294000Y-93846D02*
X300847D01*
X167500Y-37000D02*
X173500Y-43000D01*
Y-48000D02*
Y-43000D01*
X170000Y-51500D02*
X173500Y-48000D01*
X174500Y-72500D02*
X204400Y-102400D01*
X219500Y-60000D02*
X230000D01*
X236500Y-66500D01*
D60*
X16240Y-59069D02*
G03*
X15654Y-57654I-2000J0D01*
G01*
X115322Y10000D02*
G03*
X113918Y9418I6J-2000D01*
G01*
X4000Y-46000D02*
X15654Y-57654D01*
X16059Y-68000D02*
X16240Y-68378D01*
X16059Y-68000D02*
X16240Y-67622D01*
X15654Y-57654D02*
X15654Y-57654D01*
X16240Y-75276D02*
Y-68378D01*
Y-67622D02*
Y-59069D01*
X115322Y10000D02*
X115328Y10000D01*
X113918Y9418D02*
X113918Y9418D01*
X107500Y3000D02*
X113918Y9418D01*
X4000Y-46000D02*
Y-14000D01*
X11000Y-7000D01*
Y1409D01*
X14763Y5172D02*
X68828D01*
X70000Y4000D01*
X11000Y1409D02*
X14763Y5172D01*
X70000Y-2000D02*
Y4000D01*
X93500Y-2000D02*
X97000D01*
X115328Y10000D02*
X394000D01*
X70000Y-2000D02*
X88000D01*
X93500D01*
X97000D02*
X102000Y3000D01*
X107500D01*
X394000Y10000D02*
X404000Y0D01*
X342000Y-132500D02*
X354000D01*
X340941Y-131441D02*
X342000Y-132500D01*
X354000D02*
X404000Y-82500D01*
Y-45000D01*
Y0D01*
D61*
X96078Y-12787D02*
G03*
X94878Y-11587I-1200J0D01*
G01*
Y-17531D02*
G03*
X96078Y-16331I0J1200D01*
G01*
X93500Y-8225D02*
G03*
X93501Y-8269I1200J8D01*
G01*
X93624Y-10748D02*
G03*
X94769Y-11587I1144J361D01*
G01*
X94700Y-17531D02*
G03*
X93500Y-18731I0J-1200D01*
G01*
X91021Y-25979D02*
G03*
X93500Y-19998I-5971J5979D01*
G01*
X368831Y1941D02*
X375882D01*
X94769Y-11587D02*
X94878D01*
X96078Y-16331D02*
Y-12787D01*
X93501Y-8269D02*
X94278D01*
X94700Y-17531D02*
X94878D01*
X93500Y-18731D02*
Y-18731D01*
X93500Y-19998D02*
X93500Y-18731D01*
X93500Y-9441D02*
X93624Y-10613D01*
X93500Y-9441D02*
X94278Y-8269D01*
X93624Y-10748D02*
Y-10613D01*
X93500Y-8225D02*
X93500Y-2000D01*
X88653Y-28346D02*
X91021Y-25979D01*
X88653Y-32500D02*
Y-28346D01*
X321740Y-3776D02*
Y3681D01*
X318000Y-26559D02*
X322000D01*
X329409D01*
X314000D02*
X318000D01*
X313000Y-63500D02*
X320500Y-56000D01*
X313000Y-84500D02*
Y-63500D01*
Y-84500D02*
X329835Y-101335D01*
X340760D01*
Y-125216D02*
Y-118240D01*
X334000Y-95866D02*
Y-89500D01*
X320500Y-76000D02*
X334000Y-89500D01*
X394000Y-11441D02*
Y-6500D01*
X338000Y-31000D02*
Y-25559D01*
X375441Y2000D02*
Y9059D01*
X310224Y-3776D02*
X314260D01*
X305500Y-8500D02*
X310224Y-3776D01*
X305500Y-40000D02*
Y-8500D01*
X167500Y-67000D02*
X203000D01*
X230000Y-40000D01*
X305500D01*
X368831Y7059D02*
X372941D01*
X287000Y-28500D02*
X296000D01*
D62*
X393561Y-32439D02*
G03*
X394000Y-31379I-1061J1061D01*
G01*
X394000D02*
X394000Y-11441D01*
X393500Y-32500D02*
X393561Y-32439D01*
X318000Y-26559D02*
Y-3776D01*
X344500Y-118240D02*
Y-96500D01*
X340941Y-131441D02*
Y-126500D01*
D63*
X357500Y-20000D02*
D03*
D64*
X13500Y-128000D02*
D03*
X11500Y7000D02*
D03*
X432500Y-131500D02*
D03*
X433000Y6500D02*
D03*
D65*
X4776Y-75276D02*
X8760D01*
X500Y-71000D02*
X4776Y-75276D01*
X2000Y-92059D02*
X12441D01*
X13750Y-90750D01*
X6776Y-84724D02*
X8760D01*
X4559Y-86941D02*
X6776Y-84724D01*
X2000Y-86941D02*
X4559D01*
X253000Y-106500D02*
X264000Y-117500D01*
X268500D01*
X253000Y-106500D02*
Y-67000D01*
X233000Y-47000D02*
X253000Y-67000D01*
D66*
X0Y0D02*
D03*
Y-125000D02*
D03*
D67*
X127500Y-127000D02*
D03*
X107500Y3000D02*
D03*
Y-7000D02*
D03*
Y-17000D02*
D03*
Y-27000D02*
D03*
Y-37000D02*
D03*
Y-47000D02*
D03*
Y-57000D02*
D03*
Y-67000D02*
D03*
Y-77000D02*
D03*
Y-87000D02*
D03*
Y-97000D02*
D03*
Y-107000D02*
D03*
Y-117000D02*
D03*
Y-127000D02*
D03*
X117500D02*
D03*
X137500D02*
D03*
X147500D02*
D03*
X157500D02*
D03*
X167500D02*
D03*
Y-117000D02*
D03*
Y-107000D02*
D03*
Y-97000D02*
D03*
Y-87000D02*
D03*
Y-77000D02*
D03*
Y-67000D02*
D03*
Y-57000D02*
D03*
Y-47000D02*
D03*
Y-37000D02*
D03*
Y-27000D02*
D03*
Y-17000D02*
D03*
Y-7000D02*
D03*
Y3000D02*
D03*
D68*
X23000Y-20000D02*
D03*
X419500D02*
D03*
Y-109500D02*
D03*
X23000D02*
D03*
D69*
X320500Y-66000D02*
D03*
Y-76000D02*
D03*
X91000Y-63000D02*
D03*
X60000Y-2000D02*
D03*
X70000D02*
D03*
X253500Y2500D02*
D03*
X243500D02*
D03*
X233500D02*
D03*
X287000Y-28500D02*
D03*
D70*
X50000Y-2000D02*
D03*
X223500Y2500D02*
D03*
X297000Y-28500D02*
D03*
D71*
X121000Y-59500D02*
D03*
X63500Y-103500D02*
D03*
X268500Y-117500D02*
D03*
X233000Y-47000D02*
D03*
X189000Y-7000D02*
D03*
X179500D02*
D03*
X399000Y-40000D02*
D03*
X142000Y-77000D02*
D03*
X114500Y-83000D02*
D03*
X373000Y-5100D02*
D03*
Y-9100D02*
D03*
X376343Y-12116D02*
D03*
X376500Y-17100D02*
D03*
X367000Y-2600D02*
D03*
X362500D02*
D03*
X358500Y-3100D02*
D03*
X385000Y2000D02*
D03*
X365000Y-37600D02*
D03*
X379500Y-27600D02*
D03*
X394000Y-6600D02*
D03*
X355000Y-37600D02*
D03*
X373000Y7000D02*
D03*
X305500Y-40000D02*
D03*
X352500Y-124500D02*
D03*
X102000Y-72500D02*
D03*
X100000Y-112000D02*
D03*
X188000Y-35000D02*
D03*
X219500Y-60000D02*
D03*
X236500Y-66500D02*
D03*
X211000Y-87500D02*
D03*
X281500Y-87000D02*
D03*
M02*
