G04*
G04 #@! TF.GenerationSoftware,Altium Limited,Altium Designer,21.9.2 (33)*
G04*
G04 Layer_Color=255*
%FSLAX25Y25*%
%MOIN*%
G70*
G04*
G04 #@! TF.SameCoordinates,D22C8EEC-9F66-4CA6-A23B-34AD4F9630FA*
G04*
G04*
G04 #@! TF.FilePolarity,Positive*
G04*
G01*
G75*
%ADD32R,0.05906X0.05906*%
%ADD66C,0.13000*%
%ADD67C,0.06000*%
%ADD68C,0.25000*%
%ADD69C,0.05906*%
%ADD70R,0.05906X0.05906*%
G04:AMPARAMS|DCode=83|XSize=125.98mil|YSize=180mil|CornerRadius=0mil|HoleSize=0mil|Usage=FLASHONLY|Rotation=135.000|XOffset=0mil|YOffset=0mil|HoleType=Round|Shape=Rectangle|*
%AMROTATEDRECTD83*
4,1,4,0.10818,0.01910,-0.01910,-0.10818,-0.10818,-0.01910,0.01910,0.10818,0.10818,0.01910,0.0*
%
%ADD83ROTATEDRECTD83*%

D32*
X320500Y-56000D02*
D03*
X91000Y-53000D02*
D03*
D66*
X0Y0D02*
D03*
Y-125000D02*
D03*
D67*
X127500Y-127000D02*
D03*
X107500Y3000D02*
D03*
Y-7000D02*
D03*
Y-17000D02*
D03*
Y-27000D02*
D03*
Y-37000D02*
D03*
Y-47000D02*
D03*
Y-57000D02*
D03*
Y-67000D02*
D03*
Y-77000D02*
D03*
Y-87000D02*
D03*
Y-97000D02*
D03*
Y-107000D02*
D03*
Y-117000D02*
D03*
Y-127000D02*
D03*
X117500D02*
D03*
X137500D02*
D03*
X147500D02*
D03*
X157500D02*
D03*
X167500D02*
D03*
Y-117000D02*
D03*
Y-107000D02*
D03*
Y-97000D02*
D03*
Y-87000D02*
D03*
Y-77000D02*
D03*
Y-67000D02*
D03*
Y-57000D02*
D03*
Y-47000D02*
D03*
Y-37000D02*
D03*
Y-27000D02*
D03*
Y-17000D02*
D03*
Y-7000D02*
D03*
Y3000D02*
D03*
D68*
X23000Y-20000D02*
D03*
X419500D02*
D03*
Y-109500D02*
D03*
X23000D02*
D03*
D69*
X320500Y-66000D02*
D03*
Y-76000D02*
D03*
X91000Y-63000D02*
D03*
X60000Y-2000D02*
D03*
X70000D02*
D03*
X253500Y2500D02*
D03*
X243500D02*
D03*
X233500D02*
D03*
X287000Y-28500D02*
D03*
D70*
X50000Y-2000D02*
D03*
X223500Y2500D02*
D03*
X297000Y-28500D02*
D03*
D83*
X198432Y-24432D02*
D03*
X280000Y-106000D02*
D03*
M02*
