G04*
G04 #@! TF.GenerationSoftware,Altium Limited,Altium Designer,21.9.2 (33)*
G04*
G04 Layer_Color=16711935*
%FSLAX25Y25*%
%MOIN*%
G70*
G04*
G04 #@! TF.SameCoordinates,D22C8EEC-9F66-4CA6-A23B-34AD4F9630FA*
G04*
G04*
G04 #@! TF.FilePolarity,Positive*
G04*
G01*
G75*
%ADD13C,0.00394*%
D13*
X353169Y-13701D02*
G03*
X353169Y-13701I-1969J0D01*
G01*
X6398Y-76457D02*
X18602D01*
X6398Y-83543D02*
X18602D01*
Y-76457D01*
X6398Y-83543D02*
Y-76457D01*
X387898Y-32543D02*
X400102D01*
X387898Y-25457D02*
X400102D01*
X387898Y-32543D02*
Y-25457D01*
X400102Y-32543D02*
Y-25457D01*
X73768Y-30756D02*
X82232D01*
X73768Y-25244D02*
X82232D01*
X73768Y-30756D02*
Y-25244D01*
X82232Y-30756D02*
Y-25244D01*
X347657Y-29842D02*
Y-10158D01*
X367342Y-29842D02*
Y-10158D01*
X347657D02*
X367342D01*
X347657Y-29842D02*
X367342D01*
X338398Y-117059D02*
X350602D01*
X338398Y-109972D02*
X350602D01*
X338398Y-117059D02*
Y-109972D01*
X350602Y-117059D02*
Y-109972D01*
X366961Y563D02*
Y8437D01*
X362039Y563D02*
Y8437D01*
Y563D02*
X366961D01*
X362039Y8437D02*
X366961D01*
X311898Y-4957D02*
X324102D01*
X311898Y-12043D02*
X324102D01*
Y-4957D01*
X311898Y-12043D02*
Y-4957D01*
M02*
