G04*
G04 #@! TF.GenerationSoftware,Altium Limited,Altium Designer,21.9.2 (33)*
G04*
G04 Layer_Color=16711935*
%FSLAX25Y25*%
%MOIN*%
G70*
G04*
G04 #@! TF.SameCoordinates,D22C8EEC-9F66-4CA6-A23B-34AD4F9630FA*
G04*
G04*
G04 #@! TF.FilePolarity,Negative*
G04*
G01*
G75*
%ADD52R,0.06706X0.06706*%
%ADD53C,0.13800*%
%ADD54C,0.06800*%
%ADD55C,0.25800*%
%ADD56C,0.06706*%
%ADD57R,0.06706X0.06706*%
%ADD58C,0.05800*%
G04:AMPARAMS|DCode=84|XSize=133.98mil|YSize=188mil|CornerRadius=0mil|HoleSize=0mil|Usage=FLASHONLY|Rotation=135.000|XOffset=0mil|YOffset=0mil|HoleType=Round|Shape=Rectangle|*
%AMROTATEDRECTD84*
4,1,4,0.11384,0.01910,-0.01910,-0.11384,-0.11384,-0.01910,0.01910,0.11384,0.11384,0.01910,0.0*
%
%ADD84ROTATEDRECTD84*%

D52*
X320500Y-56000D02*
D03*
X91000Y-53000D02*
D03*
D53*
X0Y0D02*
D03*
Y-125000D02*
D03*
D54*
X127500Y-127000D02*
D03*
X107500Y3000D02*
D03*
Y-7000D02*
D03*
Y-17000D02*
D03*
Y-27000D02*
D03*
Y-37000D02*
D03*
Y-47000D02*
D03*
Y-57000D02*
D03*
Y-67000D02*
D03*
Y-77000D02*
D03*
Y-87000D02*
D03*
Y-97000D02*
D03*
Y-107000D02*
D03*
Y-117000D02*
D03*
Y-127000D02*
D03*
X117500D02*
D03*
X137500D02*
D03*
X147500D02*
D03*
X157500D02*
D03*
X167500D02*
D03*
Y-117000D02*
D03*
Y-107000D02*
D03*
Y-97000D02*
D03*
Y-87000D02*
D03*
Y-77000D02*
D03*
Y-67000D02*
D03*
Y-57000D02*
D03*
Y-47000D02*
D03*
Y-37000D02*
D03*
Y-27000D02*
D03*
Y-17000D02*
D03*
Y-7000D02*
D03*
Y3000D02*
D03*
D55*
X23000Y-20000D02*
D03*
X419500D02*
D03*
Y-109500D02*
D03*
X23000D02*
D03*
D56*
X320500Y-66000D02*
D03*
Y-76000D02*
D03*
X91000Y-63000D02*
D03*
X60000Y-2000D02*
D03*
X70000D02*
D03*
X253500Y2500D02*
D03*
X243500D02*
D03*
X233500D02*
D03*
X287000Y-28500D02*
D03*
D57*
X50000Y-2000D02*
D03*
X223500Y2500D02*
D03*
X297000Y-28500D02*
D03*
D58*
X87500Y-22000D02*
D03*
D84*
X198432Y-24432D02*
D03*
X280000Y-106000D02*
D03*
M02*
