G04*
G04 #@! TF.GenerationSoftware,Altium Limited,Altium Designer,21.9.2 (33)*
G04*
G04 Layer_Color=8388736*
%FSLAX25Y25*%
%MOIN*%
G70*
G04*
G04 #@! TF.SameCoordinates,D22C8EEC-9F66-4CA6-A23B-34AD4F9630FA*
G04*
G04*
G04 #@! TF.FilePolarity,Negative*
G04*
G01*
G75*
%ADD33R,0.03556X0.04343*%
%ADD34R,0.05800X0.04800*%
%ADD35R,0.04343X0.03556*%
%ADD36R,0.03359X0.05131*%
%ADD37R,0.08595X0.02887*%
%ADD38R,0.02178X0.04343*%
%ADD39R,0.06312X0.10642*%
%ADD40R,0.05131X0.04737*%
%ADD41R,0.14186X0.14186*%
%ADD42O,0.03556X0.01587*%
%ADD43O,0.01587X0.03556*%
%ADD44R,0.04343X0.02375*%
%ADD45R,0.03950X0.03950*%
%ADD46C,0.05000*%
%ADD47R,0.09068X0.06312*%
%ADD48R,0.04737X0.05131*%
%ADD49R,0.03950X0.08280*%
%ADD50R,0.08083X0.04737*%
%ADD51R,0.04737X0.08674*%
%ADD52R,0.06706X0.06706*%
%ADD53C,0.13800*%
%ADD54C,0.06800*%
%ADD55C,0.25800*%
%ADD56C,0.06706*%
%ADD57R,0.06706X0.06706*%
%ADD58C,0.05800*%
D33*
X2000Y-86941D02*
D03*
Y-92059D02*
D03*
X29500Y-85059D02*
D03*
Y-79941D02*
D03*
X374500Y-22441D02*
D03*
Y-27559D02*
D03*
X390000Y-16559D02*
D03*
Y-11441D02*
D03*
X397500Y-17559D02*
D03*
Y-12441D02*
D03*
X340500Y-101075D02*
D03*
Y-95957D02*
D03*
X348500Y-101075D02*
D03*
Y-95957D02*
D03*
X322000Y-21441D02*
D03*
Y-26559D02*
D03*
X314000Y-21441D02*
D03*
Y-26559D02*
D03*
X338000Y-20441D02*
D03*
Y-25559D02*
D03*
X360500Y-41559D02*
D03*
Y-36441D02*
D03*
X93500Y-9441D02*
D03*
Y-14559D02*
D03*
D34*
X23500Y-85650D02*
D03*
Y-80350D02*
D03*
X334000Y-101166D02*
D03*
Y-95866D02*
D03*
X383500Y-16650D02*
D03*
Y-11350D02*
D03*
X329500Y-21350D02*
D03*
Y-26650D02*
D03*
X87500Y-9350D02*
D03*
Y-14650D02*
D03*
X99000Y-20850D02*
D03*
Y-26150D02*
D03*
D35*
X16059Y-68000D02*
D03*
X10941D02*
D03*
X317441Y4000D02*
D03*
X322559D02*
D03*
X80559Y-36500D02*
D03*
X75441D02*
D03*
X353559Y-2500D02*
D03*
X348441D02*
D03*
X388941Y-40000D02*
D03*
X394059D02*
D03*
X340941Y-126500D02*
D03*
X346059D02*
D03*
X348059Y-39000D02*
D03*
X342941D02*
D03*
X353559Y2500D02*
D03*
X348441D02*
D03*
X375441Y2000D02*
D03*
X380559D02*
D03*
D36*
X16240Y-75276D02*
D03*
X12500D02*
D03*
X8760D02*
D03*
Y-84724D02*
D03*
X16240D02*
D03*
X390260Y-33724D02*
D03*
X394000D02*
D03*
X397740D02*
D03*
Y-24276D02*
D03*
X390260D02*
D03*
X340760Y-118240D02*
D03*
X344500D02*
D03*
X348240D02*
D03*
Y-108791D02*
D03*
X340760D02*
D03*
X321740Y-3776D02*
D03*
X318000D02*
D03*
X314260D02*
D03*
Y-13224D02*
D03*
X321740D02*
D03*
D37*
X118610Y3500D02*
D03*
Y-1500D02*
D03*
Y-6500D02*
D03*
Y-11500D02*
D03*
Y-16500D02*
D03*
Y-21500D02*
D03*
Y-26500D02*
D03*
Y-31500D02*
D03*
X155500Y3500D02*
D03*
Y-1500D02*
D03*
Y-6500D02*
D03*
Y-11500D02*
D03*
Y-16500D02*
D03*
Y-21500D02*
D03*
Y-26500D02*
D03*
Y-31500D02*
D03*
D38*
X75441Y-31740D02*
D03*
X78000D02*
D03*
X80559D02*
D03*
Y-24260D02*
D03*
X78000D02*
D03*
X75441D02*
D03*
D39*
X45339Y-23000D02*
D03*
X62661D02*
D03*
D40*
X129154Y-66500D02*
D03*
X135846D02*
D03*
X129154Y-77000D02*
D03*
X135846D02*
D03*
X146153Y-107000D02*
D03*
X152847D02*
D03*
X95346Y-32500D02*
D03*
X88653D02*
D03*
X88653Y-38500D02*
D03*
X95346D02*
D03*
X143846Y-86500D02*
D03*
X137153D02*
D03*
D41*
X357500Y-20000D02*
D03*
D42*
X347657Y-13110D02*
D03*
Y-15079D02*
D03*
Y-17047D02*
D03*
Y-19016D02*
D03*
Y-20984D02*
D03*
Y-22953D02*
D03*
Y-24921D02*
D03*
Y-26890D02*
D03*
X367342D02*
D03*
Y-24921D02*
D03*
Y-22953D02*
D03*
Y-20984D02*
D03*
Y-19016D02*
D03*
Y-17047D02*
D03*
Y-15079D02*
D03*
Y-13110D02*
D03*
D43*
X350610Y-29842D02*
D03*
X352579D02*
D03*
X354547D02*
D03*
X356516D02*
D03*
X358484D02*
D03*
X360453D02*
D03*
X362421D02*
D03*
X364390D02*
D03*
Y-10158D02*
D03*
X362421D02*
D03*
X360453D02*
D03*
X358484D02*
D03*
X356516D02*
D03*
X354547D02*
D03*
X352579D02*
D03*
X350610D02*
D03*
D44*
X368831Y1941D02*
D03*
Y4500D02*
D03*
Y7059D02*
D03*
X360169D02*
D03*
Y1941D02*
D03*
D45*
X121252Y-86500D02*
D03*
X127748D02*
D03*
D46*
X13500Y-128000D02*
D03*
X11500Y7000D02*
D03*
X432500Y-131500D02*
D03*
X433000Y6500D02*
D03*
D47*
X262500Y-124500D02*
D03*
Y-106783D02*
D03*
X226673Y-124500D02*
D03*
Y-106783D02*
D03*
X215000Y-124500D02*
D03*
Y-106783D02*
D03*
X179173Y-124500D02*
D03*
Y-106783D02*
D03*
X310000Y-124500D02*
D03*
Y-106783D02*
D03*
X274173Y-124500D02*
D03*
Y-106783D02*
D03*
D48*
X262000Y-93846D02*
D03*
Y-87154D02*
D03*
X215500Y-93846D02*
D03*
Y-87154D02*
D03*
X294000Y-93846D02*
D03*
Y-87154D02*
D03*
D49*
X50488Y-121051D02*
D03*
X54819D02*
D03*
X59150D02*
D03*
X63480D02*
D03*
X67811D02*
D03*
X72142D02*
D03*
X76472D02*
D03*
X80803D02*
D03*
D50*
X43791Y-84878D02*
D03*
D51*
X91000Y-81532D02*
D03*
D52*
X90000Y-120000D02*
D03*
X43500Y-120500D02*
D03*
X320500Y-56000D02*
D03*
X91000Y-53000D02*
D03*
D53*
X0Y0D02*
D03*
Y-125000D02*
D03*
D54*
X127500Y-127000D02*
D03*
X107500Y3000D02*
D03*
Y-7000D02*
D03*
Y-17000D02*
D03*
Y-27000D02*
D03*
Y-37000D02*
D03*
Y-47000D02*
D03*
Y-57000D02*
D03*
Y-67000D02*
D03*
Y-77000D02*
D03*
Y-87000D02*
D03*
Y-97000D02*
D03*
Y-107000D02*
D03*
Y-117000D02*
D03*
Y-127000D02*
D03*
X117500D02*
D03*
X137500D02*
D03*
X147500D02*
D03*
X157500D02*
D03*
X167500D02*
D03*
Y-117000D02*
D03*
Y-107000D02*
D03*
Y-97000D02*
D03*
Y-87000D02*
D03*
Y-77000D02*
D03*
Y-67000D02*
D03*
Y-57000D02*
D03*
Y-47000D02*
D03*
Y-37000D02*
D03*
Y-27000D02*
D03*
Y-17000D02*
D03*
Y-7000D02*
D03*
Y3000D02*
D03*
D55*
X23000Y-20000D02*
D03*
X419500D02*
D03*
Y-109500D02*
D03*
X23000D02*
D03*
D56*
X320500Y-66000D02*
D03*
Y-76000D02*
D03*
X91000Y-63000D02*
D03*
X60000Y-2000D02*
D03*
X70000D02*
D03*
X253500Y2500D02*
D03*
X243500D02*
D03*
X233500D02*
D03*
X287000Y-28500D02*
D03*
D57*
X50000Y-2000D02*
D03*
X223500Y2500D02*
D03*
X297000Y-28500D02*
D03*
D58*
X87500Y-22000D02*
D03*
M02*
