M48
;Layer_Color=9474304
;FILE_FORMAT=2:5
INCH,TZ
;TYPE=PLATED
T1F00S00C0.01200
T2F00S00C0.02800
T3F00S00C0.03500
T4F00S00C0.03543
T5F00S00C0.03600
T6F00S00C0.12500
%
T01
X63500Y-103500
X100000Y-112000
X102000Y-72500
X114500Y-83000
X121000Y-59500
X142000Y-77000
X211000Y-87500
X219500Y-60000
X236500Y-66500
X233000Y-47000
X188000Y-35000
X189000Y-7000
X179500
X305500Y-40000
X281500Y-87000
X268500Y-117500
X352500Y-124500
X355000Y-37600
X365000
X379500Y-27600
X376500Y-17100
X376343Y-12116
X373000Y-9100
Y-5100
X367000Y-2600
X362500
X358500Y-3100
X373000Y7000
X385000Y2000
X394000Y-6600
X399000Y-40000
T02
X-500Y-70500
X36000Y-80000
X30500Y-92000
X87500Y-22000
X101000Y-12000
X339000Y-9000
X343000Y2500
X337500Y-31500
T03
X167500Y-7000
Y3000
T04
X91000Y-63000
Y-53000
X70000Y-2000
X60000
X50000
X223500Y2500
X233500
X243500
X253500
X287000Y-28500
X297000
X320500Y-56000
Y-66000
Y-76000
T05
X107500Y-127000
Y-117000
Y-107000
Y-97000
Y-87000
Y-77000
Y-67000
Y-57000
Y-47000
Y-37000
Y-27000
Y-17000
Y-7000
Y3000
X117500Y-127000
X127500
X137500
X147500
X157500
X167500
Y-117000
Y-107000
Y-97000
Y-87000
Y-77000
Y-67000
Y-57000
Y-47000
Y-37000
Y-27000
Y-17000
T06
X0Y-125000
Y0
X23000Y-20000
Y-109500
X419500
Y-20000
M30
