M48
;Layer_Color=9474304
;FILE_FORMAT=2:5
INCH,TZ
;TYPE=PLATED
T1F00S00C0.01000
T2F00S00C0.02800
T3F00S00C0.03500
T4F00S00C0.03543
T5F00S00C0.03600
T6F00S00C0.12500
%
T01
X-333000Y-118500
X-331000Y-79000
X-318500Y-89500
X-291000Y-83500
X-222000Y-94000
X-213500Y-66500
X-196500Y-73000
X-151500Y-93500
X-127500Y-46500
X-245000Y-41500
X-78000Y-44100
X-68000
X-53500Y-34100
X-56500Y-23600
X-56657Y-18616
X-60000Y-15600
Y-11600
X-66000Y-9100
X-70500
X-74500Y-9600
X-60000Y500
X-48000Y-4500
X-39000Y-13100
X-34000Y-46500
X-80500Y-131000
T02
X-365189Y-135311
X-359500Y-80000
X-345500Y-28500
X-332000Y-18500
X-94000Y-15500
X-90000Y-4000
X-95500Y-38000
T03
X-265500Y-13500
Y-3500
T04
X-342000Y-69500
Y-59500
X-363000Y-8500
X-373000
X-383000
X-209500Y-4000
X-199500
X-189500
X-179500
X-146000Y-35000
X-136000
X-112500Y-62500
Y-72500
Y-82500
T05
X-325500Y-133500
Y-123500
Y-113500
Y-103500
Y-93500
Y-83500
Y-73500
Y-63500
Y-53500
X-315500
Y-43500
Y-33500
X-325500
Y-23500
Y-13500
Y-3500
Y-43500
X-315500Y-133500
X-305500
X-295500
X-285500
X-275500
X-265500
Y-123500
Y-113500
Y-103500
Y-93500
Y-83500
Y-73500
Y-63500
Y-53500
Y-43500
Y-33500
Y-23500
T06
X-410000Y-116000
Y-26500
X-13500
Y-116000
M30
