G04*
G04 #@! TF.GenerationSoftware,Altium Limited,Altium Designer,21.9.2 (33)*
G04*
G04 Layer_Color=16711935*
%FSLAX25Y25*%
%MOIN*%
G70*
G04*
G04 #@! TF.SameCoordinates,71731F73-6267-4C2E-880F-46C8AFF31373*
G04*
G04*
G04 #@! TF.FilePolarity,Positive*
G04*
G01*
G75*
%ADD13C,0.00394*%
D13*
X-79831Y-20201D02*
G03*
X-79831Y-20201I-1969J0D01*
G01*
X-359232Y-37256D02*
X-350768D01*
X-359232Y-31744D02*
X-350768D01*
X-359232Y-37256D02*
Y-31744D01*
X-350768Y-37256D02*
Y-31744D01*
X-85343Y-36342D02*
Y-16657D01*
X-65658Y-36342D02*
Y-16657D01*
X-85343D02*
X-65658D01*
X-85343Y-36342D02*
X-65658D01*
X-94602Y-123559D02*
X-82398D01*
X-94602Y-116472D02*
X-82398D01*
X-94602Y-123559D02*
Y-116472D01*
X-82398Y-123559D02*
Y-116472D01*
X-66039Y-5937D02*
Y1937D01*
X-70961Y-5937D02*
Y1937D01*
Y-5937D02*
X-66039D01*
X-70961Y1937D02*
X-66039D01*
X-45102Y-39043D02*
X-32898D01*
X-45102Y-31957D02*
X-32898D01*
X-45102Y-39043D02*
Y-31957D01*
X-32898Y-39043D02*
Y-31957D01*
X-121102Y-11457D02*
X-108898D01*
X-121102Y-18543D02*
X-108898D01*
Y-11457D01*
X-121102Y-18543D02*
Y-11457D01*
M02*
