M48
;Layer_Color=9474304
;FILE_FORMAT=2:5
INCH,LZ
;TYPE=PLATED
T1F00S00C0.01000
T2F00S00C0.02800
T3F00S00C0.03500
T4F00S00C0.03543
T5F00S00C0.03600
T6F00S00C0.12500
%
T01
X-0333Y-01185
X-0331Y-0079
X-03185Y-00895
X-0291Y-00835
X-0222Y-0094
X-02135Y-00665
X-01965Y-0073
X-01515Y-00935
X-01275Y-00465
X-0245Y-00415
X-0078Y-00441
X-0068
X-00535Y-00341
X-00565Y-00236
X-0056657Y-0018616
X-006Y-00156
Y-00116
X-0066Y-00091
X-00705
X-00745Y-00096
X-006Y00005
X-0048Y-00045
X-0039Y-00131
X-0035Y-00421
X-00805Y-0131
T02
X-0365189Y-0135311
X-03595Y-008
X-03455Y-00285
X-0332Y-00185
X-0094Y-00155
X-009Y-0004
X-00955Y-0038
T03
X-02655Y-00135
Y-00035
T04
X-0342Y-00695
Y-00595
X-0363Y-00085
X-0373
X-0383
X-02095Y-0004
X-01995
X-01895
X-01795
X-0146Y-0035
X-0136
X-01125Y-00625
Y-00725
Y-00825
T05
X-03255Y-01335
Y-01235
Y-01135
Y-01035
Y-00935
Y-00835
Y-00735
Y-00635
Y-00535
X-03155
Y-00435
Y-00335
X-03255
Y-00235
Y-00135
Y-00035
Y-00435
X-03155Y-01335
X-03055
X-02955
X-02855
X-02755
X-02655
Y-01235
Y-01135
Y-01035
Y-00935
Y-00835
Y-00735
Y-00635
Y-00535
Y-00435
Y-00335
Y-00235
T06
X-041Y-0116
Y-00265
X-00135
Y-0116
M30
