G04*
G04 #@! TF.GenerationSoftware,Altium Limited,Altium Designer,21.9.2 (33)*
G04*
G04 Layer_Color=8388736*
%FSLAX25Y25*%
%MOIN*%
G70*
G04*
G04 #@! TF.SameCoordinates,71731F73-6267-4C2E-880F-46C8AFF31373*
G04*
G04*
G04 #@! TF.FilePolarity,Negative*
G04*
G01*
G75*
%ADD33R,0.04343X0.03556*%
%ADD34R,0.02178X0.04343*%
%ADD35R,0.06312X0.10642*%
%ADD36R,0.05131X0.04737*%
%ADD37R,0.14186X0.14186*%
%ADD38O,0.03556X0.01587*%
%ADD39O,0.01587X0.03556*%
%ADD40R,0.03359X0.05131*%
%ADD41R,0.05800X0.04800*%
%ADD42R,0.04343X0.02375*%
%ADD43R,0.03556X0.04343*%
%ADD44R,0.03950X0.03950*%
%ADD45C,0.05000*%
%ADD46R,0.09068X0.06312*%
%ADD47R,0.04737X0.05131*%
%ADD48R,0.03950X0.08280*%
%ADD49R,0.08083X0.04737*%
%ADD50R,0.04737X0.08674*%
%ADD51R,0.06706X0.06706*%
%ADD52R,0.04800X0.05800*%
%ADD53C,0.06800*%
%ADD54C,0.25800*%
%ADD55C,0.06706*%
%ADD56R,0.06706X0.06706*%
%ADD57C,0.05800*%
%ADD58C,0.02600*%
D33*
X-352441Y-43000D02*
D03*
X-357559D02*
D03*
X-79441Y-9000D02*
D03*
X-84559D02*
D03*
X-44059Y-46500D02*
D03*
X-38941D02*
D03*
X-92059Y-133000D02*
D03*
X-86941D02*
D03*
X-84941Y-45500D02*
D03*
X-90059D02*
D03*
X-110441Y-2500D02*
D03*
X-115559D02*
D03*
X-79441Y-4000D02*
D03*
X-84559D02*
D03*
X-57559Y-4500D02*
D03*
X-52441D02*
D03*
D34*
X-357559Y-38240D02*
D03*
X-355000D02*
D03*
X-352441D02*
D03*
Y-30760D02*
D03*
X-355000D02*
D03*
X-357559D02*
D03*
D35*
X-386823Y-33000D02*
D03*
X-369500D02*
D03*
D36*
X-303847Y-73000D02*
D03*
X-297153D02*
D03*
X-303847Y-83500D02*
D03*
X-297153D02*
D03*
X-286846Y-113500D02*
D03*
X-280153D02*
D03*
X-337653Y-39000D02*
D03*
X-344346D02*
D03*
X-344346Y-45000D02*
D03*
X-337653D02*
D03*
X-289154Y-93000D02*
D03*
X-295847D02*
D03*
D37*
X-75500Y-26500D02*
D03*
D38*
X-85343Y-19610D02*
D03*
Y-21579D02*
D03*
Y-23547D02*
D03*
Y-25516D02*
D03*
Y-27484D02*
D03*
Y-29453D02*
D03*
Y-31421D02*
D03*
Y-33390D02*
D03*
X-65658D02*
D03*
Y-31421D02*
D03*
Y-29453D02*
D03*
Y-27484D02*
D03*
Y-25516D02*
D03*
Y-23547D02*
D03*
Y-21579D02*
D03*
Y-19610D02*
D03*
D39*
X-82390Y-36342D02*
D03*
X-80421D02*
D03*
X-78453D02*
D03*
X-76484D02*
D03*
X-74516D02*
D03*
X-72547D02*
D03*
X-70579D02*
D03*
X-68610D02*
D03*
Y-16657D02*
D03*
X-70579D02*
D03*
X-72547D02*
D03*
X-74516D02*
D03*
X-76484D02*
D03*
X-78453D02*
D03*
X-80421D02*
D03*
X-82390D02*
D03*
D40*
X-92240Y-124740D02*
D03*
X-88500D02*
D03*
X-84760D02*
D03*
Y-115291D02*
D03*
X-92240D02*
D03*
X-42740Y-40224D02*
D03*
X-39000D02*
D03*
X-35260Y-30776D02*
D03*
X-42740D02*
D03*
X-111260Y-10276D02*
D03*
X-115000D02*
D03*
X-118740D02*
D03*
Y-19724D02*
D03*
X-111260D02*
D03*
D41*
X-99000Y-107666D02*
D03*
Y-102366D02*
D03*
X-49500Y-23150D02*
D03*
Y-17850D02*
D03*
X-103500Y-27850D02*
D03*
Y-33150D02*
D03*
X-345500Y-15850D02*
D03*
Y-21150D02*
D03*
D42*
X-64169Y-4559D02*
D03*
Y-2000D02*
D03*
Y559D02*
D03*
X-72831D02*
D03*
Y-4559D02*
D03*
D43*
X-58500Y-28941D02*
D03*
Y-34059D02*
D03*
X-43000Y-23059D02*
D03*
Y-17941D02*
D03*
X-35500Y-24059D02*
D03*
Y-18941D02*
D03*
X-92500Y-107575D02*
D03*
Y-102457D02*
D03*
X-84500Y-107575D02*
D03*
Y-102457D02*
D03*
X-111000Y-27941D02*
D03*
Y-33059D02*
D03*
X-119000Y-27941D02*
D03*
Y-33059D02*
D03*
X-95000Y-26941D02*
D03*
Y-32059D02*
D03*
X-72500Y-48059D02*
D03*
Y-42941D02*
D03*
X-339500Y-15941D02*
D03*
Y-21059D02*
D03*
D44*
X-311748Y-93000D02*
D03*
X-305252D02*
D03*
D45*
X-419500Y-134500D02*
D03*
X-421500Y500D02*
D03*
X-500Y-138000D02*
D03*
X0Y0D02*
D03*
D46*
X-170500Y-131000D02*
D03*
Y-113284D02*
D03*
X-206327Y-131000D02*
D03*
Y-113284D02*
D03*
X-218000Y-131000D02*
D03*
Y-113284D02*
D03*
X-253827Y-131000D02*
D03*
Y-113284D02*
D03*
X-123000Y-131000D02*
D03*
Y-113284D02*
D03*
X-158827Y-131000D02*
D03*
Y-113284D02*
D03*
D47*
X-171000Y-100347D02*
D03*
Y-93654D02*
D03*
X-217500Y-100347D02*
D03*
Y-93654D02*
D03*
X-139000Y-100347D02*
D03*
Y-93654D02*
D03*
D48*
X-382512Y-127551D02*
D03*
X-378181D02*
D03*
X-373850D02*
D03*
X-369520D02*
D03*
X-365189D02*
D03*
X-360858D02*
D03*
X-356528D02*
D03*
X-352197D02*
D03*
D49*
X-389209Y-91378D02*
D03*
D50*
X-342000Y-88032D02*
D03*
D51*
X-343000Y-126500D02*
D03*
X-389500Y-127000D02*
D03*
X-112500Y-62500D02*
D03*
X-342000Y-59500D02*
D03*
D52*
X-304850Y-23000D02*
D03*
X-310150D02*
D03*
D53*
X-315500Y-53500D02*
D03*
Y-43500D02*
D03*
Y-33500D02*
D03*
X-305500Y-133500D02*
D03*
X-325500Y-3500D02*
D03*
Y-13500D02*
D03*
Y-23500D02*
D03*
Y-33500D02*
D03*
Y-43500D02*
D03*
Y-53500D02*
D03*
Y-63500D02*
D03*
Y-73500D02*
D03*
Y-83500D02*
D03*
Y-93500D02*
D03*
Y-103500D02*
D03*
Y-113500D02*
D03*
Y-123500D02*
D03*
Y-133500D02*
D03*
X-315500D02*
D03*
X-295500D02*
D03*
X-285500D02*
D03*
X-275500D02*
D03*
X-265500D02*
D03*
Y-123500D02*
D03*
Y-113500D02*
D03*
Y-103500D02*
D03*
Y-93500D02*
D03*
Y-83500D02*
D03*
Y-73500D02*
D03*
Y-63500D02*
D03*
Y-53500D02*
D03*
Y-43500D02*
D03*
Y-33500D02*
D03*
Y-23500D02*
D03*
Y-13500D02*
D03*
Y-3500D02*
D03*
D54*
X-410000Y-26500D02*
D03*
X-13500D02*
D03*
Y-116000D02*
D03*
X-410000D02*
D03*
D55*
X-112500Y-72500D02*
D03*
Y-82500D02*
D03*
X-342000Y-69500D02*
D03*
X-373000Y-8500D02*
D03*
X-363000D02*
D03*
X-179500Y-4000D02*
D03*
X-189500D02*
D03*
X-199500D02*
D03*
X-146000Y-35000D02*
D03*
D56*
X-383000Y-8500D02*
D03*
X-209500Y-4000D02*
D03*
X-136000Y-35000D02*
D03*
D57*
X-345500Y-28500D02*
D03*
D58*
X-35000Y-42100D02*
D03*
X-127500Y-46500D02*
D03*
M02*
