G04*
G04 #@! TF.GenerationSoftware,Altium Limited,Altium Designer,21.9.2 (33)*
G04*
G04 Layer_Color=16711935*
%FSLAX25Y25*%
%MOIN*%
G70*
G04*
G04 #@! TF.SameCoordinates,71731F73-6267-4C2E-880F-46C8AFF31373*
G04*
G04*
G04 #@! TF.FilePolarity,Negative*
G04*
G01*
G75*
%ADD51R,0.06706X0.06706*%
%ADD53C,0.06800*%
%ADD54C,0.25800*%
%ADD55C,0.06706*%
%ADD56R,0.06706X0.06706*%
%ADD57C,0.05800*%
%ADD58C,0.02600*%
G04:AMPARAMS|DCode=81|XSize=133.98mil|YSize=188mil|CornerRadius=0mil|HoleSize=0mil|Usage=FLASHONLY|Rotation=135.000|XOffset=0mil|YOffset=0mil|HoleType=Round|Shape=Rectangle|*
%AMROTATEDRECTD81*
4,1,4,0.11384,0.01910,-0.01910,-0.11384,-0.11384,-0.01910,0.01910,0.11384,0.11384,0.01910,0.0*
%
%ADD81ROTATEDRECTD81*%

D51*
X-112500Y-62500D02*
D03*
X-342000Y-59500D02*
D03*
D53*
X-315500Y-53500D02*
D03*
Y-43500D02*
D03*
Y-33500D02*
D03*
X-305500Y-133500D02*
D03*
X-325500Y-3500D02*
D03*
Y-13500D02*
D03*
Y-23500D02*
D03*
Y-33500D02*
D03*
Y-43500D02*
D03*
Y-53500D02*
D03*
Y-63500D02*
D03*
Y-73500D02*
D03*
Y-83500D02*
D03*
Y-93500D02*
D03*
Y-103500D02*
D03*
Y-113500D02*
D03*
Y-123500D02*
D03*
Y-133500D02*
D03*
X-315500D02*
D03*
X-295500D02*
D03*
X-285500D02*
D03*
X-275500D02*
D03*
X-265500D02*
D03*
Y-123500D02*
D03*
Y-113500D02*
D03*
Y-103500D02*
D03*
Y-93500D02*
D03*
Y-83500D02*
D03*
Y-73500D02*
D03*
Y-63500D02*
D03*
Y-53500D02*
D03*
Y-43500D02*
D03*
Y-33500D02*
D03*
Y-23500D02*
D03*
Y-13500D02*
D03*
Y-3500D02*
D03*
D54*
X-410000Y-26500D02*
D03*
X-13500D02*
D03*
Y-116000D02*
D03*
X-410000D02*
D03*
D55*
X-112500Y-72500D02*
D03*
Y-82500D02*
D03*
X-342000Y-69500D02*
D03*
X-373000Y-8500D02*
D03*
X-363000D02*
D03*
X-179500Y-4000D02*
D03*
X-189500D02*
D03*
X-199500D02*
D03*
X-146000Y-35000D02*
D03*
D56*
X-383000Y-8500D02*
D03*
X-209500Y-4000D02*
D03*
X-136000Y-35000D02*
D03*
D57*
X-345500Y-28500D02*
D03*
D58*
X-35000Y-42100D02*
D03*
X-127500Y-46500D02*
D03*
D81*
X-234568Y-30932D02*
D03*
X-153000Y-112500D02*
D03*
M02*
