M48
;Layer_Color=9474304
;FILE_FORMAT=2:5
INCH,TZ
;TYPE=PLATED
T1F00S00C0.01200
T2F00S00C0.02800
T4F00S00C0.03346
T5F00S00C0.03543
T6F00S00C0.12500
%
T01
X47500Y-134500
X65000Y-133500
X83000Y-104000
Y-99000
X88500Y-100000
X93000Y-98000
X87300Y-92000
X85500Y-80000
X90500Y-79866
X93000Y-78000
X79500Y-80000
X99000Y-66000
X103500Y-61500
X106626Y-57223
X109032Y-52129
X110626Y-47723
X121000Y-57500
X130000Y-58500
X133500Y-61000
X146000Y-64000
X140000Y-120000
X132500Y-119000
X126500Y-119500
X121500Y-119000
X117241Y-118876
X114000Y-120500
X110812Y-118503
X104000Y-118200
X141000Y-140000
X128000Y-19000
X133000Y-13500
X101000
X96500Y-8500
X90000Y-11500
X32138Y-54466
X13638Y-43966
X156000Y-52000
X159500Y-73500
X156500Y-80300
X158500Y-83500
X157000Y-86500
X155000Y-90000
X151500Y-86700
X149523Y-80477
X151500Y-96000
X148000Y-98000
X149500Y-125000
X157000Y-123000
X156500Y-119500
X182000Y-101000
X198000Y-83500
X211500Y-94500
X208000Y-67000
X225000Y-73500
X221500Y-54000
X176500Y-42000
X168000Y-14000
X151000Y-3500
X191000Y-9000
X198000Y-3500
X260000Y-31000
X294000Y-47000
X270000Y-94000
X257000Y-124500
X341000Y-131500
X343500Y-44600
X353500
X368000Y-34600
X365000Y-24100
X364843Y-19116
X361500Y-16100
Y-12100
X355500Y-9600
X351000
X347000Y-10100
X361500Y0
X373500Y-5000
X382500Y-13600
X387500Y-47000
T02
X-12000Y-77500
X24500Y-87000
X19000Y-99000
X76000Y-29000
X150000Y-112500
X326000Y-38500
X327500Y-16000
X331500Y-4500
T04
X106658Y-125382
X126342Y-125382
T05
X79500Y-70000
Y-60000
X58500Y-9000
X48500
X38500
X225000Y-5000
X235000
X245000
X255000
X275500Y-35500
X285500
X309000Y-63000
Y-73000
Y-83000
T06
X-11500Y-132000
Y-7000
X11500Y-27000
Y-116500
X408000
Y-27000
M30
