G04*
G04 #@! TF.GenerationSoftware,Altium Limited,Altium Designer,21.9.2 (33)*
G04*
G04 Layer_Color=255*
%FSLAX25Y25*%
%MOIN*%
G70*
G04*
G04 #@! TF.SameCoordinates,9F12505F-C430-47E6-9CFF-433F7032CE6A*
G04*
G04*
G04 #@! TF.FilePolarity,Positive*
G04*
G01*
G75*
%ADD43R,0.05906X0.05906*%
G04:AMPARAMS|DCode=90|XSize=59.06mil|YSize=74.8mil|CornerRadius=14.76mil|HoleSize=0mil|Usage=FLASHONLY|Rotation=180.000|XOffset=0mil|YOffset=0mil|HoleType=Round|Shape=RoundedRectangle|*
%AMROUNDEDRECTD90*
21,1,0.05906,0.04528,0,0,180.0*
21,1,0.02953,0.07480,0,0,180.0*
1,1,0.02953,-0.01476,0.02264*
1,1,0.02953,0.01476,0.02264*
1,1,0.02953,0.01476,-0.02264*
1,1,0.02953,-0.01476,-0.02264*
%
%ADD90ROUNDEDRECTD90*%
%ADD91C,0.05709*%
%ADD92C,0.05906*%
%ADD93C,0.03937*%
%ADD94C,0.13000*%
%ADD95C,0.25000*%
%ADD96R,0.05906X0.05906*%
G04:AMPARAMS|DCode=111|XSize=125.98mil|YSize=180mil|CornerRadius=0mil|HoleSize=0mil|Usage=FLASHONLY|Rotation=135.000|XOffset=0mil|YOffset=0mil|HoleType=Round|Shape=Rectangle|*
%AMROTATEDRECTD111*
4,1,4,0.10818,0.01910,-0.01910,-0.10818,-0.10818,-0.01910,0.01910,0.10818,0.10818,0.01910,0.0*
%
%ADD111ROTATEDRECTD111*%

D43*
X195500Y-96000D02*
D03*
X320500Y-56000D02*
D03*
X91000Y-53000D02*
D03*
D90*
X115008Y-128618D02*
D03*
X141386D02*
D03*
D91*
X137843Y-118382D02*
D03*
X118157Y-118382D02*
D03*
D92*
X195500Y-66000D02*
D03*
Y-76000D02*
D03*
Y-86000D02*
D03*
X320500Y-66000D02*
D03*
Y-76000D02*
D03*
X91000Y-63000D02*
D03*
X60000Y-2000D02*
D03*
X70000D02*
D03*
X253500Y2500D02*
D03*
X243500D02*
D03*
X233500D02*
D03*
X287000Y-28500D02*
D03*
D93*
X179500Y-66500D02*
D03*
Y-71500D02*
D03*
Y-76500D02*
D03*
Y-81500D02*
D03*
Y-86500D02*
D03*
X184500D02*
D03*
Y-81500D02*
D03*
Y-76500D02*
D03*
Y-71500D02*
D03*
Y-66500D02*
D03*
D94*
X0Y0D02*
D03*
Y-125000D02*
D03*
D95*
X23000Y-20000D02*
D03*
X419500D02*
D03*
Y-109500D02*
D03*
X23000D02*
D03*
D96*
X50000Y-2000D02*
D03*
X223500Y2500D02*
D03*
X297000Y-28500D02*
D03*
D111*
X198432Y-24432D02*
D03*
X280000Y-106000D02*
D03*
M02*
