G04*
G04 #@! TF.GenerationSoftware,Altium Limited,Altium Designer,21.9.2 (33)*
G04*
G04 Layer_Physical_Order=1*
G04 Layer_Color=255*
%FSLAX25Y25*%
%MOIN*%
G70*
G04*
G04 #@! TF.SameCoordinates,9F12505F-C430-47E6-9CFF-433F7032CE6A*
G04*
G04*
G04 #@! TF.FilePolarity,Positive*
G04*
G01*
G75*
%ADD13C,0.00600*%
%ADD14C,0.01000*%
%ADD15R,0.01575X0.05315*%
%ADD16R,0.03937X0.07480*%
%ADD17R,0.03937X0.04331*%
%ADD18R,0.03150X0.03150*%
%ADD19R,0.02756X0.03543*%
%ADD20R,0.04000X0.05000*%
%ADD21R,0.03543X0.02756*%
%ADD22R,0.05512X0.02953*%
%ADD23R,0.05800X0.01100*%
%ADD24R,0.01100X0.05800*%
%ADD25R,0.05512X0.03543*%
%ADD26R,0.05512X0.08661*%
%ADD27R,0.04331X0.04724*%
%ADD28R,0.04331X0.02559*%
%ADD29R,0.05000X0.04000*%
%ADD30R,0.02559X0.04331*%
%ADD31R,0.07795X0.02087*%
%ADD32R,0.01378X0.03543*%
%ADD33R,0.05512X0.09843*%
%ADD34R,0.04331X0.03937*%
%ADD36O,0.02756X0.00787*%
%ADD37O,0.00787X0.02756*%
%ADD38R,0.03543X0.01575*%
%ADD39R,0.08268X0.05512*%
%ADD40R,0.03150X0.07480*%
%ADD41R,0.07284X0.03937*%
%ADD42R,0.03937X0.07874*%
%ADD43R,0.05906X0.05906*%
%ADD68C,0.05000*%
%ADD83C,0.02000*%
%ADD84C,0.01200*%
%ADD85C,0.00600*%
%ADD86C,0.00800*%
%ADD87C,0.01500*%
%ADD88R,0.13386X0.13386*%
%ADD89C,0.04000*%
G04:AMPARAMS|DCode=90|XSize=59.06mil|YSize=74.8mil|CornerRadius=14.76mil|HoleSize=0mil|Usage=FLASHONLY|Rotation=180.000|XOffset=0mil|YOffset=0mil|HoleType=Round|Shape=RoundedRectangle|*
%AMROUNDEDRECTD90*
21,1,0.05906,0.04528,0,0,180.0*
21,1,0.02953,0.07480,0,0,180.0*
1,1,0.02953,-0.01476,0.02264*
1,1,0.02953,0.01476,0.02264*
1,1,0.02953,0.01476,-0.02264*
1,1,0.02953,-0.01476,-0.02264*
%
%ADD90ROUNDEDRECTD90*%
%ADD91C,0.05709*%
%ADD92C,0.05906*%
%ADD93C,0.03937*%
%ADD94C,0.13000*%
%ADD95C,0.25000*%
%ADD96R,0.05906X0.05906*%
%ADD97C,0.01800*%
D13*
X174927Y-82176D02*
G03*
X174503Y-82000I-424J-424D01*
G01*
X161436Y-82000D02*
G03*
X161012Y-82176I-0J-600D01*
G01*
X175612Y-82861D02*
G03*
X175891Y-83017I421J427D01*
G01*
X165101Y-88178D02*
G03*
X165630Y-88500I532J278D01*
G01*
X161916Y-87800D02*
G03*
X162308Y-87651I-4J600D01*
G01*
X158480Y-87662D02*
G03*
X158860Y-87800I383J462D01*
G01*
X158480Y-87662D02*
G03*
X157900Y-87450I-580J-688D01*
G01*
X155276Y-87276D02*
G03*
X155699Y-87450I422J426D01*
G01*
X165101Y-88178D02*
G03*
X162308Y-87651I-1601J-822D01*
G01*
X177833Y-91333D02*
G03*
X170995Y-88500I-6833J-6824D01*
G01*
X176176Y-83176D02*
G03*
X175893Y-83017I-424J-424D01*
G01*
X161510Y-78515D02*
G03*
X161508Y-78514I-373J-470D01*
G01*
X132036Y-48228D02*
G03*
X131875Y-47926I-588J-120D01*
G01*
X137400Y-53149D02*
G03*
X137226Y-52726I-600J0D01*
G01*
X135500Y-50752D02*
G03*
X135675Y-51174I600J0D01*
G01*
X102819Y-96976D02*
G03*
X103135Y-96888I3J600D01*
G01*
X103448Y-96800D02*
G03*
X103135Y-96888I0J-600D01*
G01*
X172676Y-62824D02*
G03*
X172500Y-63248I424J-424D01*
G01*
X195992Y-40000D02*
G03*
X195151Y-40349I5J-1200D01*
G01*
X100328Y-92900D02*
G03*
X100000Y-93000I4J-600D01*
G01*
X121438Y-113077D02*
G03*
X121722Y-113204I874J1573D01*
G01*
X122509Y-111099D02*
G03*
X122453Y-111196I490J-347D01*
G01*
X121438Y-113077D02*
G03*
X121144Y-113000I-294J-523D01*
G01*
X120911Y-110192D02*
G03*
X121397Y-109654I-112J589D01*
G01*
X123366Y-109934D02*
G03*
X123482Y-109579I-484J354D01*
G01*
X109500Y-112400D02*
G03*
X110100Y-113000I600J0D01*
G01*
X158176Y-115324D02*
G03*
X158000Y-115749I424J-424D01*
G01*
X157400Y-135000D02*
G03*
X158000Y-134400I0J600D01*
G01*
X101829Y-132676D02*
G03*
X101405Y-132500I-424J-424D01*
G01*
X96908Y-126337D02*
G03*
X96706Y-126373I4J-600D01*
G01*
X96252Y-126500D02*
G03*
X96458Y-126464I0J600D01*
G01*
X122064Y-46564D02*
G03*
X122052Y-46552I-422J-426D01*
G01*
X100551Y-69200D02*
G03*
X100095Y-69410I0J-600D01*
G01*
X134999Y-112852D02*
G03*
X135000Y-112852I-422J427D01*
G01*
X133158Y-116545D02*
G03*
X133118Y-116757I560J-216D01*
G01*
X133249Y-116307D02*
G03*
X133290Y-116095I-560J216D01*
G01*
X133463Y-114388D02*
G03*
X133290Y-114811I426J-422D01*
G01*
X128704Y-111703D02*
G03*
X128547Y-111412I-586J-128D01*
G01*
X127605Y-113556D02*
G03*
X127508Y-113275I-598J-49D01*
G01*
X127804Y-116015D02*
G03*
X127803Y-115968I-600J0D01*
G01*
X125600Y-110203D02*
G03*
X125699Y-110533I600J0D01*
G01*
X161436Y-82000D02*
X174503Y-82000D01*
X174927Y-82176D02*
X174927D01*
X160188Y-83000D02*
X161012Y-82176D01*
X174927Y-82176D02*
X175612Y-82861D01*
X155000Y-83000D02*
X160188D01*
X170500Y-85000D02*
X171500Y-86000D01*
X155000Y-85000D02*
X170500D01*
X177833Y-91333D02*
X177833Y-91333D01*
X165630Y-88500D02*
X170995Y-88500D01*
X158860Y-87800D02*
X161916Y-87800D01*
X155699Y-87450D02*
X157900D01*
X155274Y-87274D02*
X155276Y-87276D01*
X177833Y-91333D02*
X179000Y-92500D01*
X155000Y-87000D02*
X155274Y-87274D01*
X179000Y-92500D02*
X189000D01*
X175891Y-83017D02*
X175893Y-83017D01*
X161510Y-78515D02*
X163000Y-79700D01*
X161345Y-78385D02*
X161508Y-78514D01*
X159885Y-78385D02*
X161345D01*
X132779Y-57148D02*
Y-56771D01*
X133131Y-57631D02*
X133500Y-58000D01*
Y-61500D02*
Y-58000D01*
X133131Y-57631D02*
Y-57500D01*
X132779Y-57148D02*
X133131Y-57500D01*
X133300Y-59416D02*
X133500Y-61500D01*
X131500Y-55000D02*
X132779Y-56771D01*
X132036Y-48228D02*
X132500Y-50500D01*
X131872Y-47924D02*
X131875Y-47926D01*
X120171Y-36223D02*
X131872Y-47924D01*
X101500Y-4500D02*
X103500Y-6500D01*
Y-10252D02*
Y-6500D01*
Y-35500D02*
X104223Y-36223D01*
X161300Y-105300D02*
Y-99151D01*
X160949Y-98800D02*
X161300Y-99151D01*
X155000Y-98800D02*
X160949D01*
X135500Y-50752D02*
Y-10500D01*
X137400Y-61500D02*
Y-53149D01*
X135675Y-51174D02*
X137226Y-52726D01*
X135500Y-61500D02*
Y-54000D01*
X127600Y-61500D02*
Y-54600D01*
X97300Y-94800D02*
X110000D01*
X94500Y-92000D02*
X97300Y-94800D01*
X103135Y-96888D02*
X103135Y-96888D01*
X94500Y-97000D02*
X102819Y-96976D01*
X98800Y-85000D02*
X110000D01*
X97000Y-73000D02*
X100095Y-69410D01*
X104223Y-36223D02*
X120171D01*
X135500Y-10500D02*
X144500Y-1500D01*
X139500Y-55000D02*
Y-12000D01*
X147300Y-54200D02*
X151347Y-50153D01*
X147300Y-61500D02*
Y-54200D01*
X151347Y-50153D02*
X162244D01*
X139450Y-55050D02*
X139500Y-55000D01*
X144500Y-51954D02*
Y-6500D01*
Y-1500D02*
X155500D01*
X139450Y-61450D02*
Y-55050D01*
X145300Y-61500D02*
Y-54200D01*
X143200Y-53254D02*
X144500Y-51954D01*
X143200Y-56027D02*
X143300Y-56127D01*
X143200Y-56027D02*
Y-53254D01*
X143300Y-61500D02*
Y-56127D01*
X141450Y-61450D02*
Y-51550D01*
X141500Y-51500D01*
X141400Y-61500D02*
X141450Y-61450D01*
X103500Y-35500D02*
Y-31846D01*
X159450Y-90950D02*
X159500Y-91000D01*
X155000Y-90900D02*
X155050Y-90950D01*
X159450D01*
X176176Y-83176D02*
X179500Y-86500D01*
X112500Y-6500D02*
X118610D01*
X103448Y-96800D02*
X110000D01*
X91000Y-73000D02*
X103500Y-60500D01*
Y-43000D01*
X99000Y-38500D02*
X103500Y-43000D01*
X54819Y-87181D02*
X66900Y-75100D01*
X110000D01*
X172676Y-62824D02*
X195151Y-40349D01*
X172500Y-76800D02*
Y-63248D01*
X195992Y-40000D02*
X195997Y-40000D01*
X100328Y-92900D02*
X110000D01*
X100328D02*
X100328D01*
X100000Y-93000D02*
X100000Y-93000D01*
X122882Y-118382D02*
Y-114364D01*
X122509Y-111099D02*
X122512Y-111094D01*
X121144Y-113000D02*
Y-113000D01*
X122312Y-111503D02*
X122453Y-111196D01*
X115500Y-111200D02*
X120911Y-110192D01*
X121722Y-113204D02*
X122882Y-114364D01*
X122512Y-111094D02*
X122884Y-110589D01*
X121450Y-109100D02*
X121700Y-106500D01*
X121397Y-109654D02*
X121450Y-109100D01*
X110100Y-113000D02*
X121144D01*
X123482Y-109100D02*
X123600Y-106500D01*
X122884Y-110589D02*
X123366Y-109934D01*
X123482Y-109579D02*
Y-109100D01*
X109500Y-112400D02*
Y-107000D01*
X16240Y-59069D02*
X16671Y-59500D01*
X-6500Y-56500D02*
X4000Y-46000D01*
X6000Y-48000D02*
X6441Y-48441D01*
X-6500Y-101500D02*
Y-56500D01*
Y-101500D02*
X16206Y-124206D01*
X20706D02*
X32412Y-135912D01*
X16206Y-124206D02*
X20706D01*
X32412Y-135912D02*
X106237D01*
X108000Y-134149D01*
Y-117079D01*
X106461Y-115539D02*
X108000Y-117079D01*
X101500Y-115539D02*
X106461D01*
X101500Y-105500D02*
X108000D01*
X109500Y-107000D01*
X20649Y-53559D02*
X22208Y-52000D01*
X25276D01*
X18000Y-53559D02*
X20649D01*
X16671Y-59500D02*
X20630D01*
X24130Y-56000D01*
X25016D01*
X25276Y-55740D01*
X48650Y-52000D02*
Y-41500D01*
Y-55909D02*
Y-52000D01*
X48559Y-56000D02*
X48650Y-55909D01*
X36500Y-41500D02*
X43350D01*
X43441Y-48000D02*
Y-41591D01*
X43350Y-41500D02*
X43441Y-41591D01*
X34724Y-55740D02*
X43201D01*
X43441Y-55500D01*
X43181Y-48260D02*
X43441Y-48000D01*
X34724Y-48260D02*
X43181D01*
X18000Y-48441D02*
X18181Y-48260D01*
X152500Y-133000D02*
Y-129347D01*
X149153Y-122653D02*
X152500D01*
X141400Y-114900D02*
X149153Y-122653D01*
X141400Y-114900D02*
Y-106500D01*
X158176Y-115324D02*
X172500Y-101000D01*
X129500Y-135000D02*
X157400D01*
X158000Y-134400D02*
Y-115749D01*
X101829Y-132676D02*
X102000Y-132846D01*
X66000Y-132500D02*
X101405D01*
X67154Y-131346D02*
X67811D01*
X66905Y-131595D02*
X67154Y-131346D01*
X100331Y-126337D02*
X102000Y-124653D01*
X96908Y-126337D02*
X100069D01*
X100331Y-126337D01*
X96458Y-126464D02*
X96706Y-126373D01*
X76500Y-126500D02*
X96252D01*
X168000Y-116000D02*
X168500Y-115500D01*
X214649D01*
X172500Y-101000D02*
X190500D01*
X195500Y-96000D01*
X168000Y-112500D02*
X240500D01*
X252500Y-124500D01*
X214649Y-115500D02*
X215000Y-115851D01*
Y-124500D02*
Y-115851D01*
X252500Y-124500D02*
X262500D01*
X110500Y-59000D02*
X112500Y-57000D01*
X117000D01*
X117700Y-57700D01*
Y-61500D02*
Y-57700D01*
X115000Y-54500D02*
X118000D01*
X119700Y-56200D01*
Y-61500D02*
Y-56200D01*
X155000Y-88900D02*
X157600Y-89000D01*
X163500D01*
X128000Y-133500D02*
X129500Y-135000D01*
X128000Y-133500D02*
Y-125000D01*
X130559Y-122441D01*
Y-118382D01*
X189000Y-92500D02*
X195500Y-86000D01*
X195997Y-40000D02*
X305500D01*
X158500Y-77000D02*
X159885Y-78385D01*
X155100Y-77000D02*
X158500D01*
X155000Y-77100D02*
X155100Y-77000D01*
X160303D02*
X166000D01*
X168500Y-79500D01*
X158402Y-75099D02*
X160303Y-77000D01*
X158450Y-73450D02*
X160500Y-75500D01*
X165800D01*
X155001Y-75099D02*
X158402D01*
X155000Y-75100D02*
X155001Y-75099D01*
X155000Y-71200D02*
X158746D01*
X161023Y-73477D01*
X165800Y-75500D02*
X168000Y-73300D01*
X155250Y-73450D02*
X158450D01*
X155000Y-73200D02*
X155250Y-73450D01*
X199000Y-2000D02*
X202500D01*
X197153Y-154D02*
X199000Y-2000D01*
X197153Y-154D02*
Y3500D01*
X188347D02*
X197153D01*
X203847D02*
X209500D01*
X176500D02*
X181653D01*
X155500D02*
X162500D01*
X122064Y-46564D02*
X122066Y-46566D01*
X123600Y-48100D01*
X120532Y-45129D02*
X122052Y-46552D01*
X123600Y-61500D02*
Y-48100D01*
X118000Y-50000D02*
X121700Y-53700D01*
Y-61500D02*
Y-53700D01*
X122126Y-40723D02*
X125600Y-44197D01*
X102167Y-73033D02*
X109833D01*
X102000Y-72866D02*
X102167Y-73033D01*
X109833D02*
X110000Y-73200D01*
X104600Y-71100D02*
X109900D01*
X104500Y-71000D02*
X104600Y-71100D01*
X109900D02*
X110000Y-71200D01*
X125600Y-61500D02*
Y-44197D01*
X139400Y-61500D02*
X139450Y-61450D01*
X167500Y-49898D02*
Y-45000D01*
Y-49898D02*
X167756Y-50153D01*
X157500Y-57000D02*
X162091D01*
X162244Y-56846D01*
X167756Y-67744D02*
Y-56846D01*
X166300Y-69200D02*
X167756Y-67744D01*
X155000Y-69200D02*
X166300D01*
X165854Y-91646D02*
X169500D01*
X164600Y-92900D02*
X165854Y-91646D01*
X155000Y-92900D02*
X164600D01*
X163354Y-97354D02*
X169500D01*
X160800Y-94800D02*
X163354Y-97354D01*
X155000Y-94800D02*
X160800D01*
X104500Y-91000D02*
X104550Y-90950D01*
X109950D02*
X110000Y-90900D01*
X104550Y-90950D02*
X109950D01*
X100551Y-69200D02*
X110000D01*
X100551Y-69200D02*
X100551Y-69200D01*
X76472Y-121051D02*
X76500Y-121079D01*
Y-126500D02*
Y-121079D01*
X59000Y-121201D02*
X59150Y-121051D01*
X88100Y-88900D02*
X110000D01*
X72142Y-104858D02*
X88100Y-88900D01*
X72142Y-121051D02*
Y-104858D01*
X81000Y-87000D02*
X110000D01*
X63480Y-104520D02*
X81000Y-87000D01*
X63480Y-121051D02*
Y-104520D01*
X54819Y-121051D02*
Y-87181D01*
X135000Y-112852D02*
X135003Y-112849D01*
X135352Y-112500D01*
X133118Y-118382D02*
Y-116757D01*
X133290Y-116095D02*
Y-114811D01*
X133463Y-114388D02*
X134999Y-112852D01*
X133158Y-116545D02*
X133249Y-116307D01*
X135352Y-112500D02*
X138000D01*
X132684Y-112000D02*
X133000D01*
X131569Y-110885D02*
X132684Y-112000D01*
X146650Y-111650D02*
X148000Y-113000D01*
X145300Y-110300D02*
X146650Y-111650D01*
X147300Y-111000D02*
Y-106500D01*
X146650Y-111650D02*
X147300Y-111000D01*
X148000Y-113000D02*
X151500D01*
X145300Y-110300D02*
Y-106500D01*
X143300Y-110975D02*
X144000Y-111675D01*
Y-112000D02*
Y-111675D01*
X143300Y-110975D02*
Y-106500D01*
X130385Y-110885D02*
X131569D01*
X129500Y-110000D02*
X130385Y-110885D01*
X129500Y-110000D02*
Y-106500D01*
X128704Y-111703D02*
X128741Y-111876D01*
X127605Y-113556D02*
X127802Y-115968D01*
X125699Y-110533D02*
X127508Y-113275D01*
X127804Y-116024D02*
Y-116015D01*
X128544Y-111409D02*
X128547Y-111412D01*
X127804Y-116024D02*
X128000Y-118382D01*
X127600Y-110464D02*
X128544Y-111409D01*
X127600Y-110464D02*
Y-106500D01*
X125600Y-110203D02*
Y-106500D01*
X125441Y-118382D02*
X125470Y-118352D01*
Y-113530D01*
X125500Y-113500D01*
X4776Y-75276D02*
X8760D01*
X500Y-71000D02*
X4776Y-75276D01*
X2000Y-92059D02*
X12441D01*
X13750Y-90750D01*
X6776Y-84724D02*
X8760D01*
X4559Y-86941D02*
X6776Y-84724D01*
X2000Y-86941D02*
X4559D01*
X253000Y-106500D02*
X264000Y-117500D01*
X268500D01*
X253000Y-106500D02*
Y-67000D01*
X233000Y-47000D02*
X253000Y-67000D01*
X95346Y-38500D02*
X99000D01*
D14*
X174586Y-11500D02*
G03*
X175293Y-11207I0J1000D01*
G01*
X75441Y-15851D02*
G03*
X75150Y-15150I-1000J-5D01*
G01*
X62288Y-2289D02*
G03*
X61586Y-2000I-703J-711D01*
G01*
X62289Y-2289D02*
G03*
X62288Y-2289I-704J-711D01*
G01*
X68000Y-25253D02*
G03*
X67707Y-24546I-1000J0D01*
G01*
X68000Y-31500D02*
G03*
X73500Y-37000I5500J0D01*
G01*
X155500Y-11500D02*
X174586D01*
X175293Y-11207D02*
X179500Y-7000D01*
X102000Y-125500D02*
X102100Y-125600D01*
X62289Y-2289D02*
X75150Y-15150D01*
X62288Y-2289D02*
X62289Y-2289D01*
X75441Y-15851D02*
X75441Y-15855D01*
X45339Y-23000D02*
Y-17661D01*
X262000Y-87154D02*
X294000D01*
X78000Y-32240D02*
X80559D01*
X84500D01*
X13750Y-90750D02*
X15000Y-92000D01*
X12500Y-89500D02*
X13750Y-90750D01*
X10941Y-70441D02*
Y-68000D01*
Y-70441D02*
X12500Y-72000D01*
Y-75276D02*
Y-72000D01*
X15000Y-92000D02*
X30500D01*
X12500Y-89500D02*
Y-75276D01*
X58075Y-117811D02*
X59150Y-121051D01*
X108000Y-1500D02*
X118610D01*
X78000Y-24260D02*
Y-21000D01*
Y-24760D02*
Y-24260D01*
X80559Y-36500D02*
Y-32240D01*
Y-39500D02*
Y-36500D01*
X73500Y-37000D02*
X75441D01*
X62661Y-19500D02*
X67707Y-24546D01*
X68000Y-31500D02*
Y-25253D01*
X75441Y-50441D02*
Y-37000D01*
X45339Y-17661D02*
X60000Y-3000D01*
X75441Y-24260D02*
Y-15855D01*
X60000Y-2000D02*
X61586D01*
X78000Y-21000D02*
X86500D01*
X75441Y-50441D02*
X88000Y-63000D01*
X91000D01*
X80559Y-39500D02*
X87653D01*
X84500Y-32240D02*
Y-25000D01*
X87500Y-22000D01*
X87591Y-14559D02*
X93500D01*
X87500Y-22000D02*
Y-14650D01*
X88000Y-2500D02*
Y-2000D01*
X87500Y-9350D02*
Y-2500D01*
X95346Y-38500D02*
Y-32500D01*
X86500Y-21000D02*
X87500Y-22000D01*
X321740Y-21181D02*
Y-13224D01*
X322000Y-21441D02*
X329409D01*
X314260Y-21181D02*
Y-13224D01*
X354118Y1941D02*
X360169D01*
X353559Y-2500D02*
Y2500D01*
X329500Y-26650D02*
X332650D01*
X318000Y-3776D02*
Y3441D01*
X329500Y-21350D02*
X338543D01*
X332650Y-26650D02*
X337500Y-31500D01*
X211347Y-87154D02*
X215500D01*
D15*
X122882Y-118382D02*
D03*
X125441D02*
D03*
X128000D02*
D03*
X130559D02*
D03*
X133118D02*
D03*
D16*
X123079Y-129012D02*
D03*
X132921D02*
D03*
D17*
X103500Y-31846D02*
D03*
Y-25153D02*
D03*
X152500Y-122653D02*
D03*
Y-129347D02*
D03*
X102000Y-132846D02*
D03*
Y-126154D02*
D03*
X262000Y-93846D02*
D03*
Y-87154D02*
D03*
X215500Y-93846D02*
D03*
Y-87154D02*
D03*
X294000Y-93846D02*
D03*
Y-87154D02*
D03*
D18*
X103500Y-10252D02*
D03*
Y-16748D02*
D03*
D19*
X18000Y-48441D02*
D03*
Y-53559D02*
D03*
X2000Y-86941D02*
D03*
Y-92059D02*
D03*
X29500Y-85059D02*
D03*
Y-79941D02*
D03*
X374500Y-22441D02*
D03*
Y-27559D02*
D03*
X390000Y-16559D02*
D03*
Y-11441D02*
D03*
X397500Y-17559D02*
D03*
Y-12441D02*
D03*
X340500Y-101075D02*
D03*
Y-95957D02*
D03*
X348500Y-101075D02*
D03*
Y-95957D02*
D03*
X322000Y-21441D02*
D03*
Y-26559D02*
D03*
X314000Y-21441D02*
D03*
Y-26559D02*
D03*
X338000Y-20441D02*
D03*
Y-25559D02*
D03*
X360500Y-41559D02*
D03*
Y-36441D02*
D03*
X93500Y-9441D02*
D03*
Y-14559D02*
D03*
D20*
X43350Y-41500D02*
D03*
X48650D02*
D03*
D21*
X43441Y-48000D02*
D03*
X48559D02*
D03*
X43441Y-56000D02*
D03*
X48559D02*
D03*
X16059Y-68000D02*
D03*
X10941D02*
D03*
X317441Y4000D02*
D03*
X322559D02*
D03*
X80559Y-36500D02*
D03*
X75441D02*
D03*
X353559Y-2500D02*
D03*
X348441D02*
D03*
X388941Y-40000D02*
D03*
X394059D02*
D03*
X340941Y-126500D02*
D03*
X346059D02*
D03*
X348059Y-39000D02*
D03*
X342941D02*
D03*
X353559Y2500D02*
D03*
X348441D02*
D03*
X375441Y2000D02*
D03*
X380559D02*
D03*
D22*
X169500Y-97354D02*
D03*
Y-91646D02*
D03*
D23*
X110000Y-98800D02*
D03*
Y-96800D02*
D03*
Y-94800D02*
D03*
Y-92900D02*
D03*
Y-90900D02*
D03*
Y-88900D02*
D03*
Y-87000D02*
D03*
Y-85000D02*
D03*
Y-83000D02*
D03*
Y-81000D02*
D03*
Y-79100D02*
D03*
Y-77100D02*
D03*
Y-75100D02*
D03*
Y-73200D02*
D03*
Y-71200D02*
D03*
Y-69200D02*
D03*
X155000D02*
D03*
Y-71200D02*
D03*
Y-73200D02*
D03*
Y-75100D02*
D03*
Y-77100D02*
D03*
Y-79100D02*
D03*
Y-81000D02*
D03*
Y-83000D02*
D03*
Y-85000D02*
D03*
Y-87000D02*
D03*
Y-88900D02*
D03*
Y-90900D02*
D03*
Y-92900D02*
D03*
Y-94800D02*
D03*
Y-96800D02*
D03*
Y-98800D02*
D03*
D24*
X117700Y-61500D02*
D03*
X119700D02*
D03*
X121700D02*
D03*
X123600D02*
D03*
X125600D02*
D03*
X127600D02*
D03*
X129500D02*
D03*
X131500D02*
D03*
X133500D02*
D03*
X135500D02*
D03*
X137400D02*
D03*
X139400D02*
D03*
X141400D02*
D03*
X143300D02*
D03*
X145300D02*
D03*
X147300D02*
D03*
Y-106500D02*
D03*
X145300D02*
D03*
X143300D02*
D03*
X141400D02*
D03*
X139400D02*
D03*
X137400D02*
D03*
X135500D02*
D03*
X133500D02*
D03*
X131500D02*
D03*
X129500D02*
D03*
X127600D02*
D03*
X125600D02*
D03*
X123600D02*
D03*
X121700D02*
D03*
X119700D02*
D03*
X117700D02*
D03*
D25*
X101500Y-105500D02*
D03*
D26*
Y-115539D02*
D03*
D27*
X162244Y-50153D02*
D03*
Y-56846D02*
D03*
X167756D02*
D03*
Y-50153D02*
D03*
D28*
X25276Y-48260D02*
D03*
Y-52000D02*
D03*
Y-55740D02*
D03*
X34724D02*
D03*
Y-48260D02*
D03*
D29*
X23500Y-85650D02*
D03*
Y-80350D02*
D03*
X334000Y-101166D02*
D03*
Y-95866D02*
D03*
X383500Y-16650D02*
D03*
Y-11350D02*
D03*
X329500Y-21350D02*
D03*
Y-26650D02*
D03*
X87500Y-9350D02*
D03*
Y-14650D02*
D03*
D30*
X16240Y-75276D02*
D03*
X12500D02*
D03*
X8760D02*
D03*
Y-84724D02*
D03*
X16240D02*
D03*
X390260Y-33724D02*
D03*
X394000D02*
D03*
X397740D02*
D03*
Y-24276D02*
D03*
X390260D02*
D03*
X340760Y-118240D02*
D03*
X344500D02*
D03*
X348240D02*
D03*
Y-108791D02*
D03*
X340760D02*
D03*
X321740Y-3776D02*
D03*
X318000D02*
D03*
X314260D02*
D03*
Y-13224D02*
D03*
X321740D02*
D03*
D31*
X118610Y3500D02*
D03*
Y-1500D02*
D03*
Y-6500D02*
D03*
Y-11500D02*
D03*
Y-16500D02*
D03*
Y-21500D02*
D03*
Y-26500D02*
D03*
Y-31500D02*
D03*
X155500Y3500D02*
D03*
Y-1500D02*
D03*
Y-6500D02*
D03*
Y-11500D02*
D03*
Y-16500D02*
D03*
Y-21500D02*
D03*
Y-26500D02*
D03*
Y-31500D02*
D03*
D32*
X75441Y-31740D02*
D03*
X78000D02*
D03*
X80559D02*
D03*
Y-24260D02*
D03*
X78000D02*
D03*
X75441D02*
D03*
D33*
X45339Y-23000D02*
D03*
X62661D02*
D03*
D34*
X203847Y3500D02*
D03*
X197153D02*
D03*
X181653D02*
D03*
X188347D02*
D03*
X95346Y-32500D02*
D03*
X88653D02*
D03*
X88653Y-38500D02*
D03*
X95346D02*
D03*
D36*
X347657Y-13110D02*
D03*
Y-15079D02*
D03*
Y-17047D02*
D03*
Y-19016D02*
D03*
Y-20984D02*
D03*
Y-22953D02*
D03*
Y-24921D02*
D03*
Y-26890D02*
D03*
X367342D02*
D03*
Y-24921D02*
D03*
Y-22953D02*
D03*
Y-20984D02*
D03*
Y-19016D02*
D03*
Y-17047D02*
D03*
Y-15079D02*
D03*
Y-13110D02*
D03*
D37*
X350610Y-29842D02*
D03*
X352579D02*
D03*
X354547D02*
D03*
X356516D02*
D03*
X358484D02*
D03*
X360453D02*
D03*
X362421D02*
D03*
X364390D02*
D03*
Y-10158D02*
D03*
X362421D02*
D03*
X360453D02*
D03*
X358484D02*
D03*
X356516D02*
D03*
X354547D02*
D03*
X352579D02*
D03*
X350610D02*
D03*
D38*
X368831Y1941D02*
D03*
Y4500D02*
D03*
Y7059D02*
D03*
X360169D02*
D03*
Y1941D02*
D03*
D39*
X262500Y-124500D02*
D03*
Y-106783D02*
D03*
X226673Y-124500D02*
D03*
Y-106783D02*
D03*
X215000Y-124500D02*
D03*
Y-106783D02*
D03*
X179173Y-124500D02*
D03*
Y-106783D02*
D03*
X310000Y-124500D02*
D03*
Y-106783D02*
D03*
X274173Y-124500D02*
D03*
Y-106783D02*
D03*
D40*
X50488Y-121051D02*
D03*
X54819D02*
D03*
X59150D02*
D03*
X63480D02*
D03*
X67811D02*
D03*
X72142D02*
D03*
X76472D02*
D03*
X80803D02*
D03*
D41*
X43791Y-84878D02*
D03*
D42*
X91000Y-81532D02*
D03*
D43*
X90000Y-120000D02*
D03*
X43500Y-120500D02*
D03*
X195500Y-96000D02*
D03*
X320500Y-56000D02*
D03*
X91000Y-53000D02*
D03*
D68*
X161500Y-105500D02*
D03*
X36000Y-80000D02*
D03*
X-500Y-70500D02*
D03*
X30500Y-92000D02*
D03*
X87500Y-22000D02*
D03*
X339000Y-9000D02*
D03*
X343000Y2500D02*
D03*
X337500Y-31500D02*
D03*
D83*
X115322Y10000D02*
G03*
X113918Y9418I6J-2000D01*
G01*
X16240Y-59069D02*
G03*
X15654Y-57654I-2000J0D01*
G01*
X115322Y10000D02*
X115328Y10000D01*
X113918Y9418D02*
X113918Y9418D01*
X107500Y3000D02*
X113918Y9418D01*
X6441Y-48441D02*
X15654Y-57654D01*
X16240Y-67622D02*
Y-59069D01*
X4000Y-46000D02*
X6000Y-48000D01*
X115328Y10000D02*
X394000D01*
X4000Y-46000D02*
Y-14000D01*
X16059Y-68000D02*
X16240Y-68378D01*
X16059Y-68000D02*
X16240Y-67622D01*
Y-75276D02*
Y-68378D01*
X4000Y-14000D02*
X11000Y-7000D01*
Y1409D01*
X14763Y5172D02*
X68828D01*
X70000Y4000D01*
X11000Y1409D02*
X14763Y5172D01*
X70000Y-2000D02*
Y4000D01*
X93500Y-2000D02*
X97000D01*
X70000D02*
X88000D01*
X93500D01*
X97000D02*
X102000Y3000D01*
X107500D01*
X394000Y10000D02*
X404000Y0D01*
X342000Y-132500D02*
X354000D01*
X340941Y-131441D02*
X342000Y-132500D01*
X354000D02*
X404000Y-82500D01*
Y-45000D01*
Y0D01*
D84*
X93500Y-8225D02*
G03*
X93501Y-8269I1200J8D01*
G01*
X93624Y-10748D02*
G03*
X94769Y-11587I1144J361D01*
G01*
X96078Y-12787D02*
G03*
X94878Y-11587I-1200J0D01*
G01*
Y-17531D02*
G03*
X96078Y-16331I0J1200D01*
G01*
X94700Y-17531D02*
G03*
X93500Y-18731I0J-1200D01*
G01*
X91021Y-25979D02*
G03*
X93500Y-19998I-5971J5979D01*
G01*
X368831Y1941D02*
X375882D01*
X94769Y-11587D02*
X94878D01*
X93501Y-8269D02*
X94278D01*
X96078Y-16331D02*
Y-12787D01*
X94700Y-17531D02*
X94878D01*
X93500Y-18731D02*
Y-18731D01*
X93500Y-19998D02*
X93500Y-18731D01*
X93500Y-9441D02*
X93624Y-10613D01*
X93500Y-9441D02*
X94278Y-8269D01*
X93624Y-10748D02*
Y-10613D01*
X93500Y-8225D02*
X93500Y-2000D01*
X88653Y-28346D02*
X91021Y-25979D01*
X88653Y-32500D02*
Y-28346D01*
X321740Y-3776D02*
Y3681D01*
X318000Y-26559D02*
X322000D01*
X329409D01*
X314000D02*
X318000D01*
X313000Y-63500D02*
X320500Y-56000D01*
X313000Y-84500D02*
Y-63500D01*
Y-84500D02*
X329835Y-101335D01*
X340760D01*
Y-125216D02*
Y-118240D01*
X334000Y-95866D02*
Y-89500D01*
X320500Y-76000D02*
X334000Y-89500D01*
X394000Y-11441D02*
Y-6500D01*
X338000Y-31000D02*
Y-25559D01*
X375441Y2000D02*
Y9059D01*
X310224Y-3776D02*
X314260D01*
X305500Y-8500D02*
X310224Y-3776D01*
X305500Y-40000D02*
Y-8500D01*
X368831Y7059D02*
X372941D01*
X287000Y-28500D02*
X296000D01*
D85*
X100331Y-126337D02*
D03*
D86*
X160686Y500D02*
G03*
X160120Y266I0J-800D01*
G01*
X173169Y500D02*
G03*
X173734Y734I0J800D01*
G01*
X181327Y8000D02*
G03*
X180767Y7767I4J-800D01*
G01*
X248234Y7766D02*
G03*
X247669Y8000I-566J-566D01*
G01*
X103500Y-25153D02*
Y-16748D01*
X161300Y-105300D02*
X161500Y-105500D01*
X189000Y-7000D02*
X254500D01*
X271500Y-24000D01*
X29724Y-85059D02*
X30089D01*
X23500Y-84724D02*
X29500D01*
X29724D01*
X161000Y-126000D02*
Y-118000D01*
Y-126000D02*
X166000Y-131000D01*
X180767Y7767D02*
X180767Y7767D01*
X176500Y3500D02*
X180767Y7767D01*
X173734Y734D02*
X176500Y3500D01*
X181331Y8000D02*
X247669D01*
X160686Y500D02*
X173169Y500D01*
X181327Y8000D02*
X181331Y8000D01*
X158354Y-1500D02*
X160120Y266D01*
X362421Y-7079D02*
X367000Y-2500D01*
X29500Y-85059D02*
X29724D01*
X16240Y-84724D02*
X23500D01*
X29559Y-80000D02*
X36000D01*
X29500Y-79941D02*
X29559Y-80000D01*
X29091Y-80350D02*
X29500Y-79941D01*
X23500Y-80350D02*
X29091D01*
X29769Y-84765D02*
X30089Y-85059D01*
X29724Y-84724D02*
X29769Y-84765D01*
X0Y-70500D02*
X500Y-71000D01*
X-500Y-70500D02*
X0D01*
X248234Y7766D02*
X253500Y2500D01*
X165000Y-2000D02*
X184000D01*
X189000Y-7000D01*
X160500Y-6500D02*
X165000Y-2000D01*
X155500Y-6500D02*
X160500D01*
X155500Y-1500D02*
X158354D01*
X356516Y-4984D02*
X358500Y-3000D01*
X397740Y-38469D02*
X399000Y-39729D01*
Y-40000D02*
Y-39729D01*
X397740Y-38469D02*
Y-33724D01*
X75441Y-36500D02*
Y-31740D01*
X60000Y-3000D02*
Y-2000D01*
X364390Y-10158D02*
Y-8110D01*
X367500Y-5000D01*
X362421Y-10158D02*
Y-7079D01*
X360453Y-10158D02*
Y-4547D01*
X356516Y-10158D02*
Y-4984D01*
X367342Y-13110D02*
X371890D01*
X367342Y-15079D02*
X373421D01*
X367342Y-19016D02*
X374484D01*
X371890Y-13110D02*
X373000Y-12000D01*
Y-9500D01*
X373421Y-15079D02*
X376000Y-12500D01*
X360453Y-4547D02*
X362000Y-3000D01*
X354547Y-10158D02*
Y-3488D01*
X352579Y-10158D02*
Y-6579D01*
X350610Y-10158D02*
Y-7610D01*
X348441Y-5441D02*
X350610Y-7610D01*
X351441Y-5441D02*
X352579Y-6579D01*
X348441Y-5441D02*
X351441D01*
X343000Y2500D02*
X348441D01*
Y-5441D02*
Y-2500D01*
Y2500D01*
X368453Y4878D02*
X368831Y4500D01*
X345378Y4878D02*
X368453D01*
X343000Y2500D02*
X345378Y4878D01*
X380559Y2000D02*
X385000D01*
X358484Y-33484D02*
Y-29842D01*
X360453Y-36394D02*
Y-29842D01*
X362421Y-31921D02*
Y-29842D01*
Y-31921D02*
X365000Y-34500D01*
X356016Y-33484D02*
X358484D01*
X355000Y-34500D02*
X356016Y-33484D01*
X355000Y-37500D02*
Y-34500D01*
X365000Y-38000D02*
Y-34500D01*
X320500Y-66000D02*
X348000D01*
X360500Y-53500D01*
Y-41559D01*
X343957Y-95957D02*
X344500Y-96500D01*
X334000Y-95866D02*
X334091Y-95957D01*
X340500D01*
X343957D01*
X348500D01*
X348240Y-108791D02*
Y-101335D01*
X340760Y-108791D02*
Y-101335D01*
X346059Y-126500D02*
Y-123059D01*
X344500Y-121500D02*
X346059Y-123059D01*
X344500Y-121500D02*
Y-118240D01*
X394000Y-39941D02*
Y-33724D01*
X390260Y-38681D02*
Y-33724D01*
X388941Y-40000D02*
X390260Y-38681D01*
Y-24276D02*
Y-16819D01*
X390091Y-16650D02*
X390260Y-16819D01*
X382500Y-17650D02*
X383500Y-16650D01*
X382500Y-20000D02*
Y-17650D01*
X380059Y-22441D02*
X382500Y-20000D01*
X374500Y-22441D02*
X380059D01*
X383500Y-16650D02*
X390091D01*
X367342Y-20984D02*
X373043D01*
X374500Y-22441D01*
Y-27559D02*
X379441D01*
X383591Y-11441D02*
X390000D01*
X383500Y-11350D02*
X383591Y-11441D01*
X390000D02*
X394000D01*
X397740Y-24276D02*
Y-17799D01*
X394000Y-11441D02*
X396500D01*
X388941Y-44441D02*
Y-40000D01*
Y-44441D02*
X403441D01*
X404000Y-45000D01*
X352579Y-32421D02*
Y-29842D01*
X348059Y-36941D02*
X352579Y-32421D01*
X348059Y-39000D02*
Y-36941D01*
X343110Y-13110D02*
X347657D01*
X339000Y-9000D02*
X343110Y-13110D01*
X340606Y-17047D02*
X347657D01*
X339000Y-15441D02*
X340606Y-17047D01*
X339000Y-15441D02*
Y-9000D01*
X338500Y-24921D02*
X347657D01*
X339500Y-39000D02*
X342941D01*
X322559Y4000D02*
Y9441D01*
X338543Y-20984D02*
X347657D01*
X337500Y-31500D02*
X338000Y-31000D01*
X347657Y-17047D02*
X354547D01*
X338000Y-37500D02*
X339500Y-39000D01*
X338000Y-37500D02*
Y-31000D01*
X374484Y-19016D02*
X376500Y-17000D01*
X367500Y-5000D02*
X373000D01*
X348240Y-121740D02*
Y-118240D01*
Y-121740D02*
X351000Y-124500D01*
X352500D01*
X166000Y-131000D02*
X303500Y-131000D01*
X310000Y-124500D01*
X215000Y-106783D02*
Y-94346D01*
X262500Y-106783D02*
Y-94346D01*
X307000Y-103784D02*
X310000Y-106783D01*
X307000Y-103784D02*
Y-100000D01*
X300847Y-93846D02*
X307000Y-100000D01*
X294000Y-93846D02*
X300847D01*
X219500Y-60000D02*
X230000D01*
X236500Y-66500D01*
D87*
X393561Y-32439D02*
G03*
X394000Y-31379I-1061J1061D01*
G01*
X48650Y-52000D02*
X55000D01*
X25276D02*
X48650D01*
X6441Y-48441D02*
X18000D01*
X18181Y-48260D02*
X25276D01*
X67154Y-131346D02*
X67811Y-130689D01*
X66000Y-132500D02*
X66905Y-131595D01*
X67811Y-130689D02*
Y-121051D01*
X42000Y-132500D02*
X66000D01*
X37500Y-128000D02*
X42000Y-132500D01*
X59000Y-127500D02*
Y-121201D01*
X30089Y-85059D02*
X33941D01*
X37500Y-88618D01*
Y-128000D02*
Y-88618D01*
X394000Y-31379D02*
X394000Y-11441D01*
X393500Y-32500D02*
X393561Y-32439D01*
X318000Y-26559D02*
Y-3776D01*
X344500Y-118240D02*
Y-96500D01*
X340941Y-131441D02*
Y-126500D01*
D88*
X357500Y-20000D02*
D03*
D89*
X13500Y-128000D02*
D03*
X11500Y7000D02*
D03*
X432500Y-131500D02*
D03*
X433000Y6500D02*
D03*
D90*
X115008Y-128618D02*
D03*
X141386D02*
D03*
D91*
X137843Y-118382D02*
D03*
X118157Y-118382D02*
D03*
D92*
X195500Y-66000D02*
D03*
Y-76000D02*
D03*
Y-86000D02*
D03*
X320500Y-66000D02*
D03*
Y-76000D02*
D03*
X91000Y-63000D02*
D03*
X60000Y-2000D02*
D03*
X70000D02*
D03*
X253500Y2500D02*
D03*
X243500D02*
D03*
X233500D02*
D03*
X287000Y-28500D02*
D03*
D93*
X179500Y-66500D02*
D03*
Y-71500D02*
D03*
Y-76500D02*
D03*
Y-81500D02*
D03*
Y-86500D02*
D03*
X184500D02*
D03*
Y-81500D02*
D03*
Y-76500D02*
D03*
Y-71500D02*
D03*
Y-66500D02*
D03*
D94*
X0Y0D02*
D03*
Y-125000D02*
D03*
D95*
X23000Y-20000D02*
D03*
X419500D02*
D03*
Y-109500D02*
D03*
X23000D02*
D03*
D96*
X50000Y-2000D02*
D03*
X223500Y2500D02*
D03*
X297000Y-28500D02*
D03*
D97*
X171500Y-86000D02*
D03*
X163000Y-79700D02*
D03*
X131500Y-55000D02*
D03*
X132500Y-50500D02*
D03*
X101500Y-4500D02*
D03*
X135292Y-53997D02*
D03*
X127792Y-54497D02*
D03*
X94500Y-92000D02*
D03*
Y-97000D02*
D03*
X98800Y-85000D02*
D03*
X97000Y-73000D02*
D03*
X145000Y-54000D02*
D03*
X141500Y-51500D02*
D03*
X159500Y-91000D02*
D03*
X112500Y-6500D02*
D03*
X144500D02*
D03*
X108000Y-1500D02*
D03*
X91000Y-73000D02*
D03*
X172500Y-76800D02*
D03*
X271500Y-24000D02*
D03*
X122312Y-111503D02*
D03*
X115500Y-111200D02*
D03*
X36500Y-41500D02*
D03*
X55000Y-52000D02*
D03*
X152500Y-133000D02*
D03*
X161000Y-118000D02*
D03*
X168500Y-116000D02*
D03*
X168000Y-112500D02*
D03*
X110500Y-59000D02*
D03*
X115000Y-54500D02*
D03*
X163500Y-89000D02*
D03*
X161023Y-73477D02*
D03*
X168000Y-73300D02*
D03*
X168500Y-79500D02*
D03*
X202500Y-2000D02*
D03*
X209500Y3500D02*
D03*
X162500D02*
D03*
X139500Y-12000D02*
D03*
X120532Y-45129D02*
D03*
X118126Y-50223D02*
D03*
X122126Y-40723D02*
D03*
X104500Y-71000D02*
D03*
X102000Y-72866D02*
D03*
X157500Y-57000D02*
D03*
X167500Y-45000D02*
D03*
X104500Y-91000D02*
D03*
X100000Y-93000D02*
D03*
X76500Y-126500D02*
D03*
X59000Y-127500D02*
D03*
X133000Y-112000D02*
D03*
X138000Y-112500D02*
D03*
X144000Y-112000D02*
D03*
X151500Y-113000D02*
D03*
X128741Y-111876D02*
D03*
X125500Y-113500D02*
D03*
X268500Y-117500D02*
D03*
X233000Y-47000D02*
D03*
X179500Y-7000D02*
D03*
X399000Y-40000D02*
D03*
X373000Y-5100D02*
D03*
Y-9100D02*
D03*
X376343Y-12116D02*
D03*
X376500Y-17100D02*
D03*
X367000Y-2600D02*
D03*
X362500D02*
D03*
X358500Y-3100D02*
D03*
X385000Y2000D02*
D03*
X365000Y-37600D02*
D03*
X379500Y-27600D02*
D03*
X394000Y-6600D02*
D03*
X355000Y-37600D02*
D03*
X373000Y7000D02*
D03*
X305500Y-40000D02*
D03*
X352500Y-124500D02*
D03*
X188000Y-35000D02*
D03*
X219500Y-60000D02*
D03*
X236500Y-66500D02*
D03*
X211000Y-87500D02*
D03*
X281500Y-87000D02*
D03*
M02*
