G04*
G04 #@! TF.GenerationSoftware,Altium Limited,Altium Designer,21.9.2 (33)*
G04*
G04 Layer_Color=16711935*
%FSLAX25Y25*%
%MOIN*%
G70*
G04*
G04 #@! TF.SameCoordinates,9F12505F-C430-47E6-9CFF-433F7032CE6A*
G04*
G04*
G04 #@! TF.FilePolarity,Negative*
G04*
G01*
G75*
%ADD73R,0.06706X0.06706*%
G04:AMPARAMS|DCode=74|XSize=67.06mil|YSize=82.8mil|CornerRadius=18.76mil|HoleSize=0mil|Usage=FLASHONLY|Rotation=180.000|XOffset=0mil|YOffset=0mil|HoleType=Round|Shape=RoundedRectangle|*
%AMROUNDEDRECTD74*
21,1,0.06706,0.04528,0,0,180.0*
21,1,0.02953,0.08280,0,0,180.0*
1,1,0.03753,-0.01476,0.02264*
1,1,0.03753,0.01476,0.02264*
1,1,0.03753,0.01476,-0.02264*
1,1,0.03753,-0.01476,-0.02264*
%
%ADD74ROUNDEDRECTD74*%
%ADD75C,0.06509*%
%ADD76C,0.06706*%
%ADD77C,0.04737*%
%ADD78C,0.13800*%
%ADD79C,0.25800*%
%ADD80R,0.06706X0.06706*%
%ADD82C,0.05800*%
G04:AMPARAMS|DCode=112|XSize=133.98mil|YSize=188mil|CornerRadius=0mil|HoleSize=0mil|Usage=FLASHONLY|Rotation=135.000|XOffset=0mil|YOffset=0mil|HoleType=Round|Shape=Rectangle|*
%AMROTATEDRECTD112*
4,1,4,0.11384,0.01910,-0.01910,-0.11384,-0.11384,-0.01910,0.01910,0.11384,0.11384,0.01910,0.0*
%
%ADD112ROTATEDRECTD112*%

D73*
X195500Y-96000D02*
D03*
X320500Y-56000D02*
D03*
X91000Y-53000D02*
D03*
D74*
X115008Y-128618D02*
D03*
X141386D02*
D03*
D75*
X137843Y-118382D02*
D03*
X118157Y-118382D02*
D03*
D76*
X195500Y-66000D02*
D03*
Y-76000D02*
D03*
Y-86000D02*
D03*
X320500Y-66000D02*
D03*
Y-76000D02*
D03*
X91000Y-63000D02*
D03*
X60000Y-2000D02*
D03*
X70000D02*
D03*
X253500Y2500D02*
D03*
X243500D02*
D03*
X233500D02*
D03*
X287000Y-28500D02*
D03*
D77*
X179500Y-66500D02*
D03*
Y-71500D02*
D03*
Y-76500D02*
D03*
Y-81500D02*
D03*
Y-86500D02*
D03*
X184500D02*
D03*
Y-81500D02*
D03*
Y-76500D02*
D03*
Y-71500D02*
D03*
Y-66500D02*
D03*
D78*
X0Y0D02*
D03*
Y-125000D02*
D03*
D79*
X23000Y-20000D02*
D03*
X419500D02*
D03*
Y-109500D02*
D03*
X23000D02*
D03*
D80*
X50000Y-2000D02*
D03*
X223500Y2500D02*
D03*
X297000Y-28500D02*
D03*
D82*
X161500Y-105500D02*
D03*
X87500Y-22000D02*
D03*
D112*
X198432Y-24432D02*
D03*
X280000Y-106000D02*
D03*
M02*
