G04*
G04 #@! TF.GenerationSoftware,Altium Limited,Altium Designer,21.9.2 (33)*
G04*
G04 Layer_Physical_Order=4*
G04 Layer_Color=16711680*
%FSLAX25Y25*%
%MOIN*%
G70*
G04*
G04 #@! TF.SameCoordinates,9F12505F-C430-47E6-9CFF-433F7032CE6A*
G04*
G04*
G04 #@! TF.FilePolarity,Positive*
G04*
G01*
G75*
%ADD13C,0.00600*%
%ADD14C,0.01000*%
%ADD43R,0.05906X0.05906*%
%ADD68C,0.05000*%
%ADD84C,0.01200*%
%ADD86C,0.00800*%
G04:AMPARAMS|DCode=90|XSize=59.06mil|YSize=74.8mil|CornerRadius=14.76mil|HoleSize=0mil|Usage=FLASHONLY|Rotation=180.000|XOffset=0mil|YOffset=0mil|HoleType=Round|Shape=RoundedRectangle|*
%AMROUNDEDRECTD90*
21,1,0.05906,0.04528,0,0,180.0*
21,1,0.02953,0.07480,0,0,180.0*
1,1,0.02953,-0.01476,0.02264*
1,1,0.02953,0.01476,0.02264*
1,1,0.02953,0.01476,-0.02264*
1,1,0.02953,-0.01476,-0.02264*
%
%ADD90ROUNDEDRECTD90*%
%ADD91C,0.05709*%
%ADD92C,0.05906*%
%ADD93C,0.03937*%
%ADD94C,0.13000*%
%ADD95C,0.25000*%
%ADD96R,0.05906X0.05906*%
%ADD97C,0.01800*%
%ADD110C,0.00800*%
G04:AMPARAMS|DCode=111|XSize=125.98mil|YSize=180mil|CornerRadius=0mil|HoleSize=0mil|Usage=FLASHONLY|Rotation=135.000|XOffset=0mil|YOffset=0mil|HoleType=Round|Shape=Rectangle|*
%AMROTATEDRECTD111*
4,1,4,0.10818,0.01910,-0.01910,-0.10818,-0.10818,-0.01910,0.01910,0.10818,0.10818,0.01910,0.0*
%
%ADD111ROTATEDRECTD111*%

D13*
X153674Y-89326D02*
G03*
X153675Y-90175I424J-424D01*
G01*
X161668Y-81332D02*
G03*
X161704Y-81292I-429J419D01*
G01*
X96632Y-118136D02*
G03*
X97000Y-117582I-232J553D01*
G01*
X98500Y-82900D02*
G03*
X98506Y-82987I600J0D01*
G01*
X145176Y-71325D02*
G03*
X145600Y-71500I424J425D01*
G01*
X172727Y-71500D02*
G03*
X172682Y-71500I-19J-600D01*
G01*
X172730Y-71500D02*
G03*
X173176Y-71324I22J600D01*
G01*
X172664Y-71500D02*
G03*
X172682Y-71500I0J600D01*
G01*
X170500Y-105248D02*
G03*
X170326Y-104826I-600J0D01*
G01*
X156422Y-90078D02*
G03*
X156422Y-90922I426J-422D01*
G01*
X167248Y-79500D02*
G03*
X166826Y-79674I0J-600D01*
G01*
X168000Y-104748D02*
G03*
X167826Y-104326I-600J0D01*
G01*
X108248Y-80000D02*
G03*
X107824Y-80176I0J-600D01*
G01*
X169304Y-81500D02*
G03*
X168818Y-81748I0J-600D01*
G01*
X128741Y-111876D02*
G03*
X128682Y-111928I365J-476D01*
G01*
X161665Y-81335D02*
X161668Y-81332D01*
X161704Y-81292D02*
X163000Y-79700D01*
X153674Y-89326D02*
X161665Y-81335D01*
X153675Y-90175D02*
X167826Y-104326D01*
X132500Y-50500D02*
X141500Y-51500D01*
X94234Y-92234D02*
Y-70266D01*
Y-92234D02*
X94500Y-92500D01*
X91000Y-93500D02*
Y-73000D01*
Y-93500D02*
X94500Y-97000D01*
X97000Y-117582D02*
Y-73000D01*
X76500Y-126500D02*
X96632Y-118136D01*
X98506Y-82987D02*
X98800Y-85000D01*
X145000Y-71149D02*
Y-54000D01*
Y-71149D02*
X145176Y-71324D01*
X145600Y-71500D02*
X172664D01*
X172682Y-71500D02*
X172682Y-71500D01*
X145176Y-71324D02*
X145176Y-71325D01*
X172727Y-71500D02*
X172730Y-71500D01*
X156424Y-90924D02*
X170326Y-104826D01*
X170500Y-114000D02*
Y-105248D01*
X156422Y-90078D02*
X166826Y-79674D01*
X156422Y-90922D02*
X156424Y-90924D01*
X167248Y-79500D02*
X168500D01*
X168000Y-112500D02*
Y-104748D01*
X112500Y-6500D02*
X144500D01*
X98500Y-82900D02*
Y-81000D01*
X136300Y-43200D01*
X199900D02*
X216700Y-60000D01*
X136300Y-43200D02*
X199900D01*
X216700Y-60000D02*
X219500D01*
X108248Y-80000D02*
X159000D01*
X162500Y-76500D02*
X173000D01*
X159000Y-80000D02*
X162500Y-76500D01*
X253500Y-24000D02*
X271500D01*
X233000Y-44500D02*
X253500Y-24000D01*
X168500Y-116000D02*
X170500Y-114000D01*
X100000Y-88000D02*
X107824Y-80176D01*
X104500Y-91000D02*
X139500D01*
X158000Y-109500D01*
Y-115000D02*
Y-109500D01*
Y-115000D02*
X161000Y-118000D01*
X163500Y-89000D02*
X168818Y-81748D01*
X169304Y-81500D02*
X179500D01*
X169304Y-81500D02*
X169304Y-81500D01*
X173176Y-71324D02*
X174500Y-70000D01*
Y-66852D01*
X174852Y-66500D01*
X100000Y-93000D02*
Y-88000D01*
X174852Y-66500D02*
X179500D01*
X209500Y3500D02*
X211649D01*
X162500D02*
X209500D01*
X241500Y-4000D02*
X243500Y-2000D01*
Y2500D01*
X217000Y-4000D02*
X241500D01*
X212000Y1000D02*
X217000Y-4000D01*
X211649Y3500D02*
X212000Y3148D01*
Y1000D02*
Y3148D01*
X147000Y-12000D02*
X162500Y3500D01*
X139500Y-12000D02*
X147000D01*
X128530Y-112080D02*
X128682Y-111928D01*
X125500Y-113500D02*
X126920Y-112080D01*
X128530D01*
X233000Y-47000D02*
Y-44500D01*
D14*
X188000Y-34864D02*
X198432Y-24432D01*
X188000Y-35000D02*
Y-34864D01*
X268500Y-117500D02*
X280000Y-106000D01*
D43*
X195500Y-96000D02*
D03*
X320500Y-56000D02*
D03*
X91000Y-53000D02*
D03*
D68*
X161500Y-105500D02*
D03*
X36000Y-80000D02*
D03*
X-500Y-70500D02*
D03*
X30500Y-92000D02*
D03*
X87500Y-22000D02*
D03*
X339000Y-9000D02*
D03*
X343000Y2500D02*
D03*
X337500Y-31500D02*
D03*
D84*
X397997Y1006D02*
G03*
X397653Y1847I-1200J-0D01*
G01*
X398000Y-36783D02*
G03*
X398060Y-37153I1200J5D01*
G01*
X391338Y-45735D02*
G03*
X391321Y-45748I716J-963D01*
G01*
X390585Y-46000D02*
G03*
X391320Y-45749I-0J1200D01*
G01*
X397649Y1852D02*
X397653Y1847D01*
X398060Y-37153D02*
X399000Y-40000D01*
X391320Y-45749D02*
X391321Y-45748D01*
X390585Y-46000D02*
X390585D01*
X311500D02*
X390585D01*
X397997Y1006D02*
X398000Y-36783D01*
X391338Y-45735D02*
X399000Y-40000D01*
X392500Y7000D02*
X397649Y1852D01*
X373000Y7000D02*
X392500D01*
X305500Y-40000D02*
X311500Y-46000D01*
D86*
X93673Y-70500D02*
G03*
X94234Y-70266I-4J800D01*
G01*
X102245Y-70535D02*
G03*
X102000Y-71111I555J-576D01*
G01*
X122234Y-51265D02*
G03*
X122226Y-51274I550J-581D01*
G01*
X165756Y-3000D02*
G03*
X165207Y-3222I4J-800D01*
G01*
X121276Y-45144D02*
G03*
X121843Y-44921I12J800D01*
G01*
X119446Y-50223D02*
G03*
X120010Y-49990I0J800D01*
G01*
X132327Y-38000D02*
G03*
X131767Y-38233I4J-800D01*
G01*
X161727Y-1600D02*
G03*
X161167Y-1833I4J-800D01*
G01*
X122234Y-51265D02*
G03*
X122247Y-51253I-974J1005D01*
G01*
X133831Y-40000D02*
G03*
X133267Y-40233I0J-800D01*
G01*
X-500Y-70500D02*
X93673D01*
X-500Y-70500D02*
Y-70500D01*
X102245Y-70535D02*
X122226Y-51274D01*
X134000Y-41500D02*
X208500D01*
X104500Y-71000D02*
X134000Y-41500D01*
X165756Y-3000D02*
X165760Y-3000D01*
X193783D01*
X120532Y-45129D02*
X121273Y-45144D01*
X121276Y-45144D01*
X121843Y-44921D02*
X165207Y-3222D01*
X118126Y-50223D02*
X119446D01*
X132327Y-38000D02*
X132331Y-38000D01*
X204000D01*
X120010Y-49990D02*
X131767Y-38233D01*
X161727Y-1600D02*
X161731Y-1600D01*
X161167Y-1833D02*
X161167Y-1833D01*
X122233Y-40767D02*
X161167Y-1833D01*
X102000Y-72866D02*
Y-71111D01*
X122234Y-51265D02*
X122234Y-51265D01*
X133831Y-40000D02*
X206000D01*
X133831Y-40000D02*
X133831Y-40000D01*
X122247Y-51253D02*
X133267Y-40233D01*
X208500Y-41500D02*
X231000Y-19000D01*
X206000Y-40000D02*
X228900Y-17100D01*
X204000Y-38000D02*
X226500Y-15500D01*
X161731Y-1600D02*
X194363D01*
X193783Y-3000D02*
X198183Y-7400D01*
X337450Y-15500D02*
X343850Y-9100D01*
X373000D01*
X376343Y-12116D02*
X376500Y-11958D01*
Y-9000D01*
X371913Y-7500D02*
X372213Y-7200D01*
X374700D02*
X376500Y-9000D01*
X372213Y-7200D02*
X374700D01*
X345000Y-7500D02*
X371913D01*
X340500Y-3000D02*
X345000Y-7500D01*
X341100Y-1600D02*
X345600Y-6100D01*
X363500D01*
X367000Y-2600D01*
X373000Y-5100D02*
X373700Y-5800D01*
X375280D01*
X378500Y-9020D01*
X231000Y-19000D02*
X377287D01*
X378500Y-17787D02*
Y-9020D01*
X377287Y-19000D02*
X378500Y-17787D01*
X362500Y-2600D02*
Y2000D01*
X253500Y2500D02*
X260000Y9000D01*
X355500D01*
X362500Y2000D01*
X358500Y-3100D02*
Y-2000D01*
X296375Y-3000D02*
X340500D01*
X350250Y6250D02*
X358500Y-2000D01*
X350250Y6250D02*
Y6410D01*
X194363Y-1600D02*
X198763Y-6000D01*
X198183Y-7400D02*
X291975D01*
X296375Y-3000D01*
X198763Y-6000D02*
X291000D01*
X295400Y-1600D01*
X341100D01*
X243500Y2500D02*
X245000D01*
X250500Y-3000D01*
X258000D01*
X267410Y6410D01*
X350250D01*
X228900Y-17100D02*
X376500D01*
X339000Y-124500D02*
X352500D01*
X281000Y-66500D02*
X339000Y-124500D01*
X236500Y-66500D02*
X281000D01*
X226500Y-15500D02*
X337450D01*
D90*
X115008Y-128618D02*
D03*
X141386D02*
D03*
D91*
X137843Y-118382D02*
D03*
X118157Y-118382D02*
D03*
D92*
X195500Y-66000D02*
D03*
Y-76000D02*
D03*
Y-86000D02*
D03*
X320500Y-66000D02*
D03*
Y-76000D02*
D03*
X91000Y-63000D02*
D03*
X60000Y-2000D02*
D03*
X70000D02*
D03*
X253500Y2500D02*
D03*
X243500D02*
D03*
X233500D02*
D03*
X287000Y-28500D02*
D03*
D93*
X179500Y-66500D02*
D03*
Y-71500D02*
D03*
Y-76500D02*
D03*
Y-81500D02*
D03*
Y-86500D02*
D03*
X184500D02*
D03*
Y-81500D02*
D03*
Y-76500D02*
D03*
Y-71500D02*
D03*
Y-66500D02*
D03*
D94*
X0Y0D02*
D03*
Y-125000D02*
D03*
D95*
X23000Y-20000D02*
D03*
X419500D02*
D03*
Y-109500D02*
D03*
X23000D02*
D03*
D96*
X50000Y-2000D02*
D03*
X223500Y2500D02*
D03*
X297000Y-28500D02*
D03*
D97*
X171500Y-86000D02*
D03*
X163000Y-79700D02*
D03*
X131500Y-55000D02*
D03*
X132500Y-50500D02*
D03*
X101500Y-4500D02*
D03*
X135292Y-53997D02*
D03*
X127792Y-54497D02*
D03*
X94500Y-92000D02*
D03*
Y-97000D02*
D03*
X98800Y-85000D02*
D03*
X97000Y-73000D02*
D03*
X145000Y-54000D02*
D03*
X141500Y-51500D02*
D03*
X159500Y-91000D02*
D03*
X112500Y-6500D02*
D03*
X144500D02*
D03*
X108000Y-1500D02*
D03*
X91000Y-73000D02*
D03*
X172500Y-76800D02*
D03*
X271500Y-24000D02*
D03*
X122312Y-111503D02*
D03*
X115500Y-111200D02*
D03*
X36500Y-41500D02*
D03*
X55000Y-52000D02*
D03*
X152500Y-133000D02*
D03*
X161000Y-118000D02*
D03*
X168500Y-116000D02*
D03*
X168000Y-112500D02*
D03*
X110500Y-59000D02*
D03*
X115000Y-54500D02*
D03*
X163500Y-89000D02*
D03*
X161023Y-73477D02*
D03*
X168000Y-73300D02*
D03*
X168500Y-79500D02*
D03*
X202500Y-2000D02*
D03*
X209500Y3500D02*
D03*
X162500D02*
D03*
X139500Y-12000D02*
D03*
X120532Y-45129D02*
D03*
X118126Y-50223D02*
D03*
X122126Y-40723D02*
D03*
X104500Y-71000D02*
D03*
X102000Y-72866D02*
D03*
X157500Y-57000D02*
D03*
X167500Y-45000D02*
D03*
X104500Y-91000D02*
D03*
X100000Y-93000D02*
D03*
X76500Y-126500D02*
D03*
X59000Y-127500D02*
D03*
X133000Y-112000D02*
D03*
X138000Y-112500D02*
D03*
X144000Y-112000D02*
D03*
X151500Y-113000D02*
D03*
X128741Y-111876D02*
D03*
X125500Y-113500D02*
D03*
X268500Y-117500D02*
D03*
X233000Y-47000D02*
D03*
X179500Y-7000D02*
D03*
X399000Y-40000D02*
D03*
X373000Y-5100D02*
D03*
Y-9100D02*
D03*
X376343Y-12116D02*
D03*
X376500Y-17100D02*
D03*
X367000Y-2600D02*
D03*
X362500D02*
D03*
X358500Y-3100D02*
D03*
X385000Y2000D02*
D03*
X365000Y-37600D02*
D03*
X379500Y-27600D02*
D03*
X394000Y-6600D02*
D03*
X355000Y-37600D02*
D03*
X373000Y7000D02*
D03*
X305500Y-40000D02*
D03*
X352500Y-124500D02*
D03*
X188000Y-35000D02*
D03*
X219500Y-60000D02*
D03*
X236500Y-66500D02*
D03*
X211000Y-87500D02*
D03*
X281500Y-87000D02*
D03*
D110*
X94234Y-70266D02*
D03*
D111*
X198432Y-24432D02*
D03*
X280000Y-106000D02*
D03*
M02*
