G04*
G04 #@! TF.GenerationSoftware,Altium Limited,Altium Designer,21.9.2 (33)*
G04*
G04 Layer_Physical_Order=4*
G04 Layer_Color=16711680*
%FSLAX25Y25*%
%MOIN*%
G70*
G04*
G04 #@! TF.SameCoordinates,00E1F66A-6D3E-4A86-875F-F7C2A8832081*
G04*
G04*
G04 #@! TF.FilePolarity,Positive*
G04*
G01*
G75*
%ADD10C,0.01000*%
%ADD13C,0.00600*%
%ADD45R,0.05906X0.05906*%
%ADD71C,0.05000*%
%ADD84C,0.01200*%
%ADD86C,0.00800*%
G04:AMPARAMS|DCode=90|XSize=59.06mil|YSize=74.8mil|CornerRadius=14.76mil|HoleSize=0mil|Usage=FLASHONLY|Rotation=180.000|XOffset=0mil|YOffset=0mil|HoleType=Round|Shape=RoundedRectangle|*
%AMROUNDEDRECTD90*
21,1,0.05906,0.04528,0,0,180.0*
21,1,0.02953,0.07480,0,0,180.0*
1,1,0.02953,-0.01476,0.02264*
1,1,0.02953,0.01476,0.02264*
1,1,0.02953,0.01476,-0.02264*
1,1,0.02953,-0.01476,-0.02264*
%
%ADD90ROUNDEDRECTD90*%
%ADD91C,0.05709*%
%ADD92C,0.17500*%
%ADD93C,0.25000*%
%ADD94C,0.05906*%
%ADD95R,0.05906X0.05906*%
%ADD96C,0.01800*%
%ADD107C,0.00800*%
G04:AMPARAMS|DCode=108|XSize=125.98mil|YSize=180mil|CornerRadius=0mil|HoleSize=0mil|Usage=FLASHONLY|Rotation=135.000|XOffset=0mil|YOffset=0mil|HoleType=Round|Shape=Rectangle|*
%AMROTATEDRECTD108*
4,1,4,0.10818,0.01910,-0.01910,-0.10818,-0.10818,-0.01910,0.01910,0.10818,0.10818,0.01910,0.0*
%
%ADD108ROTATEDRECTD108*%

D10*
X176500Y-41864D02*
X186932Y-31432D01*
X176500Y-42000D02*
Y-41864D01*
X257000Y-124500D02*
X268500Y-113000D01*
D13*
X156021Y-78500D02*
G03*
X156528Y-78220I0J600D01*
G01*
X151249Y-83500D02*
G03*
X150824Y-83676I0J-600D01*
G01*
X133676Y-78325D02*
G03*
X134100Y-78500I424J425D01*
G01*
X142174Y-96326D02*
G03*
X142175Y-97175I424J-424D01*
G01*
X150168Y-88332D02*
G03*
X150204Y-88292I-429J419D01*
G01*
X85132Y-125136D02*
G03*
X85500Y-124582I-232J553D01*
G01*
X87000Y-89900D02*
G03*
X87006Y-89987I600J0D01*
G01*
X159000Y-112249D02*
G03*
X158826Y-111826I-600J0D01*
G01*
X144922Y-97078D02*
G03*
X144922Y-97922I426J-422D01*
G01*
X155748Y-86500D02*
G03*
X155326Y-86674I0J-600D01*
G01*
X156500Y-111749D02*
G03*
X156326Y-111326I-600J0D01*
G01*
X96749Y-87000D02*
G03*
X96324Y-87176I0J-600D01*
G01*
X117241Y-118876D02*
G03*
X117182Y-118928I365J-476D01*
G01*
X151500Y-96000D02*
X155000Y-90000D01*
X134100Y-78500D02*
X156021D01*
X156528Y-78220D02*
X159500Y-73500D01*
X147500Y-87000D02*
X150824Y-83676D01*
X151249Y-83500D02*
X158500D01*
X133500Y-78149D02*
X133676Y-78324D01*
X133676Y-78325D01*
X276800Y500D02*
X277000Y700D01*
X265300Y-11000D02*
X276800Y500D01*
X239000Y-11000D02*
X265300D01*
X239000D02*
X245000Y-5000D01*
X150165Y-88335D02*
X150168Y-88332D01*
X150204Y-88292D02*
X151500Y-86700D01*
X142174Y-96326D02*
X150165Y-88335D01*
X142175Y-97175D02*
X156326Y-111326D01*
X121000Y-57500D02*
X130000Y-58500D01*
X82734Y-99234D02*
Y-77266D01*
Y-99234D02*
X83000Y-99500D01*
X79500Y-100500D02*
Y-80000D01*
Y-100500D02*
X83000Y-104000D01*
X85500Y-124582D02*
Y-80000D01*
X65000Y-133500D02*
X85132Y-125136D01*
X87006Y-89987D02*
X87300Y-92000D01*
X133500Y-78149D02*
Y-61000D01*
X144924Y-97924D02*
X158826Y-111826D01*
X159000Y-121000D02*
Y-112249D01*
X144922Y-97078D02*
X155326Y-86674D01*
X144922Y-97922D02*
X144924Y-97924D01*
X155748Y-86500D02*
X157000D01*
X156500Y-119500D02*
Y-111749D01*
X101000Y-13500D02*
X133000D01*
X87000Y-89900D02*
Y-88000D01*
X124800Y-50200D01*
X188400D02*
X205200Y-67000D01*
X124800Y-50200D02*
X188400D01*
X205200Y-67000D02*
X208000D01*
X96749Y-87000D02*
X147500D01*
X242000Y-31000D02*
X260000D01*
X221500Y-51500D02*
X242000Y-31000D01*
X157000Y-123000D02*
X159000Y-121000D01*
X88500Y-95000D02*
X96324Y-87176D01*
X93000Y-98000D02*
X128000D01*
X146500Y-116500D01*
Y-122000D02*
Y-116500D01*
Y-122000D02*
X149500Y-125000D01*
X88500Y-100000D02*
Y-95000D01*
X198000Y-3500D02*
X200149D01*
X151000D02*
X198000D01*
X205500Y-11000D02*
X239000D01*
X200500Y-6000D02*
X205500Y-11000D01*
X200149Y-3500D02*
X200500Y-3852D01*
Y-6000D02*
Y-3852D01*
X135500Y-19000D02*
X151000Y-3500D01*
X128000Y-19000D02*
X135500D01*
X117030Y-119080D02*
X117182Y-118928D01*
X114000Y-120500D02*
X115420Y-119080D01*
X117030D01*
X221500Y-54000D02*
Y-51500D01*
D45*
X309000Y-63000D02*
D03*
X79500Y-60000D02*
D03*
D71*
X150000Y-112500D02*
D03*
X24500Y-87000D02*
D03*
X-12000Y-77500D02*
D03*
X19000Y-99000D02*
D03*
X76000Y-29000D02*
D03*
X327500Y-16000D02*
D03*
X331500Y-4500D02*
D03*
X326000Y-38500D02*
D03*
D84*
X386497Y-5994D02*
G03*
X386153Y-5153I-1200J-0D01*
G01*
X386500Y-43783D02*
G03*
X386560Y-44153I1200J5D01*
G01*
X379838Y-52735D02*
G03*
X379821Y-52748I716J-963D01*
G01*
X379085Y-53000D02*
G03*
X379820Y-52749I-0J1200D01*
G01*
X386149Y-5148D02*
X386153Y-5153D01*
X386560Y-44153D02*
X387500Y-47000D01*
X379820Y-52749D02*
X379821Y-52748D01*
X379085Y-53000D02*
X379085D01*
X300000D02*
X379085D01*
X386497Y-5994D02*
X386500Y-43783D01*
X379838Y-52735D02*
X387500Y-47000D01*
X381000Y0D02*
X386149Y-5148D01*
X361500Y0D02*
X381000D01*
X294000Y-47000D02*
X300000Y-53000D01*
D86*
X337734Y266D02*
G03*
X337169Y500I-566J-566D01*
G01*
X82173Y-77500D02*
G03*
X82734Y-77266I-4J800D01*
G01*
X90745Y-77535D02*
G03*
X90500Y-78111I555J-576D01*
G01*
X110734Y-58265D02*
G03*
X110726Y-58274I550J-581D01*
G01*
X154256Y-10000D02*
G03*
X153707Y-10222I4J-800D01*
G01*
X109776Y-52144D02*
G03*
X110343Y-51921I12J800D01*
G01*
X107946Y-57223D02*
G03*
X108510Y-56990I0J800D01*
G01*
X120827Y-45000D02*
G03*
X120267Y-45233I4J-800D01*
G01*
X150227Y-8600D02*
G03*
X149667Y-8833I4J-800D01*
G01*
X110734Y-58265D02*
G03*
X110747Y-58253I-974J1005D01*
G01*
X122331Y-47000D02*
G03*
X121767Y-47233I0J-800D01*
G01*
X255000Y-5000D02*
X262000Y2000D01*
X276800Y500D02*
X337169D01*
X337734Y266D02*
X347000Y-9000D01*
X-12000Y-77500D02*
X82173D01*
X-12000Y-77500D02*
Y-77500D01*
X90745Y-77535D02*
X110726Y-58274D01*
X122500Y-48500D02*
X197000D01*
X93000Y-78000D02*
X122500Y-48500D01*
X154256Y-10000D02*
X154260Y-10000D01*
X182283D01*
X109032Y-52129D02*
X109773Y-52144D01*
X109776Y-52144D01*
X110343Y-51921D02*
X153707Y-10222D01*
X106626Y-57223D02*
X107946D01*
X120827Y-45000D02*
X120831Y-45000D01*
X192500D01*
X108510Y-56990D02*
X120267Y-45233D01*
X150227Y-8600D02*
X150231Y-8600D01*
X149667Y-8833D02*
X149667Y-8833D01*
X110733Y-47767D02*
X149667Y-8833D01*
X90500Y-79866D02*
Y-78111D01*
X110734Y-58265D02*
X110734Y-58265D01*
X122331Y-47000D02*
X194500D01*
X122331Y-47000D02*
X122331Y-47000D01*
X110747Y-58253D02*
X121767Y-47233D01*
X197000Y-48500D02*
X219500Y-26000D01*
X194500Y-47000D02*
X217400Y-24100D01*
X192500Y-45000D02*
X215000Y-22500D01*
X150231Y-8600D02*
X182863D01*
X182283Y-10000D02*
X186683Y-14400D01*
X325950Y-22500D02*
X332350Y-16100D01*
X361500D01*
X364843Y-19116D02*
X365000Y-18958D01*
Y-16000D01*
X360413Y-14500D02*
X360713Y-14200D01*
X363200D02*
X365000Y-16000D01*
X360713Y-14200D02*
X363200D01*
X333500Y-14500D02*
X360413D01*
X329000Y-10000D02*
X333500Y-14500D01*
X329600Y-8600D02*
X334100Y-13100D01*
X352000D01*
X355500Y-9600D01*
X361500Y-12100D02*
X362200Y-12800D01*
X363780D01*
X367000Y-16020D01*
X219500Y-26000D02*
X365787D01*
X367000Y-24787D02*
Y-16020D01*
X365787Y-26000D02*
X367000Y-24787D01*
X351000Y-9600D02*
Y-5000D01*
X262000Y2000D02*
X344000Y2000D01*
X351000Y-5000D01*
X347000Y-10100D02*
Y-9000D01*
X284875Y-10000D02*
X329000D01*
X182863Y-8600D02*
X187263Y-13000D01*
X186683Y-14400D02*
X280475D01*
X284875Y-10000D01*
X187263Y-13000D02*
X279500D01*
X283900Y-8600D01*
X329600D01*
X217400Y-24100D02*
X365000D01*
X327500Y-131500D02*
X341000D01*
X269500Y-73500D02*
X327500Y-131500D01*
X225000Y-73500D02*
X269500D01*
X215000Y-22500D02*
X325950D01*
D90*
X103508Y-135618D02*
D03*
X129886D02*
D03*
D91*
X126342Y-125382D02*
D03*
X106658Y-125382D02*
D03*
D92*
X-11500Y-7000D02*
D03*
Y-132000D02*
D03*
D93*
X11500Y-27000D02*
D03*
X408000D02*
D03*
Y-116500D02*
D03*
X11500D02*
D03*
D94*
X309000Y-73000D02*
D03*
Y-83000D02*
D03*
X79500Y-70000D02*
D03*
X48500Y-9000D02*
D03*
X58500D02*
D03*
X255000Y-5000D02*
D03*
X245000D02*
D03*
X235000D02*
D03*
X275500Y-35500D02*
D03*
D95*
X38500Y-9000D02*
D03*
X225000Y-5000D02*
D03*
X285500Y-35500D02*
D03*
D96*
X182000Y-101000D02*
D03*
X155000Y-90000D02*
D03*
X159500Y-73500D02*
D03*
X158500Y-83500D02*
D03*
X151500Y-96000D02*
D03*
X198000Y-83500D02*
D03*
X211500Y-94500D02*
D03*
X32138Y-54466D02*
D03*
X13638Y-43966D02*
D03*
X151500Y-86700D02*
D03*
X121000Y-57500D02*
D03*
X90000Y-11500D02*
D03*
X83000Y-99000D02*
D03*
Y-104000D02*
D03*
X87300Y-92000D02*
D03*
X85500Y-80000D02*
D03*
X133500Y-61000D02*
D03*
X130000Y-58500D02*
D03*
X148000Y-98000D02*
D03*
X101000Y-13500D02*
D03*
X133000D02*
D03*
X96500Y-8500D02*
D03*
X79500Y-80000D02*
D03*
X260000Y-31000D02*
D03*
X110812Y-118503D02*
D03*
X104000Y-118200D02*
D03*
X141000Y-140000D02*
D03*
X149500Y-125000D02*
D03*
X157000Y-123000D02*
D03*
X156500Y-119500D02*
D03*
X99000Y-66000D02*
D03*
X103500Y-61500D02*
D03*
X149523Y-80477D02*
D03*
X156500Y-80300D02*
D03*
X157000Y-86500D02*
D03*
X191000Y-9000D02*
D03*
X198000Y-3500D02*
D03*
X151000D02*
D03*
X128000Y-19000D02*
D03*
X109032Y-52129D02*
D03*
X106626Y-57223D02*
D03*
X110626Y-47723D02*
D03*
X93000Y-78000D02*
D03*
X90500Y-79866D02*
D03*
X146000Y-64000D02*
D03*
X156000Y-52000D02*
D03*
X93000Y-98000D02*
D03*
X88500Y-100000D02*
D03*
X65000Y-133500D02*
D03*
X47500Y-134500D02*
D03*
X121500Y-119000D02*
D03*
X126500Y-119500D02*
D03*
X132500Y-119000D02*
D03*
X140000Y-120000D02*
D03*
X117241Y-118876D02*
D03*
X114000Y-120500D02*
D03*
X257000Y-124500D02*
D03*
X221500Y-54000D02*
D03*
X168000Y-14000D02*
D03*
X387500Y-47000D02*
D03*
X361500Y-12100D02*
D03*
Y-16100D02*
D03*
X364843Y-19116D02*
D03*
X365000Y-24100D02*
D03*
X355500Y-9600D02*
D03*
X351000D02*
D03*
X347000Y-10100D02*
D03*
X373500Y-5000D02*
D03*
X353500Y-44600D02*
D03*
X368000Y-34600D02*
D03*
X382500Y-13600D02*
D03*
X343500Y-44600D02*
D03*
X361500Y0D02*
D03*
X294000Y-47000D02*
D03*
X341000Y-131500D02*
D03*
X176500Y-42000D02*
D03*
X208000Y-67000D02*
D03*
X225000Y-73500D02*
D03*
X270000Y-94000D02*
D03*
D107*
X82734Y-77266D02*
D03*
D108*
X268500Y-113000D02*
D03*
X186932Y-31432D02*
D03*
M02*
