G04*
G04 #@! TF.GenerationSoftware,Altium Limited,Altium Designer,21.9.2 (33)*
G04*
G04 Layer_Physical_Order=2*
G04 Layer_Color=32768*
%FSLAX25Y25*%
%MOIN*%
G70*
G04*
G04 #@! TF.SameCoordinates,9F12505F-C430-47E6-9CFF-433F7032CE6A*
G04*
G04*
G04 #@! TF.FilePolarity,Negative*
G04*
G01*
G75*
%ADD14C,0.01000*%
%ADD98C,0.04000*%
%ADD99O,0.07150X0.09118*%
%ADD100C,0.07347*%
%ADD101C,0.07543*%
G04:AMPARAMS|DCode=102|XSize=95.433mil|YSize=95.433mil|CornerRadius=0mil|HoleSize=0mil|Usage=FLASHONLY|Rotation=0.000|XOffset=0mil|YOffset=0mil|HoleType=Round|Shape=Relief|Width=10mil|Gap=10mil|Entries=4|*
%AMTHD102*
7,0,0,0.09543,0.07543,0.01000,45*
%
%ADD102THD102*%
%ADD103C,0.06559*%
G04:AMPARAMS|DCode=104|XSize=85.591mil|YSize=85.591mil|CornerRadius=0mil|HoleSize=0mil|Usage=FLASHONLY|Rotation=0.000|XOffset=0mil|YOffset=0mil|HoleType=Round|Shape=Relief|Width=10mil|Gap=10mil|Entries=4|*
%AMTHD104*
7,0,0,0.08559,0.06559,0.01000,45*
%
%ADD104THD104*%
%ADD105C,0.16500*%
%ADD106C,0.05200*%
G04:AMPARAMS|DCode=107|XSize=72mil|YSize=72mil|CornerRadius=0mil|HoleSize=0mil|Usage=FLASHONLY|Rotation=0.000|XOffset=0mil|YOffset=0mil|HoleType=Round|Shape=Relief|Width=10mil|Gap=10mil|Entries=4|*
%AMTHD107*
7,0,0,0.07200,0.05200,0.01000,45*
%
%ADD107THD107*%
%ADD108C,0.06800*%
G04:AMPARAMS|DCode=109|XSize=88mil|YSize=88mil|CornerRadius=0mil|HoleSize=0mil|Usage=FLASHONLY|Rotation=0.000|XOffset=0mil|YOffset=0mil|HoleType=Round|Shape=Relief|Width=10mil|Gap=10mil|Entries=4|*
%AMTHD109*
7,0,0,0.08800,0.06800,0.01000,45*
%
%ADD109THD109*%
D14*
X291500Y-139000D02*
Y13500D01*
D98*
X-12000Y13500D02*
X440500Y13500D01*
X-12000Y-139000D02*
Y13500D01*
X440500Y-139000D02*
Y13500D01*
X-12000Y-139000D02*
X440500D01*
D99*
X114220Y-128618D02*
D03*
X142173D02*
D03*
D100*
X137843Y-118382D02*
D03*
X118157Y-118382D02*
D03*
D101*
X195500Y-66000D02*
D03*
Y-86000D02*
D03*
Y-96000D02*
D03*
X320500Y-56000D02*
D03*
Y-66000D02*
D03*
X91000Y-63000D02*
D03*
X50000Y-2000D02*
D03*
X60000D02*
D03*
X70000D02*
D03*
X253500Y2500D02*
D03*
X243500D02*
D03*
X223500D02*
D03*
D102*
X195500Y-76000D02*
D03*
X320500D02*
D03*
X91000Y-53000D02*
D03*
X233500Y2500D02*
D03*
X287000Y-28500D02*
D03*
X297000D02*
D03*
D103*
X179500Y-66500D02*
D03*
Y-71500D02*
D03*
Y-76500D02*
D03*
Y-81500D02*
D03*
Y-86500D02*
D03*
X184500D02*
D03*
Y-71500D02*
D03*
Y-66500D02*
D03*
D104*
Y-81500D02*
D03*
Y-76500D02*
D03*
D105*
X0Y0D02*
D03*
Y-125000D02*
D03*
X23000Y-20000D02*
D03*
X419500D02*
D03*
Y-109500D02*
D03*
X23000D02*
D03*
D106*
X171500Y-86000D02*
D03*
X163000Y-79700D02*
D03*
X131500Y-55000D02*
D03*
X132500Y-50500D02*
D03*
X135292Y-53997D02*
D03*
X127792Y-54497D02*
D03*
X94500Y-92000D02*
D03*
Y-97000D02*
D03*
X98800Y-85000D02*
D03*
X97000Y-73000D02*
D03*
X145000Y-54000D02*
D03*
X141500Y-51500D02*
D03*
X159500Y-91000D02*
D03*
X112500Y-6500D02*
D03*
X144500D02*
D03*
X108000Y-1500D02*
D03*
X91000Y-73000D02*
D03*
X172500Y-76800D02*
D03*
X271500Y-24000D02*
D03*
X115500Y-111200D02*
D03*
X36500Y-41500D02*
D03*
X152500Y-133000D02*
D03*
X161000Y-118000D02*
D03*
X168500Y-116000D02*
D03*
X168000Y-112500D02*
D03*
X110500Y-59000D02*
D03*
X163500Y-89000D02*
D03*
X168000Y-73300D02*
D03*
X168500Y-79500D02*
D03*
X202500Y-2000D02*
D03*
X209500Y3500D02*
D03*
X162500D02*
D03*
X139500Y-12000D02*
D03*
X120532Y-45129D02*
D03*
X118126Y-50223D02*
D03*
X122126Y-40723D02*
D03*
X104500Y-71000D02*
D03*
X102000Y-72866D02*
D03*
X104500Y-91000D02*
D03*
X100000Y-93000D02*
D03*
X76500Y-126500D02*
D03*
X133000Y-112000D02*
D03*
X144000D02*
D03*
X128741Y-111876D02*
D03*
X125500Y-113500D02*
D03*
X268500Y-117500D02*
D03*
X233000Y-47000D02*
D03*
X399000Y-40000D02*
D03*
X373000Y-5100D02*
D03*
Y-9100D02*
D03*
X376343Y-12116D02*
D03*
X376500Y-17100D02*
D03*
X367000Y-2600D02*
D03*
X362500D02*
D03*
X358500Y-3100D02*
D03*
X373000Y7000D02*
D03*
X305500Y-40000D02*
D03*
X352500Y-124500D02*
D03*
X219500Y-60000D02*
D03*
X236500Y-66500D02*
D03*
D107*
X101500Y-4500D02*
D03*
X122312Y-111503D02*
D03*
X55000Y-52000D02*
D03*
X115000Y-54500D02*
D03*
X161023Y-73477D02*
D03*
X157500Y-57000D02*
D03*
X167500Y-45000D02*
D03*
X59000Y-127500D02*
D03*
X138000Y-112500D02*
D03*
X151500Y-113000D02*
D03*
X179500Y-7000D02*
D03*
X385000Y2000D02*
D03*
X365000Y-37600D02*
D03*
X379500Y-27600D02*
D03*
X394000Y-6600D02*
D03*
X355000Y-37600D02*
D03*
X188000Y-35000D02*
D03*
X211000Y-87500D02*
D03*
X281500Y-87000D02*
D03*
D108*
X161500Y-105500D02*
D03*
X-500Y-70500D02*
D03*
D109*
X36000Y-80000D02*
D03*
X30500Y-92000D02*
D03*
X87500Y-22000D02*
D03*
X339000Y-9000D02*
D03*
X343000Y2500D02*
D03*
X337500Y-31500D02*
D03*
M02*
