G04*
G04 #@! TF.GenerationSoftware,Altium Limited,Altium Designer,21.9.2 (33)*
G04*
G04 Layer_Color=255*
%FSLAX25Y25*%
%MOIN*%
G70*
G04*
G04 #@! TF.SameCoordinates,234587DD-4A7B-46B4-830A-DC7AB76B998A*
G04*
G04*
G04 #@! TF.FilePolarity,Positive*
G04*
G01*
G75*
%ADD46R,0.05906X0.05906*%
G04:AMPARAMS|DCode=90|XSize=59.06mil|YSize=74.8mil|CornerRadius=14.76mil|HoleSize=0mil|Usage=FLASHONLY|Rotation=180.000|XOffset=0mil|YOffset=0mil|HoleType=Round|Shape=RoundedRectangle|*
%AMROUNDEDRECTD90*
21,1,0.05906,0.04528,0,0,180.0*
21,1,0.02953,0.07480,0,0,180.0*
1,1,0.02953,-0.01476,0.02264*
1,1,0.02953,0.01476,0.02264*
1,1,0.02953,0.01476,-0.02264*
1,1,0.02953,-0.01476,-0.02264*
%
%ADD90ROUNDEDRECTD90*%
%ADD91C,0.05709*%
%ADD92C,0.17500*%
%ADD93C,0.25000*%
%ADD94C,0.05906*%
%ADD95R,0.05906X0.05906*%
G04:AMPARAMS|DCode=108|XSize=125.98mil|YSize=180mil|CornerRadius=0mil|HoleSize=0mil|Usage=FLASHONLY|Rotation=135.000|XOffset=0mil|YOffset=0mil|HoleType=Round|Shape=Rectangle|*
%AMROTATEDRECTD108*
4,1,4,0.10818,0.01910,-0.01910,-0.10818,-0.10818,-0.01910,0.01910,0.10818,0.10818,0.01910,0.0*
%
%ADD108ROTATEDRECTD108*%

D46*
X309000Y-63000D02*
D03*
X79500Y-60000D02*
D03*
D90*
X103508Y-135618D02*
D03*
X129886D02*
D03*
D91*
X126342Y-125382D02*
D03*
X106658Y-125382D02*
D03*
D92*
X-11500Y-7000D02*
D03*
Y-132000D02*
D03*
D93*
X11500Y-27000D02*
D03*
X408000D02*
D03*
Y-116500D02*
D03*
X11500D02*
D03*
D94*
X309000Y-73000D02*
D03*
Y-83000D02*
D03*
X79500Y-70000D02*
D03*
X48500Y-9000D02*
D03*
X58500D02*
D03*
X255000Y-5000D02*
D03*
X245000D02*
D03*
X235000D02*
D03*
X275500Y-35500D02*
D03*
D95*
X38500Y-9000D02*
D03*
X225000Y-5000D02*
D03*
X285500Y-35500D02*
D03*
D108*
X268500Y-113000D02*
D03*
X186932Y-31432D02*
D03*
M02*
