M48
;Layer_Color=9474304
;FILE_FORMAT=2:5
INCH,TZ
;TYPE=PLATED
T1F00S00C0.01200
T2F00S00C0.02559
T3F00S00C0.02800
T5F00S00C0.03346
T6F00S00C0.03543
T7F00S00C0.12500
%
T01
X59000Y-127500
X76500Y-126500
X94500Y-97000
Y-92000
X100000Y-93000
X104500Y-91000
X98800Y-85000
X97000Y-73000
X102000Y-72866
X104500Y-71000
X91000Y-73000
X110500Y-59000
X115000Y-54500
X118126Y-50223
X120532Y-45129
X122126Y-40723
X127792Y-54497
X131500Y-55000
X135292Y-53997
X132500Y-50500
X141500Y-51500
X145000Y-54000
X157500Y-57000
X151500Y-113000
X144000Y-112000
X138000Y-112500
X133000Y-112000
X128741Y-111876
X125500Y-113500
X122312Y-111503
X115500Y-111200
X152500Y-133000
X139500Y-12000
X144500Y-6500
X112500
X108000Y-1500
X101500Y-4500
X55000Y-52000
X36500Y-41500
X167500Y-45000
X168000Y-73300
X168500Y-79500
X163000Y-79700
X161023Y-73477
X172500Y-76800
X171500Y-86000
X163500Y-89000
X159500Y-91000
X161000Y-118000
X168500Y-116000
X168000Y-112500
X211000Y-87500
X219500Y-60000
X236500Y-66500
X233000Y-47000
X188000Y-35000
X179500Y-7000
X162500Y3500
X202500Y-2000
X209500Y3500
X271500Y-24000
X305500Y-40000
X281500Y-87000
X268500Y-117500
X352500Y-124500
X355000Y-37600
X365000
X379500Y-27600
X376500Y-17100
X376343Y-12116
X373000Y-9100
Y-5100
X367000Y-2600
X362500
X358500Y-3100
X373000Y7000
X385000Y2000
X394000Y-6600
X399000Y-40000
T02
X179500Y-86500
Y-81500
Y-76500
Y-71500
Y-66500
X184500
Y-71500
Y-76500
Y-81500
Y-86500
T03
X-500Y-70500
X36000Y-80000
X30500Y-92000
X87500Y-22000
X161500Y-105500
X337500Y-31500
X339000Y-9000
X343000Y2500
T05
X118157Y-118382
X137843Y-118382
T06
X91000Y-63000
Y-53000
X70000Y-2000
X60000
X50000
X223500Y2500
X233500
X243500
X253500
X287000Y-28500
X297000
X195500Y-66000
Y-76000
Y-86000
Y-96000
X320500Y-76000
Y-66000
Y-56000
T07
X0Y-125000
Y0
X23000Y-20000
Y-109500
X419500
Y-20000
M30
