G04*
G04 #@! TF.GenerationSoftware,Altium Limited,Altium Designer,21.9.2 (33)*
G04*
G04 Layer_Color=8388736*
%FSLAX25Y25*%
%MOIN*%
G70*
G04*
G04 #@! TF.SameCoordinates,9F12505F-C430-47E6-9CFF-433F7032CE6A*
G04*
G04*
G04 #@! TF.FilePolarity,Negative*
G04*
G01*
G75*
%ADD44R,0.02375X0.06115*%
%ADD45R,0.04737X0.08280*%
%ADD46R,0.04737X0.05131*%
%ADD47R,0.03950X0.03950*%
%ADD48R,0.03556X0.04343*%
%ADD49R,0.04800X0.05800*%
%ADD50R,0.04343X0.03556*%
%ADD51R,0.06312X0.03753*%
%ADD52R,0.06600X0.01900*%
%ADD53R,0.01900X0.06600*%
%ADD54R,0.06312X0.04343*%
%ADD55R,0.06312X0.09461*%
%ADD56R,0.05118X0.05512*%
%ADD57R,0.05131X0.03359*%
%ADD58R,0.05800X0.04800*%
%ADD59R,0.03359X0.05131*%
%ADD60R,0.08595X0.02887*%
%ADD61R,0.02178X0.04343*%
%ADD62R,0.06312X0.10642*%
%ADD63R,0.05131X0.04737*%
%ADD64R,0.14186X0.14186*%
%ADD65O,0.03556X0.01587*%
%ADD66O,0.01587X0.03556*%
%ADD67R,0.04343X0.02375*%
%ADD68C,0.05000*%
%ADD69R,0.09068X0.06312*%
%ADD70R,0.03950X0.08280*%
%ADD71R,0.08083X0.04737*%
%ADD72R,0.04737X0.08674*%
%ADD73R,0.06706X0.06706*%
G04:AMPARAMS|DCode=74|XSize=67.06mil|YSize=82.8mil|CornerRadius=18.76mil|HoleSize=0mil|Usage=FLASHONLY|Rotation=180.000|XOffset=0mil|YOffset=0mil|HoleType=Round|Shape=RoundedRectangle|*
%AMROUNDEDRECTD74*
21,1,0.06706,0.04528,0,0,180.0*
21,1,0.02953,0.08280,0,0,180.0*
1,1,0.03753,-0.01476,0.02264*
1,1,0.03753,0.01476,0.02264*
1,1,0.03753,0.01476,-0.02264*
1,1,0.03753,-0.01476,-0.02264*
%
%ADD74ROUNDEDRECTD74*%
%ADD75C,0.06509*%
%ADD76C,0.06706*%
%ADD77C,0.04737*%
%ADD78C,0.13800*%
%ADD79C,0.25800*%
%ADD80R,0.06706X0.06706*%
%ADD81C,0.02600*%
%ADD82C,0.05800*%
D44*
X122882Y-118382D02*
D03*
X125441D02*
D03*
X128000D02*
D03*
X130559D02*
D03*
X133118D02*
D03*
D45*
X123079Y-129012D02*
D03*
X132921D02*
D03*
D46*
X103500Y-31846D02*
D03*
Y-25153D02*
D03*
X152500Y-122653D02*
D03*
Y-129347D02*
D03*
X102000Y-132846D02*
D03*
Y-126154D02*
D03*
X262000Y-93846D02*
D03*
Y-87154D02*
D03*
X215500Y-93846D02*
D03*
Y-87154D02*
D03*
X294000Y-93846D02*
D03*
Y-87154D02*
D03*
D47*
X103500Y-10252D02*
D03*
Y-16748D02*
D03*
D48*
X18000Y-48441D02*
D03*
Y-53559D02*
D03*
X2000Y-86941D02*
D03*
Y-92059D02*
D03*
X29500Y-85059D02*
D03*
Y-79941D02*
D03*
X374500Y-22441D02*
D03*
Y-27559D02*
D03*
X390000Y-16559D02*
D03*
Y-11441D02*
D03*
X397500Y-17559D02*
D03*
Y-12441D02*
D03*
X340500Y-101075D02*
D03*
Y-95957D02*
D03*
X348500Y-101075D02*
D03*
Y-95957D02*
D03*
X322000Y-21441D02*
D03*
Y-26559D02*
D03*
X314000Y-21441D02*
D03*
Y-26559D02*
D03*
X338000Y-20441D02*
D03*
Y-25559D02*
D03*
X360500Y-41559D02*
D03*
Y-36441D02*
D03*
X93500Y-9441D02*
D03*
Y-14559D02*
D03*
D49*
X43350Y-41500D02*
D03*
X48650D02*
D03*
D50*
X43441Y-48000D02*
D03*
X48559D02*
D03*
X43441Y-56000D02*
D03*
X48559D02*
D03*
X16059Y-68000D02*
D03*
X10941D02*
D03*
X317441Y4000D02*
D03*
X322559D02*
D03*
X80559Y-36500D02*
D03*
X75441D02*
D03*
X353559Y-2500D02*
D03*
X348441D02*
D03*
X388941Y-40000D02*
D03*
X394059D02*
D03*
X340941Y-126500D02*
D03*
X346059D02*
D03*
X348059Y-39000D02*
D03*
X342941D02*
D03*
X353559Y2500D02*
D03*
X348441D02*
D03*
X375441Y2000D02*
D03*
X380559D02*
D03*
D51*
X169500Y-97354D02*
D03*
Y-91646D02*
D03*
D52*
X110000Y-98800D02*
D03*
Y-96800D02*
D03*
Y-94800D02*
D03*
Y-92900D02*
D03*
Y-90900D02*
D03*
Y-88900D02*
D03*
Y-87000D02*
D03*
Y-85000D02*
D03*
Y-83000D02*
D03*
Y-81000D02*
D03*
Y-79100D02*
D03*
Y-77100D02*
D03*
Y-75100D02*
D03*
Y-73200D02*
D03*
Y-71200D02*
D03*
Y-69200D02*
D03*
X155000D02*
D03*
Y-71200D02*
D03*
Y-73200D02*
D03*
Y-75100D02*
D03*
Y-77100D02*
D03*
Y-79100D02*
D03*
Y-81000D02*
D03*
Y-83000D02*
D03*
Y-85000D02*
D03*
Y-87000D02*
D03*
Y-88900D02*
D03*
Y-90900D02*
D03*
Y-92900D02*
D03*
Y-94800D02*
D03*
Y-96800D02*
D03*
Y-98800D02*
D03*
D53*
X117700Y-61500D02*
D03*
X119700D02*
D03*
X121700D02*
D03*
X123600D02*
D03*
X125600D02*
D03*
X127600D02*
D03*
X129500D02*
D03*
X131500D02*
D03*
X133500D02*
D03*
X135500D02*
D03*
X137400D02*
D03*
X139400D02*
D03*
X141400D02*
D03*
X143300D02*
D03*
X145300D02*
D03*
X147300D02*
D03*
Y-106500D02*
D03*
X145300D02*
D03*
X143300D02*
D03*
X141400D02*
D03*
X139400D02*
D03*
X137400D02*
D03*
X135500D02*
D03*
X133500D02*
D03*
X131500D02*
D03*
X129500D02*
D03*
X127600D02*
D03*
X125600D02*
D03*
X123600D02*
D03*
X121700D02*
D03*
X119700D02*
D03*
X117700D02*
D03*
D54*
X101500Y-105500D02*
D03*
D55*
Y-115539D02*
D03*
D56*
X162244Y-50153D02*
D03*
Y-56846D02*
D03*
X167756D02*
D03*
Y-50153D02*
D03*
D57*
X25276Y-48260D02*
D03*
Y-52000D02*
D03*
Y-55740D02*
D03*
X34724D02*
D03*
Y-48260D02*
D03*
D58*
X23500Y-85650D02*
D03*
Y-80350D02*
D03*
X334000Y-101166D02*
D03*
Y-95866D02*
D03*
X383500Y-16650D02*
D03*
Y-11350D02*
D03*
X329500Y-21350D02*
D03*
Y-26650D02*
D03*
X87500Y-9350D02*
D03*
Y-14650D02*
D03*
D59*
X16240Y-75276D02*
D03*
X12500D02*
D03*
X8760D02*
D03*
Y-84724D02*
D03*
X16240D02*
D03*
X390260Y-33724D02*
D03*
X394000D02*
D03*
X397740D02*
D03*
Y-24276D02*
D03*
X390260D02*
D03*
X340760Y-118240D02*
D03*
X344500D02*
D03*
X348240D02*
D03*
Y-108791D02*
D03*
X340760D02*
D03*
X321740Y-3776D02*
D03*
X318000D02*
D03*
X314260D02*
D03*
Y-13224D02*
D03*
X321740D02*
D03*
D60*
X118610Y3500D02*
D03*
Y-1500D02*
D03*
Y-6500D02*
D03*
Y-11500D02*
D03*
Y-16500D02*
D03*
Y-21500D02*
D03*
Y-26500D02*
D03*
Y-31500D02*
D03*
X155500Y3500D02*
D03*
Y-1500D02*
D03*
Y-6500D02*
D03*
Y-11500D02*
D03*
Y-16500D02*
D03*
Y-21500D02*
D03*
Y-26500D02*
D03*
Y-31500D02*
D03*
D61*
X75441Y-31740D02*
D03*
X78000D02*
D03*
X80559D02*
D03*
Y-24260D02*
D03*
X78000D02*
D03*
X75441D02*
D03*
D62*
X45339Y-23000D02*
D03*
X62661D02*
D03*
D63*
X203847Y3500D02*
D03*
X197153D02*
D03*
X181653D02*
D03*
X188347D02*
D03*
X95346Y-32500D02*
D03*
X88653D02*
D03*
X88653Y-38500D02*
D03*
X95346D02*
D03*
D64*
X357500Y-20000D02*
D03*
D65*
X347657Y-13110D02*
D03*
Y-15079D02*
D03*
Y-17047D02*
D03*
Y-19016D02*
D03*
Y-20984D02*
D03*
Y-22953D02*
D03*
Y-24921D02*
D03*
Y-26890D02*
D03*
X367342D02*
D03*
Y-24921D02*
D03*
Y-22953D02*
D03*
Y-20984D02*
D03*
Y-19016D02*
D03*
Y-17047D02*
D03*
Y-15079D02*
D03*
Y-13110D02*
D03*
D66*
X350610Y-29842D02*
D03*
X352579D02*
D03*
X354547D02*
D03*
X356516D02*
D03*
X358484D02*
D03*
X360453D02*
D03*
X362421D02*
D03*
X364390D02*
D03*
Y-10158D02*
D03*
X362421D02*
D03*
X360453D02*
D03*
X358484D02*
D03*
X356516D02*
D03*
X354547D02*
D03*
X352579D02*
D03*
X350610D02*
D03*
D67*
X368831Y1941D02*
D03*
Y4500D02*
D03*
Y7059D02*
D03*
X360169D02*
D03*
Y1941D02*
D03*
D68*
X13500Y-128000D02*
D03*
X11500Y7000D02*
D03*
X432500Y-131500D02*
D03*
X433000Y6500D02*
D03*
D69*
X262500Y-124500D02*
D03*
Y-106783D02*
D03*
X226673Y-124500D02*
D03*
Y-106783D02*
D03*
X215000Y-124500D02*
D03*
Y-106783D02*
D03*
X179173Y-124500D02*
D03*
Y-106783D02*
D03*
X310000Y-124500D02*
D03*
Y-106783D02*
D03*
X274173Y-124500D02*
D03*
Y-106783D02*
D03*
D70*
X50488Y-121051D02*
D03*
X54819D02*
D03*
X59150D02*
D03*
X63480D02*
D03*
X67811D02*
D03*
X72142D02*
D03*
X76472D02*
D03*
X80803D02*
D03*
D71*
X43791Y-84878D02*
D03*
D72*
X91000Y-81532D02*
D03*
D73*
X90000Y-120000D02*
D03*
X43500Y-120500D02*
D03*
X195500Y-96000D02*
D03*
X320500Y-56000D02*
D03*
X91000Y-53000D02*
D03*
D74*
X115008Y-128618D02*
D03*
X141386D02*
D03*
D75*
X137843Y-118382D02*
D03*
X118157Y-118382D02*
D03*
D76*
X195500Y-66000D02*
D03*
Y-76000D02*
D03*
Y-86000D02*
D03*
X320500Y-66000D02*
D03*
Y-76000D02*
D03*
X91000Y-63000D02*
D03*
X60000Y-2000D02*
D03*
X70000D02*
D03*
X253500Y2500D02*
D03*
X243500D02*
D03*
X233500D02*
D03*
X287000Y-28500D02*
D03*
D77*
X179500Y-66500D02*
D03*
Y-71500D02*
D03*
Y-76500D02*
D03*
Y-81500D02*
D03*
Y-86500D02*
D03*
X184500D02*
D03*
Y-81500D02*
D03*
Y-76500D02*
D03*
Y-71500D02*
D03*
Y-66500D02*
D03*
D78*
X0Y0D02*
D03*
Y-125000D02*
D03*
D79*
X23000Y-20000D02*
D03*
X419500D02*
D03*
Y-109500D02*
D03*
X23000D02*
D03*
D80*
X50000Y-2000D02*
D03*
X223500Y2500D02*
D03*
X297000Y-28500D02*
D03*
D81*
X171500Y-86000D02*
D03*
X131500Y-55000D02*
D03*
X135292Y-53997D02*
D03*
X127792Y-54497D02*
D03*
D82*
X161500Y-105500D02*
D03*
X87500Y-22000D02*
D03*
M02*
