G04*
G04 #@! TF.GenerationSoftware,Altium Limited,Altium Designer,21.9.2 (33)*
G04*
G04 Layer_Color=32768*
%FSLAX25Y25*%
%MOIN*%
G70*
G04*
G04 #@! TF.SameCoordinates,9F12505F-C430-47E6-9CFF-433F7032CE6A*
G04*
G04*
G04 #@! TF.FilePolarity,Positive*
G04*
G01*
G75*
%ADD12C,0.00394*%
%ADD115C,0.00197*%
D12*
X22126Y-59087D02*
Y-44913D01*
X37874Y-59087D02*
Y-44913D01*
X22126D02*
X37874D01*
X22126Y-59087D02*
X37874D01*
X28032Y-52000D02*
X31969D01*
X30000Y-53969D02*
Y-50032D01*
X5413Y-72126D02*
X19587D01*
X5413Y-87874D02*
X19587D01*
Y-72126D01*
X5413Y-87874D02*
Y-72126D01*
X12500Y-81968D02*
Y-78031D01*
X10531Y-80000D02*
X14469D01*
X386913Y-36874D02*
X401087D01*
X386913Y-21126D02*
X401087D01*
X386913Y-36874D02*
Y-21126D01*
X401087Y-36874D02*
Y-21126D01*
X394000Y-30968D02*
Y-27031D01*
X392032Y-29000D02*
X395969D01*
X78000Y-29969D02*
Y-26032D01*
X76032Y-28000D02*
X79969D01*
X355532Y-20000D02*
X359469D01*
X357500Y-21969D02*
Y-18032D01*
X337413Y-121390D02*
X351587D01*
X337413Y-105642D02*
X351587D01*
X337413Y-121390D02*
Y-105642D01*
X351587Y-121390D02*
Y-105642D01*
X344500Y-115484D02*
Y-111547D01*
X342531Y-113516D02*
X346468D01*
X362531Y4500D02*
X366469D01*
X364500Y2531D02*
Y6469D01*
X310913Y-626D02*
X325087D01*
X310913Y-16374D02*
X325087D01*
Y-626D01*
X310913Y-16374D02*
Y-626D01*
X318000Y-10469D02*
Y-6532D01*
X316032Y-8500D02*
X319969D01*
D115*
X159095Y-46807D02*
X170905D01*
X159095Y-60193D02*
Y-46807D01*
X170905Y-60193D02*
Y-46807D01*
X159095Y-60193D02*
X170905D01*
X72685Y-34398D02*
X83315D01*
X72685Y-21602D02*
X83315D01*
X72685Y-34398D02*
Y-21602D01*
X83315Y-34398D02*
Y-21602D01*
X345295Y-32205D02*
Y-7795D01*
X369705Y-32205D02*
Y-7795D01*
X345295D02*
X369705D01*
X345295Y-32205D02*
X369705D01*
X370996Y-126D02*
Y9126D01*
X358004Y-126D02*
Y9126D01*
Y-126D02*
X370996D01*
X358004Y9126D02*
X370996D01*
M02*
