G04*
G04 #@! TF.GenerationSoftware,Altium Limited,Altium Designer,21.9.2 (33)*
G04*
G04 Layer_Physical_Order=1*
G04 Layer_Color=255*
%FSLAX25Y25*%
%MOIN*%
G70*
G04*
G04 #@! TF.SameCoordinates,234587DD-4A7B-46B4-830A-DC7AB76B998A*
G04*
G04*
G04 #@! TF.FilePolarity,Positive*
G04*
G01*
G75*
%ADD10C,0.02000*%
%ADD11C,0.01000*%
%ADD14C,0.00600*%
%ADD17R,0.09449X0.02992*%
%ADD18R,0.01100X0.05800*%
%ADD19R,0.05800X0.01100*%
%ADD20R,0.05512X0.09843*%
%ADD21R,0.03543X0.02756*%
%ADD22R,0.04331X0.02559*%
%ADD23R,0.04000X0.05000*%
%ADD24R,0.02756X0.03543*%
%ADD25R,0.04331X0.04724*%
%ADD26R,0.01575X0.05315*%
%ADD27R,0.03937X0.07480*%
%ADD28R,0.03937X0.04331*%
%ADD29R,0.03150X0.03150*%
%ADD30R,0.05512X0.02953*%
%ADD31R,0.05512X0.03543*%
%ADD32R,0.05512X0.08661*%
%ADD33R,0.05000X0.04000*%
%ADD34R,0.02559X0.04331*%
%ADD35R,0.07795X0.02087*%
%ADD36R,0.01378X0.03543*%
%ADD37R,0.04331X0.03937*%
%ADD39O,0.02756X0.00787*%
%ADD40O,0.00787X0.02756*%
%ADD41R,0.03543X0.01575*%
%ADD42R,0.08268X0.05512*%
%ADD43R,0.03150X0.07480*%
%ADD44R,0.07284X0.03937*%
%ADD45R,0.03937X0.07874*%
%ADD46R,0.05906X0.05906*%
%ADD72C,0.05000*%
%ADD85C,0.01200*%
%ADD86C,0.00800*%
%ADD87C,0.01500*%
%ADD88R,0.13386X0.13386*%
%ADD89C,0.04000*%
G04:AMPARAMS|DCode=90|XSize=59.06mil|YSize=74.8mil|CornerRadius=14.76mil|HoleSize=0mil|Usage=FLASHONLY|Rotation=180.000|XOffset=0mil|YOffset=0mil|HoleType=Round|Shape=RoundedRectangle|*
%AMROUNDEDRECTD90*
21,1,0.05906,0.04528,0,0,180.0*
21,1,0.02953,0.07480,0,0,180.0*
1,1,0.02953,-0.01476,0.02264*
1,1,0.02953,0.01476,0.02264*
1,1,0.02953,0.01476,-0.02264*
1,1,0.02953,-0.01476,-0.02264*
%
%ADD90ROUNDEDRECTD90*%
%ADD91C,0.05709*%
%ADD92C,0.17500*%
%ADD93C,0.25000*%
%ADD94C,0.05906*%
%ADD95R,0.05906X0.05906*%
%ADD96C,0.01800*%
D10*
X103822Y3000D02*
G03*
X102418Y2418I6J-2000D01*
G01*
X12494Y-1828D02*
G03*
X11090Y-2410I6J-2000D01*
G01*
X103822Y3000D02*
X103828Y3000D01*
X102418Y2418D02*
X102418Y2418D01*
X96000Y-4000D02*
X102418Y2418D01*
X12494Y-1828D02*
X12500Y-1828D01*
X11089Y-2410D02*
X11090Y-2410D01*
X-7500Y-21000D02*
X11089Y-2410D01*
X12500Y-1828D02*
X57328D01*
X-7500Y-51000D02*
Y-21000D01*
Y-53000D02*
Y-51000D01*
X4740Y-74622D02*
Y-70345D01*
X-7500Y-68828D02*
X-6328Y-70000D01*
X4395D02*
X4740Y-70345D01*
X-7500Y-68828D02*
Y-53000D01*
X-6328Y-70000D02*
X4395D01*
X103828Y3000D02*
X382500D01*
X4559Y-75000D02*
X4740Y-75378D01*
X4559Y-75000D02*
X4740Y-74622D01*
Y-82276D02*
Y-75378D01*
X57328Y-1828D02*
X58500Y-3000D01*
Y-9000D02*
Y-3000D01*
X82000Y-9000D02*
X85500D01*
X58500D02*
X76500D01*
X82000D01*
X85500D02*
X90500Y-4000D01*
X96000D01*
X382500Y3000D02*
X392500Y-7000D01*
X330500Y-139500D02*
X342500D01*
X329441Y-138441D02*
X330500Y-139500D01*
X342500D02*
X392500Y-89500D01*
Y-52000D01*
Y-7000D01*
D11*
X163086Y-18500D02*
G03*
X163793Y-18207I0J1000D01*
G01*
X63941Y-22851D02*
G03*
X63650Y-22150I-1000J-5D01*
G01*
X50788Y-9289D02*
G03*
X50086Y-9000I-703J-711D01*
G01*
X50789Y-9289D02*
G03*
X50788Y-9289I-704J-711D01*
G01*
X56500Y-32253D02*
G03*
X56207Y-31546I-1000J0D01*
G01*
X56500Y-38500D02*
G03*
X62000Y-44000I5500J0D01*
G01*
X204000Y-94153D02*
X205469Y-94500D01*
X211500D01*
X144000Y-18500D02*
X163086D01*
X163793Y-18207D02*
X168000Y-14000D01*
X90500Y-132500D02*
X90600Y-132600D01*
X50789Y-9289D02*
X63650Y-22150D01*
X50788Y-9289D02*
X50789Y-9289D01*
X63941Y-22851D02*
X63941Y-22855D01*
X33839Y-30000D02*
Y-24661D01*
X250500Y-94153D02*
X282500D01*
X66500Y-39240D02*
X69059D01*
X73000D01*
X2250Y-97750D02*
X3500Y-99000D01*
X1000Y-96500D02*
X2250Y-97750D01*
X-559Y-77441D02*
Y-75000D01*
Y-77441D02*
X1000Y-79000D01*
Y-82276D02*
Y-79000D01*
X3500Y-99000D02*
X19000D01*
X1000Y-96500D02*
Y-82276D01*
X46575Y-124811D02*
X47650Y-128051D01*
X96500Y-8500D02*
X107110D01*
X66500Y-31260D02*
Y-28000D01*
Y-31760D02*
Y-31260D01*
X69059Y-43500D02*
Y-39240D01*
Y-46500D02*
Y-43500D01*
X62000Y-44000D02*
X63941D01*
X51161Y-26500D02*
X56207Y-31546D01*
X56500Y-38500D02*
Y-32253D01*
X63941Y-57441D02*
Y-44000D01*
X33839Y-24661D02*
X48500Y-10000D01*
X63941Y-31260D02*
Y-22855D01*
X48500Y-9000D02*
X50086D01*
X66500Y-28000D02*
X75000D01*
X63941Y-57441D02*
X76500Y-70000D01*
X79500D01*
X69059Y-46500D02*
X76153D01*
X73000Y-39240D02*
Y-32000D01*
X76000Y-29000D01*
X76091Y-21559D02*
X82000D01*
X76000Y-29000D02*
Y-21650D01*
X76500Y-9500D02*
Y-9000D01*
X76000Y-16350D02*
Y-9500D01*
X83846Y-45500D02*
Y-39500D01*
X75000Y-28000D02*
X76000Y-29000D01*
X310240Y-28181D02*
Y-20224D01*
X310500Y-28441D02*
X317909D01*
X302760Y-28181D02*
Y-20224D01*
X342618Y-5059D02*
X348669D01*
X342059Y-9500D02*
Y-4500D01*
X318000Y-33650D02*
X321150D01*
X306500Y-10776D02*
Y-3559D01*
X318000Y-28350D02*
X327043D01*
X321150Y-33650D02*
X326000Y-38500D01*
D14*
X155324Y-93324D02*
G03*
X155748Y-93500I424J424D01*
G01*
X156119Y-89050D02*
G03*
X155707Y-89240I26J-599D01*
G01*
X163398Y-88787D02*
G03*
X163380Y-88788I0J-600D01*
G01*
X158241Y-72214D02*
G03*
X157707Y-73662I1259J-1287D01*
G01*
X184492Y-47000D02*
G03*
X183651Y-47348I5J-1200D01*
G01*
X183645Y-47355D02*
G03*
X183651Y-47348I-420J429D01*
G01*
X158297Y-80190D02*
G03*
X158293Y-80138I-1797J-110D01*
G01*
X149352Y-99900D02*
G03*
X149774Y-99726I0J600D01*
G01*
X146089Y-96000D02*
G03*
X146108Y-96000I20J600D01*
G01*
X192752Y-88500D02*
G03*
X193176Y-88324I0J600D01*
G01*
X152176Y-90176D02*
G03*
X151751Y-90000I-424J-424D01*
G01*
X124000Y-57752D02*
G03*
X124174Y-58175I600J0D01*
G01*
X125727Y-59727D02*
G03*
X125726Y-59726I-427J-422D01*
G01*
X125900Y-60149D02*
G03*
X125727Y-59727I-600J0D01*
G01*
X150010Y-85515D02*
G03*
X150008Y-85514I-373J-470D01*
G01*
X120536Y-55228D02*
G03*
X120375Y-54926I-588J-120D01*
G01*
X91319Y-103976D02*
G03*
X91635Y-103888I3J600D01*
G01*
X91948Y-103800D02*
G03*
X91635Y-103888I0J-600D01*
G01*
X88828Y-99900D02*
G03*
X88500Y-100000I4J-600D01*
G01*
X109938Y-120077D02*
G03*
X110222Y-120204I874J1573D01*
G01*
X111009Y-118099D02*
G03*
X110953Y-118196I490J-347D01*
G01*
X109938Y-120077D02*
G03*
X109644Y-120000I-294J-523D01*
G01*
X109411Y-117192D02*
G03*
X109897Y-116654I-112J589D01*
G01*
X111866Y-116934D02*
G03*
X111982Y-116579I-484J354D01*
G01*
X98000Y-119400D02*
G03*
X98600Y-120000I600J0D01*
G01*
X90329Y-139676D02*
G03*
X89905Y-139500I-424J-424D01*
G01*
X88832Y-133336D02*
G03*
X88831Y-133336I0J-600D01*
G01*
X85408Y-133337D02*
G03*
X85206Y-133373I4J-600D01*
G01*
X84752Y-133500D02*
G03*
X84958Y-133464I0J600D01*
G01*
X110564Y-53564D02*
G03*
X110552Y-53552I-422J-426D01*
G01*
X89051Y-76200D02*
G03*
X88595Y-76410I0J-600D01*
G01*
X123499Y-119852D02*
G03*
X123500Y-119852I-422J427D01*
G01*
X121658Y-123545D02*
G03*
X121618Y-123757I560J-216D01*
G01*
X121749Y-123307D02*
G03*
X121790Y-123095I-560J216D01*
G01*
X121963Y-121388D02*
G03*
X121790Y-121810I426J-422D01*
G01*
X117204Y-118703D02*
G03*
X117047Y-118412I-586J-128D01*
G01*
X116105Y-120556D02*
G03*
X116008Y-120275I-598J-49D01*
G01*
X116304Y-123015D02*
G03*
X116303Y-122968I-600J0D01*
G01*
X114100Y-117203D02*
G03*
X114199Y-117533I600J0D01*
G01*
X182000Y-101000D02*
Y-93823D01*
X181677Y-93500D02*
X182000Y-93823D01*
X183177Y-93500D02*
X184288Y-94611D01*
X184290Y-94613D01*
X159500Y-73500D02*
X166323D01*
X155748Y-93500D02*
X166323D01*
X152176Y-90176D02*
X155324Y-93324D01*
X156119Y-89050D02*
X163380Y-88788D01*
X155706Y-89241D02*
X155707Y-89240D01*
X155000Y-90000D02*
X155706Y-89241D01*
X157707Y-73662D02*
X158293Y-80138D01*
X158241Y-72214D02*
X183645Y-47355D01*
X158297Y-80190D02*
X158500Y-83500D01*
X154354Y-98646D02*
X156000D01*
X150854D02*
X154354D01*
X149774Y-99726D02*
X150854Y-98646D01*
X143500Y-99900D02*
X149352D01*
X156000Y-98646D02*
X158000D01*
X143500Y-95900D02*
X146089Y-96000D01*
X146108Y-96000D02*
X151500Y-96000D01*
X183177Y-88500D02*
X192752D01*
X193176Y-88324D02*
X198000Y-83500D01*
X183177D02*
X198000D01*
X148688Y-90000D02*
X151751Y-90000D01*
X143500Y-90000D02*
X148688D01*
X25697Y-58466D02*
X25788Y-58375D01*
X20488Y-43966D02*
X20579Y-44057D01*
X13638Y-43966D02*
X20488D01*
X11863Y-50726D02*
X20319D01*
X20579Y-50466D01*
Y-44057D01*
X20339Y-58206D02*
X20579Y-57966D01*
X11863Y-58206D02*
X20339D01*
X25788Y-58375D02*
Y-54466D01*
Y-43966D01*
X1268Y-58466D02*
X2154D01*
X2414Y-58206D01*
Y-69423D02*
Y-58206D01*
X-4862Y-50907D02*
X-4681Y-50726D01*
X-2213Y-56025D02*
X-654Y-54466D01*
X2414D01*
X4740Y-70345D02*
X5240Y-69846D01*
X125900Y-68500D02*
Y-60149D01*
X124000Y-57752D02*
Y-17500D01*
X125726Y-59726D02*
X125727Y-59727D01*
X124174Y-58175D02*
X125726Y-59726D01*
X150010Y-85515D02*
X151500Y-86700D01*
X149845Y-85385D02*
X150008Y-85514D01*
X148385Y-85385D02*
X149845D01*
X120536Y-55228D02*
X121000Y-57500D01*
X120372Y-54924D02*
X120375Y-54926D01*
X108671Y-43223D02*
X120372Y-54924D01*
X90000Y-11500D02*
X92000Y-13500D01*
Y-17252D02*
Y-13500D01*
Y-42500D02*
X92723Y-43223D01*
X149800Y-112300D02*
Y-106151D01*
X149449Y-105800D02*
X149800Y-106151D01*
X143500Y-105800D02*
X149449D01*
X85800Y-101800D02*
X98500D01*
X83000Y-99000D02*
X85800Y-101800D01*
X91635Y-103888D02*
X91635Y-103888D01*
X83000Y-104000D02*
X91319Y-103976D01*
X87300Y-92000D02*
X98500D01*
X85500Y-80000D02*
X88595Y-76410D01*
X92723Y-43223D02*
X108671D01*
X124000Y-17500D02*
X133000Y-8500D01*
X128000Y-62000D02*
Y-19000D01*
X135800Y-61200D02*
X139847Y-57153D01*
X135800Y-68500D02*
Y-61200D01*
X139847Y-57153D02*
X150744D01*
X127950Y-62050D02*
X128000Y-62000D01*
X133000Y-58954D02*
Y-13500D01*
Y-8500D02*
X144000D01*
X127950Y-68450D02*
Y-62050D01*
X133800Y-68500D02*
Y-61200D01*
X131700Y-60254D02*
X133000Y-58954D01*
X131700Y-63027D02*
X131800Y-63127D01*
X131700Y-63027D02*
Y-60254D01*
X131800Y-68500D02*
Y-63127D01*
X129950Y-68450D02*
Y-58550D01*
X130000Y-58500D01*
X129900Y-68500D02*
X129950Y-68450D01*
X92000Y-42500D02*
Y-38846D01*
X147950Y-97950D02*
X148000Y-98000D01*
X143500Y-97900D02*
X143550Y-97950D01*
X147950D01*
X101000Y-13500D02*
X107110D01*
X91948Y-103800D02*
X98500D01*
X79500Y-80000D02*
X92000Y-67500D01*
Y-50000D01*
X87500Y-45500D02*
X92000Y-50000D01*
X43319Y-94181D02*
X55400Y-82100D01*
X98500D01*
X184492Y-47000D02*
X184497Y-47000D01*
X88828Y-99900D02*
X98500D01*
X88828D02*
X88828D01*
X88500Y-100000D02*
X88500Y-100000D01*
X111382Y-125382D02*
Y-121364D01*
X111009Y-118099D02*
X111012Y-118094D01*
X109644Y-120000D02*
Y-120000D01*
X110812Y-118503D02*
X110953Y-118196D01*
X104000Y-118200D02*
X109411Y-117192D01*
X110222Y-120204D02*
X111382Y-121364D01*
X111012Y-118094D02*
X111384Y-117588D01*
X109950Y-116100D02*
X110200Y-113500D01*
X109897Y-116654D02*
X109950Y-116100D01*
X98600Y-120000D02*
X109644D01*
X111982Y-116100D02*
X112100Y-113500D01*
X111384Y-117588D02*
X111866Y-116934D01*
X111982Y-116579D02*
Y-116100D01*
X98000Y-119400D02*
Y-114000D01*
X-18000Y-63500D02*
X-7500Y-53000D01*
X-18000Y-108500D02*
Y-63500D01*
Y-108500D02*
X4706Y-131206D01*
X9206D02*
X20912Y-142912D01*
X4706Y-131206D02*
X9206D01*
X20912Y-142912D02*
X94737D01*
X96500Y-141148D01*
Y-124079D01*
X94961Y-122539D02*
X96500Y-124079D01*
X90000Y-122539D02*
X94961D01*
X90000Y-112500D02*
X96500D01*
X98000Y-114000D01*
X141000Y-140000D02*
Y-136346D01*
X137654Y-129654D02*
X141000D01*
X129900Y-121900D02*
X137654Y-129654D01*
X129900Y-121900D02*
Y-113500D01*
X90329Y-139676D02*
X90500Y-139847D01*
X54500Y-139500D02*
X89905D01*
X55654Y-138347D02*
X56311D01*
X55405Y-138594D02*
X55654Y-138347D01*
X88832Y-133336D02*
X90500Y-131653D01*
X85408Y-133337D02*
X88569D01*
X88831Y-133336D01*
X84958Y-133464D02*
X85206Y-133373D01*
X65000Y-133500D02*
X84752D01*
X156500Y-123000D02*
X157000Y-122500D01*
X203149D01*
X156500Y-119500D02*
X229000D01*
X241000Y-131500D01*
X203149Y-122500D02*
X203500Y-122852D01*
Y-131500D02*
Y-122852D01*
X241000Y-131500D02*
X251000D01*
X99000Y-66000D02*
X101000Y-64000D01*
X105500D01*
X106200Y-64700D01*
Y-68500D02*
Y-64700D01*
X103500Y-61500D02*
X106500D01*
X108200Y-63200D01*
Y-68500D02*
Y-63200D01*
X184497Y-47000D02*
X294000D01*
X147000Y-84000D02*
X148385Y-85385D01*
X143600Y-84000D02*
X147000D01*
X143500Y-84100D02*
X143600Y-84000D01*
X148803D02*
X154500D01*
X157000Y-86500D01*
X146902Y-82099D02*
X148803Y-84000D01*
X146950Y-80450D02*
X149000Y-82500D01*
X154300D01*
X143501Y-82099D02*
X146902D01*
X143500Y-82100D02*
X143501Y-82099D01*
X143500Y-78200D02*
X147246D01*
X149523Y-80477D01*
X154300Y-82500D02*
X156500Y-80300D01*
X143750Y-80450D02*
X146950D01*
X143500Y-80200D02*
X143750Y-80450D01*
X187500Y-9000D02*
X191000D01*
X185653Y-7153D02*
X187500Y-9000D01*
X185653Y-7153D02*
Y-3500D01*
X176847D02*
X185653D01*
X192347D02*
X198000D01*
X165000D02*
X170153D01*
X144000D02*
X151000D01*
X110564Y-53564D02*
X110566Y-53566D01*
X112100Y-55100D01*
X109032Y-52129D02*
X110552Y-53552D01*
X112100Y-68500D02*
Y-55100D01*
X106500Y-57000D02*
X110200Y-60700D01*
Y-68500D02*
Y-60700D01*
X110626Y-47723D02*
X114100Y-51197D01*
X90667Y-80033D02*
X98333D01*
X90500Y-79866D02*
X90667Y-80033D01*
X98333D02*
X98500Y-80200D01*
X93100Y-78100D02*
X98400D01*
X93000Y-78000D02*
X93100Y-78100D01*
X98400D02*
X98500Y-78200D01*
X114100Y-68500D02*
Y-51197D01*
X127900Y-68500D02*
X127950Y-68450D01*
X156000Y-56898D02*
Y-52000D01*
Y-56898D02*
X156256Y-57153D01*
X146000Y-64000D02*
X150591D01*
X150744Y-63846D01*
X156256Y-74744D02*
Y-63846D01*
X154800Y-76200D02*
X156256Y-74744D01*
X143500Y-76200D02*
X154800D01*
X151854Y-104354D02*
X158000D01*
X149300Y-101800D02*
X151854Y-104354D01*
X143500Y-101800D02*
X149300D01*
X93000Y-98000D02*
X93050Y-97950D01*
X98450D02*
X98500Y-97900D01*
X93050Y-97950D02*
X98450D01*
X89051Y-76200D02*
X98500D01*
X89051Y-76200D02*
X89051Y-76200D01*
X64972Y-128051D02*
X65000Y-128079D01*
Y-133500D02*
Y-128079D01*
X47500Y-128201D02*
X47650Y-128051D01*
X76600Y-95900D02*
X98500D01*
X60642Y-111858D02*
X76600Y-95900D01*
X60642Y-128051D02*
Y-111858D01*
X69500Y-94000D02*
X98500D01*
X51980Y-111520D02*
X69500Y-94000D01*
X51980Y-128051D02*
Y-111520D01*
X43319Y-128051D02*
Y-94181D01*
X123500Y-119852D02*
X123503Y-119849D01*
X123852Y-119500D01*
X121618Y-125382D02*
Y-123757D01*
X121790Y-123095D02*
Y-121810D01*
X121963Y-121388D02*
X123499Y-119852D01*
X121658Y-123545D02*
X121749Y-123307D01*
X123852Y-119500D02*
X126500D01*
X121184Y-119000D02*
X121500D01*
X120069Y-117885D02*
X121184Y-119000D01*
X135150Y-118650D02*
X136500Y-120000D01*
X133800Y-117300D02*
X135150Y-118650D01*
X135800Y-118000D02*
Y-113500D01*
X135150Y-118650D02*
X135800Y-118000D01*
X136500Y-120000D02*
X140000D01*
X133800Y-117300D02*
Y-113500D01*
X131800Y-117975D02*
X132500Y-118675D01*
Y-119000D02*
Y-118675D01*
X131800Y-117975D02*
Y-113500D01*
X118885Y-117885D02*
X120069D01*
X118000Y-117000D02*
X118885Y-117885D01*
X118000Y-117000D02*
Y-113500D01*
X117204Y-118703D02*
X117241Y-118876D01*
X116105Y-120556D02*
X116302Y-122968D01*
X114199Y-117533D02*
X116008Y-120275D01*
X116304Y-123024D02*
Y-123015D01*
X117044Y-118409D02*
X117047Y-118412D01*
X116304Y-123024D02*
X116500Y-125382D01*
X116100Y-117464D02*
X117044Y-118409D01*
X116100Y-117464D02*
Y-113500D01*
X114100Y-117203D02*
Y-113500D01*
X113941Y-125382D02*
X113970Y-125352D01*
Y-120529D01*
X114000Y-120500D01*
X-6724Y-82276D02*
X-2740D01*
X-11000Y-78000D02*
X-6724Y-82276D01*
X-9500Y-99059D02*
X941D01*
X2250Y-97750D01*
X-4724Y-91724D02*
X-2740D01*
X-6941Y-93941D02*
X-4724Y-91724D01*
X-9500Y-93941D02*
X-6941D01*
X241500Y-113500D02*
X252500Y-124500D01*
X257000D01*
X241500Y-113500D02*
Y-74000D01*
X221500Y-54000D02*
X241500Y-74000D01*
X83846Y-45500D02*
X87500D01*
D17*
X181677Y-73500D02*
D03*
X166323D02*
D03*
X181677Y-78500D02*
D03*
X166323D02*
D03*
X181677Y-83500D02*
D03*
X166323D02*
D03*
X181677Y-88500D02*
D03*
X166323D02*
D03*
X181677Y-93500D02*
D03*
X166323D02*
D03*
D18*
X106200Y-113500D02*
D03*
X108200D02*
D03*
X110200D02*
D03*
X112100D02*
D03*
X114100D02*
D03*
X116100D02*
D03*
X118000D02*
D03*
X120000D02*
D03*
X122000D02*
D03*
X124000D02*
D03*
X125900D02*
D03*
X127900D02*
D03*
X129900D02*
D03*
X131800D02*
D03*
X133800D02*
D03*
X135800D02*
D03*
Y-68500D02*
D03*
X133800D02*
D03*
X131800D02*
D03*
X129900D02*
D03*
X127900D02*
D03*
X125900D02*
D03*
X124000D02*
D03*
X122000D02*
D03*
X120000D02*
D03*
X118000D02*
D03*
X116100D02*
D03*
X114100D02*
D03*
X112100D02*
D03*
X110200D02*
D03*
X108200D02*
D03*
X106200D02*
D03*
D19*
X143500Y-105800D02*
D03*
Y-103800D02*
D03*
Y-101800D02*
D03*
Y-99900D02*
D03*
Y-97900D02*
D03*
Y-95900D02*
D03*
Y-94000D02*
D03*
Y-92000D02*
D03*
Y-90000D02*
D03*
Y-88000D02*
D03*
Y-86100D02*
D03*
Y-84100D02*
D03*
Y-82100D02*
D03*
Y-80200D02*
D03*
Y-78200D02*
D03*
Y-76200D02*
D03*
X98500D02*
D03*
Y-78200D02*
D03*
Y-80200D02*
D03*
Y-82100D02*
D03*
Y-84100D02*
D03*
Y-86100D02*
D03*
Y-88000D02*
D03*
Y-90000D02*
D03*
Y-92000D02*
D03*
Y-94000D02*
D03*
Y-95900D02*
D03*
Y-97900D02*
D03*
Y-99900D02*
D03*
Y-101800D02*
D03*
Y-103800D02*
D03*
Y-105800D02*
D03*
D20*
X51161Y-30000D02*
D03*
X33839D02*
D03*
D21*
X25697Y-58466D02*
D03*
X20579D02*
D03*
X25559Y-51000D02*
D03*
X20441D02*
D03*
X4559Y-75000D02*
D03*
X-559D02*
D03*
X305941Y-3000D02*
D03*
X311059D02*
D03*
X69059Y-43500D02*
D03*
X63941D02*
D03*
X342059Y-9500D02*
D03*
X336941D02*
D03*
X377441Y-47000D02*
D03*
X382559D02*
D03*
X329441Y-133500D02*
D03*
X334559D02*
D03*
X336559Y-46000D02*
D03*
X331441D02*
D03*
X342059Y-4500D02*
D03*
X336941D02*
D03*
X363941Y-5000D02*
D03*
X369059D02*
D03*
D22*
X11863Y-50726D02*
D03*
Y-58206D02*
D03*
X2414D02*
D03*
Y-54466D02*
D03*
Y-50726D02*
D03*
D23*
X25650Y-44500D02*
D03*
X20350D02*
D03*
D24*
X-3500Y-56059D02*
D03*
Y-50941D02*
D03*
X-9500Y-93941D02*
D03*
Y-99059D02*
D03*
X18000Y-92059D02*
D03*
Y-86941D02*
D03*
X363000Y-29441D02*
D03*
Y-34559D02*
D03*
X378500Y-23559D02*
D03*
Y-18441D02*
D03*
X386000Y-24559D02*
D03*
Y-19441D02*
D03*
X329000Y-108075D02*
D03*
Y-102957D02*
D03*
X337000Y-108075D02*
D03*
Y-102957D02*
D03*
X310500Y-28441D02*
D03*
Y-33559D02*
D03*
X302500Y-28441D02*
D03*
Y-33559D02*
D03*
X326500Y-27441D02*
D03*
Y-32559D02*
D03*
X349000Y-48559D02*
D03*
Y-43441D02*
D03*
X82000Y-16441D02*
D03*
Y-21559D02*
D03*
D25*
X156256Y-57153D02*
D03*
Y-63846D02*
D03*
X150744D02*
D03*
Y-57153D02*
D03*
D26*
X111382Y-125382D02*
D03*
X113941D02*
D03*
X116500D02*
D03*
X119059D02*
D03*
X121618D02*
D03*
D27*
X111579Y-136012D02*
D03*
X121421D02*
D03*
D28*
X92000Y-38846D02*
D03*
Y-32153D02*
D03*
X141000Y-129654D02*
D03*
Y-136346D02*
D03*
X90500Y-139847D02*
D03*
Y-133153D02*
D03*
X250500Y-100847D02*
D03*
Y-94153D02*
D03*
X204000Y-100847D02*
D03*
Y-94153D02*
D03*
X282500Y-100847D02*
D03*
Y-94153D02*
D03*
D29*
X92000Y-17252D02*
D03*
Y-23748D02*
D03*
D30*
X156000Y-104354D02*
D03*
Y-98646D02*
D03*
D31*
X90000Y-112500D02*
D03*
D32*
Y-122539D02*
D03*
D33*
X12000Y-92650D02*
D03*
Y-87350D02*
D03*
X322500Y-108166D02*
D03*
Y-102866D02*
D03*
X372000Y-23650D02*
D03*
Y-18350D02*
D03*
X318000Y-28350D02*
D03*
Y-33650D02*
D03*
X76000Y-16350D02*
D03*
Y-21650D02*
D03*
D34*
X4740Y-82276D02*
D03*
X1000D02*
D03*
X-2740D02*
D03*
Y-91724D02*
D03*
X4740D02*
D03*
X378760Y-40724D02*
D03*
X382500D02*
D03*
X386240D02*
D03*
Y-31276D02*
D03*
X378760D02*
D03*
X329260Y-125240D02*
D03*
X333000D02*
D03*
X336740D02*
D03*
Y-115791D02*
D03*
X329260D02*
D03*
X310240Y-10776D02*
D03*
X306500D02*
D03*
X302760D02*
D03*
Y-20224D02*
D03*
X310240D02*
D03*
D35*
X107110Y-3500D02*
D03*
Y-8500D02*
D03*
Y-13500D02*
D03*
Y-18500D02*
D03*
Y-23500D02*
D03*
Y-28500D02*
D03*
Y-33500D02*
D03*
Y-38500D02*
D03*
X144000Y-3500D02*
D03*
Y-8500D02*
D03*
Y-13500D02*
D03*
Y-18500D02*
D03*
Y-23500D02*
D03*
Y-28500D02*
D03*
Y-33500D02*
D03*
Y-38500D02*
D03*
D36*
X63941Y-38740D02*
D03*
X66500D02*
D03*
X69059D02*
D03*
Y-31260D02*
D03*
X66500D02*
D03*
X63941D02*
D03*
D37*
X192347Y-3500D02*
D03*
X185653D02*
D03*
X170153D02*
D03*
X176847D02*
D03*
X83846Y-39500D02*
D03*
X77153D02*
D03*
X77153Y-45500D02*
D03*
X83846D02*
D03*
D39*
X336157Y-20110D02*
D03*
Y-22079D02*
D03*
Y-24047D02*
D03*
Y-26016D02*
D03*
Y-27984D02*
D03*
Y-29953D02*
D03*
Y-31921D02*
D03*
Y-33890D02*
D03*
X355842D02*
D03*
Y-31921D02*
D03*
Y-29953D02*
D03*
Y-27984D02*
D03*
Y-26016D02*
D03*
Y-24047D02*
D03*
Y-22079D02*
D03*
Y-20110D02*
D03*
D40*
X339110Y-36843D02*
D03*
X341079D02*
D03*
X343047D02*
D03*
X345016D02*
D03*
X346984D02*
D03*
X348953D02*
D03*
X350921D02*
D03*
X352890D02*
D03*
Y-17157D02*
D03*
X350921D02*
D03*
X348953D02*
D03*
X346984D02*
D03*
X345016D02*
D03*
X343047D02*
D03*
X341079D02*
D03*
X339110D02*
D03*
D41*
X357331Y-5059D02*
D03*
Y-2500D02*
D03*
Y59D02*
D03*
X348669D02*
D03*
Y-5059D02*
D03*
D42*
X251000Y-131500D02*
D03*
Y-113784D02*
D03*
X215173Y-131500D02*
D03*
Y-113784D02*
D03*
X203500Y-131500D02*
D03*
Y-113784D02*
D03*
X167673Y-131500D02*
D03*
Y-113784D02*
D03*
X298500Y-131500D02*
D03*
Y-113784D02*
D03*
X262673Y-131500D02*
D03*
Y-113784D02*
D03*
D43*
X38988Y-128051D02*
D03*
X43319D02*
D03*
X47650D02*
D03*
X51980D02*
D03*
X56311D02*
D03*
X60642D02*
D03*
X64972D02*
D03*
X69303D02*
D03*
D44*
X32291Y-91878D02*
D03*
D45*
X79500Y-88532D02*
D03*
D46*
X78500Y-127000D02*
D03*
X32000Y-127500D02*
D03*
X309000Y-63000D02*
D03*
X79500Y-60000D02*
D03*
D72*
X150000Y-112500D02*
D03*
X24500Y-87000D02*
D03*
X-12000Y-77500D02*
D03*
X19000Y-99000D02*
D03*
X76000Y-29000D02*
D03*
X327500Y-16000D02*
D03*
X331500Y-4500D02*
D03*
X326000Y-38500D02*
D03*
D85*
X78557Y-34606D02*
G03*
X86000Y-25511I-1806J9071D01*
G01*
X78557Y-34606D02*
G03*
X77783Y-34885I558J-2757D01*
G01*
D02*
G03*
X77153Y-35936I570J-1056D01*
G01*
X86000Y-20101D02*
G03*
X82000Y-16441I-3668J7D01*
G01*
X86000Y-20111D02*
G03*
X86000Y-20101I-1200J0D01*
G01*
X82000Y-15225D02*
G03*
X82001Y-15269I1200J8D01*
G01*
X86000Y-25506D02*
Y-20111D01*
X86000Y-25511D02*
X86000Y-25506D01*
X77153Y-39500D02*
Y-35936D01*
X86000Y-20101D02*
X86000Y-20101D01*
X357331Y-5059D02*
X364382D01*
X82001Y-15269D02*
X82778D01*
X82000Y-16441D02*
X82778Y-15269D01*
X82000Y-15225D02*
X82000Y-9000D01*
X310240Y-10776D02*
Y-3319D01*
X306500Y-33559D02*
X310500D01*
X317909D01*
X302500D02*
X306500D01*
X301500Y-70500D02*
X309000Y-63000D01*
X301500Y-91500D02*
Y-70500D01*
Y-91500D02*
X318335Y-108335D01*
X329260D01*
Y-132217D02*
Y-125240D01*
X322500Y-102866D02*
Y-96500D01*
X309000Y-83000D02*
X322500Y-96500D01*
X382500Y-18441D02*
Y-13500D01*
X326500Y-38000D02*
Y-32559D01*
X363941Y-5000D02*
Y2059D01*
X298724Y-10776D02*
X302760D01*
X294000Y-15500D02*
X298724Y-10776D01*
X294000Y-47000D02*
Y-15500D01*
X357331Y59D02*
X361441D01*
X275500Y-35500D02*
X284500D01*
D86*
X169827Y1000D02*
G03*
X169267Y767I4J-800D01*
G01*
X161669Y-6500D02*
G03*
X162234Y-6266I0J800D01*
G01*
X149186Y-6500D02*
G03*
X148620Y-6734I0J-800D01*
G01*
X169827Y1000D02*
X169831Y1000D01*
X169267Y767D02*
X169267Y767D01*
X165000Y-3500D02*
X169267Y767D01*
X162234Y-6266D02*
X165000Y-3500D01*
X149186Y-6500D02*
X161669Y-6500D01*
X249000Y1000D02*
X255000Y-5000D01*
X169831Y1000D02*
X249000D01*
X345016Y-11984D02*
X347000Y-10000D01*
X92000Y-32153D02*
Y-23748D01*
X149800Y-112300D02*
X150000Y-112500D01*
X177500Y-14000D02*
X243000D01*
X260000Y-31000D01*
X18224Y-92059D02*
X18589D01*
X12000Y-91724D02*
X18000D01*
X18224D01*
X149500Y-133000D02*
Y-125000D01*
Y-133000D02*
X154500Y-138000D01*
X146854Y-8500D02*
X148620Y-6734D01*
X350921Y-14079D02*
X355500Y-9500D01*
X18000Y-92059D02*
X18224D01*
X4740Y-91724D02*
X12000D01*
X18059Y-87000D02*
X24500D01*
X18000Y-86941D02*
X18059Y-87000D01*
X17591Y-87350D02*
X18000Y-86941D01*
X12000Y-87350D02*
X17591D01*
X18269Y-91765D02*
X18589Y-92059D01*
X18224Y-91724D02*
X18269Y-91765D01*
X-11500Y-77500D02*
X-11000Y-78000D01*
X-12000Y-77500D02*
X-11500D01*
X153500Y-9000D02*
X172500D01*
X177500Y-14000D01*
X149000Y-13500D02*
X153500Y-9000D01*
X144000Y-13500D02*
X149000D01*
X144000Y-8500D02*
X146854D01*
X386240Y-45469D02*
X387500Y-46729D01*
Y-47000D02*
Y-46729D01*
X386240Y-45469D02*
Y-40724D01*
X63941Y-43500D02*
Y-38740D01*
X48500Y-10000D02*
Y-9000D01*
X352890Y-17157D02*
Y-15110D01*
X356000Y-12000D01*
X350921Y-17157D02*
Y-14079D01*
X348953Y-17157D02*
Y-11547D01*
X345016Y-17157D02*
Y-11984D01*
X355842Y-20110D02*
X360390D01*
X355842Y-22079D02*
X361921D01*
X355842Y-26016D02*
X362984D01*
X360390Y-20110D02*
X361500Y-19000D01*
Y-16500D01*
X361921Y-22079D02*
X364500Y-19500D01*
X348953Y-11547D02*
X350500Y-10000D01*
X343047Y-17157D02*
Y-10488D01*
X341079Y-17157D02*
Y-13579D01*
X339110Y-17157D02*
Y-14610D01*
X336941Y-12441D02*
X339110Y-14610D01*
X339941Y-12441D02*
X341079Y-13579D01*
X336941Y-12441D02*
X339941D01*
X331500Y-4500D02*
X336941D01*
Y-12441D02*
Y-9500D01*
Y-4500D01*
X356953Y-2122D02*
X357331Y-2500D01*
X333878Y-2122D02*
X356953D01*
X331500Y-4500D02*
X333878Y-2122D01*
X369059Y-5000D02*
X373500D01*
X346984Y-40484D02*
Y-36843D01*
X348953Y-43394D02*
Y-36843D01*
X350921Y-38921D02*
Y-36843D01*
Y-38921D02*
X353500Y-41500D01*
X344516Y-40484D02*
X346984D01*
X343500Y-41500D02*
X344516Y-40484D01*
X343500Y-44500D02*
Y-41500D01*
X353500Y-45000D02*
Y-41500D01*
X309000Y-73000D02*
X336500D01*
X349000Y-60500D01*
Y-48559D01*
X332457Y-102957D02*
X333000Y-103500D01*
X322500Y-102866D02*
X322591Y-102957D01*
X329000D01*
X332457D01*
X337000D01*
X336740Y-115791D02*
Y-108335D01*
X329260Y-115791D02*
Y-108335D01*
X334559Y-133500D02*
Y-130059D01*
X333000Y-128500D02*
X334559Y-130059D01*
X333000Y-128500D02*
Y-125240D01*
X382500Y-46941D02*
Y-40724D01*
X378760Y-45681D02*
Y-40724D01*
X377441Y-47000D02*
X378760Y-45681D01*
Y-31276D02*
Y-23819D01*
X378591Y-23650D02*
X378760Y-23819D01*
X371000Y-24650D02*
X372000Y-23650D01*
X371000Y-27000D02*
Y-24650D01*
X368559Y-29441D02*
X371000Y-27000D01*
X363000Y-29441D02*
X368559D01*
X372000Y-23650D02*
X378591D01*
X355842Y-27984D02*
X361543D01*
X363000Y-29441D01*
Y-34559D02*
X367941D01*
X372091Y-18441D02*
X378500D01*
X372000Y-18350D02*
X372091Y-18441D01*
X378500D02*
X382500D01*
X386240Y-31276D02*
Y-24799D01*
X382500Y-18441D02*
X385000D01*
X377441Y-51441D02*
Y-47000D01*
Y-51441D02*
X391941D01*
X392500Y-52000D01*
X341079Y-39421D02*
Y-36843D01*
X336559Y-43941D02*
X341079Y-39421D01*
X336559Y-46000D02*
Y-43941D01*
X331610Y-20110D02*
X336157D01*
X327500Y-16000D02*
X331610Y-20110D01*
X329106Y-24047D02*
X336157D01*
X327500Y-22441D02*
X329106Y-24047D01*
X327500Y-22441D02*
Y-16000D01*
X327000Y-31921D02*
X336157D01*
X328000Y-46000D02*
X331441D01*
X311059Y-3000D02*
Y2441D01*
X327043Y-27984D02*
X336157D01*
X326000Y-38500D02*
X326500Y-38000D01*
X336157Y-24047D02*
X343047D01*
X326500Y-44500D02*
X328000Y-46000D01*
X326500Y-44500D02*
Y-38000D01*
X362984Y-26016D02*
X365000Y-24000D01*
X356000Y-12000D02*
X361500D01*
X336740Y-128740D02*
Y-125240D01*
Y-128740D02*
X339500Y-131500D01*
X341000D01*
X154500Y-138000D02*
X292000Y-138000D01*
X298500Y-131500D01*
X203500Y-113784D02*
Y-101347D01*
X251000Y-113784D02*
Y-101347D01*
X295500Y-110784D02*
X298500Y-113784D01*
X295500Y-110784D02*
Y-107000D01*
X289347Y-100847D02*
X295500Y-107000D01*
X282500Y-100847D02*
X289347D01*
X208000Y-67000D02*
X218500D01*
X225000Y-73500D01*
D87*
X382061Y-39439D02*
G03*
X382500Y-38379I-1061J1061D01*
G01*
X-4681Y-50726D02*
X2414D01*
X25788Y-54466D02*
X32138D01*
X2414D02*
X25788D01*
X-7407Y-50907D02*
X-4862D01*
X-7500Y-51000D02*
X-7407Y-50907D01*
X55654Y-138347D02*
X56311Y-137689D01*
X54500Y-139500D02*
X55405Y-138594D01*
X56311Y-137689D02*
Y-128051D01*
X30500Y-139500D02*
X54500D01*
X26000Y-135000D02*
X30500Y-139500D01*
X47500Y-134500D02*
Y-128201D01*
X18589Y-92059D02*
X22441D01*
X26000Y-95618D01*
Y-135000D02*
Y-95618D01*
X382500Y-38379D02*
X382500Y-18441D01*
X382000Y-39500D02*
X382061Y-39439D01*
X306500Y-33559D02*
Y-10776D01*
X333000Y-125240D02*
Y-103500D01*
X329441Y-138441D02*
Y-133500D01*
D88*
X346000Y-27000D02*
D03*
D89*
X2000Y-135000D02*
D03*
X0Y0D02*
D03*
X421000Y-138500D02*
D03*
X421500Y-500D02*
D03*
D90*
X103508Y-135618D02*
D03*
X129886D02*
D03*
D91*
X126342Y-125382D02*
D03*
X106658Y-125382D02*
D03*
D92*
X-11500Y-7000D02*
D03*
Y-132000D02*
D03*
D93*
X11500Y-27000D02*
D03*
X408000D02*
D03*
Y-116500D02*
D03*
X11500D02*
D03*
D94*
X309000Y-73000D02*
D03*
Y-83000D02*
D03*
X79500Y-70000D02*
D03*
X48500Y-9000D02*
D03*
X58500D02*
D03*
X255000Y-5000D02*
D03*
X245000D02*
D03*
X235000D02*
D03*
X275500Y-35500D02*
D03*
D95*
X38500Y-9000D02*
D03*
X225000Y-5000D02*
D03*
X285500Y-35500D02*
D03*
D96*
X182000Y-101000D02*
D03*
X155000Y-90000D02*
D03*
X159500Y-73500D02*
D03*
X158500Y-83500D02*
D03*
X151500Y-96000D02*
D03*
X198000Y-83500D02*
D03*
X211500Y-94500D02*
D03*
X32138Y-54466D02*
D03*
X13638Y-43966D02*
D03*
X151500Y-86700D02*
D03*
X121000Y-57500D02*
D03*
X90000Y-11500D02*
D03*
X83000Y-99000D02*
D03*
Y-104000D02*
D03*
X87300Y-92000D02*
D03*
X85500Y-80000D02*
D03*
X133500Y-61000D02*
D03*
X130000Y-58500D02*
D03*
X148000Y-98000D02*
D03*
X101000Y-13500D02*
D03*
X133000D02*
D03*
X96500Y-8500D02*
D03*
X79500Y-80000D02*
D03*
X260000Y-31000D02*
D03*
X110812Y-118503D02*
D03*
X104000Y-118200D02*
D03*
X141000Y-140000D02*
D03*
X149500Y-125000D02*
D03*
X157000Y-123000D02*
D03*
X156500Y-119500D02*
D03*
X99000Y-66000D02*
D03*
X103500Y-61500D02*
D03*
X149523Y-80477D02*
D03*
X156500Y-80300D02*
D03*
X157000Y-86500D02*
D03*
X191000Y-9000D02*
D03*
X198000Y-3500D02*
D03*
X151000D02*
D03*
X128000Y-19000D02*
D03*
X109032Y-52129D02*
D03*
X106626Y-57223D02*
D03*
X110626Y-47723D02*
D03*
X93000Y-78000D02*
D03*
X90500Y-79866D02*
D03*
X146000Y-64000D02*
D03*
X156000Y-52000D02*
D03*
X93000Y-98000D02*
D03*
X88500Y-100000D02*
D03*
X65000Y-133500D02*
D03*
X47500Y-134500D02*
D03*
X121500Y-119000D02*
D03*
X126500Y-119500D02*
D03*
X132500Y-119000D02*
D03*
X140000Y-120000D02*
D03*
X117241Y-118876D02*
D03*
X114000Y-120500D02*
D03*
X257000Y-124500D02*
D03*
X221500Y-54000D02*
D03*
X168000Y-14000D02*
D03*
X387500Y-47000D02*
D03*
X361500Y-12100D02*
D03*
Y-16100D02*
D03*
X364843Y-19116D02*
D03*
X365000Y-24100D02*
D03*
X355500Y-9600D02*
D03*
X351000D02*
D03*
X347000Y-10100D02*
D03*
X373500Y-5000D02*
D03*
X353500Y-44600D02*
D03*
X368000Y-34600D02*
D03*
X382500Y-13600D02*
D03*
X343500Y-44600D02*
D03*
X361500Y0D02*
D03*
X294000Y-47000D02*
D03*
X341000Y-131500D02*
D03*
X176500Y-42000D02*
D03*
X208000Y-67000D02*
D03*
X225000Y-73500D02*
D03*
X270000Y-94000D02*
D03*
M02*
