G04*
G04 #@! TF.GenerationSoftware,Altium Limited,Altium Designer,21.9.2 (33)*
G04*
G04 Layer_Color=16711935*
%FSLAX25Y25*%
%MOIN*%
G70*
G04*
G04 #@! TF.SameCoordinates,9F12505F-C430-47E6-9CFF-433F7032CE6A*
G04*
G04*
G04 #@! TF.FilePolarity,Positive*
G04*
G01*
G75*
%ADD10C,0.00787*%
%ADD12C,0.00394*%
%ADD13C,0.00600*%
%ADD114C,0.00500*%
D10*
X157520Y-50153D02*
G03*
X157520Y-50153I-394J0D01*
G01*
D12*
X353169Y-13701D02*
G03*
X353169Y-13701I-1969J0D01*
G01*
X26457Y-58102D02*
Y-45898D01*
X33543Y-58102D02*
Y-45898D01*
X26457D02*
X33543D01*
X26457Y-58102D02*
X33543D01*
X6398Y-76457D02*
X18602D01*
X6398Y-83543D02*
X18602D01*
Y-76457D01*
X6398Y-83543D02*
Y-76457D01*
X387898Y-32543D02*
X400102D01*
X387898Y-25457D02*
X400102D01*
X387898Y-32543D02*
Y-25457D01*
X400102Y-32543D02*
Y-25457D01*
X73768Y-30756D02*
X82232D01*
X73768Y-25244D02*
X82232D01*
X73768Y-30756D02*
Y-25244D01*
X82232Y-30756D02*
Y-25244D01*
X347657Y-29842D02*
Y-10158D01*
X367342Y-29842D02*
Y-10158D01*
X347657D02*
X367342D01*
X347657Y-29842D02*
X367342D01*
X338398Y-117059D02*
X350602D01*
X338398Y-109972D02*
X350602D01*
X338398Y-117059D02*
Y-109972D01*
X350602Y-117059D02*
Y-109972D01*
X366961Y563D02*
Y8437D01*
X362039Y563D02*
Y8437D01*
Y563D02*
X366961D01*
X362039Y8437D02*
X366961D01*
X311898Y-4957D02*
X324102D01*
X311898Y-12043D02*
X324102D01*
Y-4957D01*
X311898Y-12043D02*
Y-4957D01*
D13*
X112400Y-104100D02*
X152600D01*
X112400D02*
Y-63900D01*
X152600D01*
Y-104100D02*
Y-63900D01*
X112400Y-99100D02*
X117400Y-104100D01*
X117200Y-63900D02*
Y-60000D01*
X118300D01*
Y-63900D02*
Y-60000D01*
X117200Y-63900D02*
X118300D01*
X119200D02*
Y-60000D01*
X120200D01*
Y-63900D02*
Y-60000D01*
X119200Y-63900D02*
X120200D01*
X121100D02*
Y-60000D01*
X122200D01*
Y-63900D02*
Y-60000D01*
X121100Y-63900D02*
X122200D01*
X123100D02*
Y-60000D01*
X124200D01*
Y-63900D02*
Y-60000D01*
X123100Y-63900D02*
X124200D01*
X125100D02*
Y-60000D01*
X126100D01*
Y-63900D02*
Y-60000D01*
X125100Y-63900D02*
X126100D01*
X127000D02*
Y-60000D01*
X128100D01*
Y-63900D02*
Y-60000D01*
X127000Y-63900D02*
X128100D01*
X129000D02*
Y-60000D01*
X130100D01*
Y-63900D02*
Y-60000D01*
X129000Y-63900D02*
X130100D01*
X131000D02*
Y-60000D01*
X132000D01*
Y-63900D02*
Y-60000D01*
X131000Y-63900D02*
X132000D01*
X133000D02*
Y-60000D01*
X134000D01*
Y-63900D02*
Y-60000D01*
X133000Y-63900D02*
X134000D01*
X134900D02*
Y-60000D01*
X136000D01*
Y-63900D02*
Y-60000D01*
X134900Y-63900D02*
X136000D01*
X136900D02*
Y-60000D01*
X138000D01*
Y-63900D02*
Y-60000D01*
X136900Y-63900D02*
X138000D01*
X138900D02*
Y-60000D01*
X139900D01*
Y-63900D02*
Y-60000D01*
X138900Y-63900D02*
X139900D01*
X140800D02*
Y-60000D01*
X141900D01*
Y-63900D02*
Y-60000D01*
X140800Y-63900D02*
X141900D01*
X142800D02*
Y-60000D01*
X143900D01*
Y-63900D02*
Y-60000D01*
X142800Y-63900D02*
X143900D01*
X144800D02*
Y-60000D01*
X145800D01*
Y-63900D02*
Y-60000D01*
X144800Y-63900D02*
X145800D01*
X146700D02*
Y-60000D01*
X147800D01*
Y-63900D02*
Y-60000D01*
X146700Y-63900D02*
X147800D01*
X152600Y-68700D02*
X156500D01*
Y-69800D02*
Y-68700D01*
X152600Y-69800D02*
X156500D01*
X152600D02*
Y-68700D01*
Y-70700D02*
X156500D01*
Y-71700D02*
Y-70700D01*
X152600Y-71700D02*
X156500D01*
X152600D02*
Y-70700D01*
Y-72600D02*
X156500D01*
Y-73700D02*
Y-72600D01*
X152600Y-73700D02*
X156500D01*
X152600D02*
Y-72600D01*
Y-74600D02*
X156500D01*
Y-75700D02*
Y-74600D01*
X152600Y-75700D02*
X156500D01*
X152600D02*
Y-74600D01*
Y-76600D02*
X156500D01*
Y-77600D02*
Y-76600D01*
X152600Y-77600D02*
X156500D01*
X152600D02*
Y-76600D01*
Y-78500D02*
X156500D01*
Y-79600D02*
Y-78500D01*
X152600Y-79600D02*
X156500D01*
X152600D02*
Y-78500D01*
Y-80500D02*
X156500D01*
Y-81600D02*
Y-80500D01*
X152600Y-81600D02*
X156500D01*
X152600D02*
Y-80500D01*
Y-82500D02*
X156500D01*
Y-83500D02*
Y-82500D01*
X152600Y-83500D02*
X156500D01*
X152600D02*
Y-82500D01*
Y-84500D02*
X156500D01*
Y-85500D02*
Y-84500D01*
X152600Y-85500D02*
X156500D01*
X152600D02*
Y-84500D01*
Y-86400D02*
X156500D01*
Y-87500D02*
Y-86400D01*
X152600Y-87500D02*
X156500D01*
X152600D02*
Y-86400D01*
Y-88400D02*
X156500D01*
Y-89500D02*
Y-88400D01*
X152600Y-89500D02*
X156500D01*
X152600D02*
Y-88400D01*
Y-90400D02*
X156500D01*
Y-91400D02*
Y-90400D01*
X152600Y-91400D02*
X156500D01*
X152600D02*
Y-90400D01*
Y-92300D02*
X156500D01*
Y-93400D02*
Y-92300D01*
X152600Y-93400D02*
X156500D01*
X152600D02*
Y-92300D01*
Y-94300D02*
X156500D01*
Y-95400D02*
Y-94300D01*
X152600Y-95400D02*
X156500D01*
X152600D02*
Y-94300D01*
Y-96300D02*
X156500D01*
Y-97300D02*
Y-96300D01*
X152600Y-97300D02*
X156500D01*
X152600D02*
Y-96300D01*
Y-98200D02*
X156500D01*
Y-99300D02*
Y-98200D01*
X152600Y-99300D02*
X156500D01*
X152600D02*
Y-98200D01*
X147800Y-108000D02*
Y-104100D01*
X146700Y-108000D02*
X147800D01*
X146700D02*
Y-104100D01*
X147800D01*
X145800Y-108000D02*
Y-104100D01*
X144800Y-108000D02*
X145800D01*
X144800D02*
Y-104100D01*
X145800D01*
X143900Y-108000D02*
Y-104100D01*
X142800Y-108000D02*
X143900D01*
X142800D02*
Y-104100D01*
X143900D01*
X141900Y-108000D02*
Y-104100D01*
X140800Y-108000D02*
X141900D01*
X140800D02*
Y-104100D01*
X141900D01*
X139900Y-108000D02*
Y-104100D01*
X138900Y-108000D02*
X139900D01*
X138900D02*
Y-104100D01*
X139900D01*
X138000Y-108000D02*
Y-104100D01*
X136900Y-108000D02*
X138000D01*
X136900D02*
Y-104100D01*
X138000D01*
X136000Y-108000D02*
Y-104100D01*
X134900Y-108000D02*
X136000D01*
X134900D02*
Y-104100D01*
X136000D01*
X134000Y-108000D02*
Y-104100D01*
X133000Y-108000D02*
X134000D01*
X133000D02*
Y-104100D01*
X134000D01*
X132000Y-108000D02*
Y-104100D01*
X131000Y-108000D02*
X132000D01*
X131000D02*
Y-104100D01*
X132000D01*
X130100Y-108000D02*
Y-104100D01*
X129000Y-108000D02*
X130100D01*
X129000D02*
Y-104100D01*
X130100D01*
X128100Y-108000D02*
Y-104100D01*
X127000Y-108000D02*
X128100D01*
X127000D02*
Y-104100D01*
X128100D01*
X126100Y-108000D02*
Y-104100D01*
X125100Y-108000D02*
X126100D01*
X125100D02*
Y-104100D01*
X126100D01*
X124200Y-108000D02*
Y-104100D01*
X123100Y-108000D02*
X124200D01*
X123100D02*
Y-104100D01*
X124200D01*
X122200Y-108000D02*
Y-104100D01*
X121100Y-108000D02*
X122200D01*
X121100D02*
Y-104100D01*
X122200D01*
X120200Y-108000D02*
Y-104100D01*
X119200Y-108000D02*
X120200D01*
X119200D02*
Y-104100D01*
X120200D01*
X118300Y-108000D02*
Y-104100D01*
X117200Y-108000D02*
X118300D01*
X117200D02*
Y-104100D01*
X117400D01*
X118300D01*
X108500Y-99300D02*
X112400D01*
X108500D02*
Y-98200D01*
X112400D01*
Y-99100D02*
Y-98200D01*
Y-99300D02*
Y-99100D01*
X108500Y-97300D02*
X112400D01*
X108500D02*
Y-96300D01*
X112400D01*
Y-97300D02*
Y-96300D01*
X108500Y-95400D02*
X112400D01*
X108500D02*
Y-94300D01*
X112400D01*
Y-95400D02*
Y-94300D01*
X108500Y-93400D02*
X112400D01*
X108500D02*
Y-92300D01*
X112400D01*
Y-93400D02*
Y-92300D01*
X108500Y-91400D02*
X112400D01*
X108500D02*
Y-90400D01*
X112400D01*
Y-91400D02*
Y-90400D01*
X108500Y-89500D02*
X112400D01*
X108500D02*
Y-88400D01*
X112400D01*
Y-89500D02*
Y-88400D01*
X108500Y-87500D02*
X112400D01*
X108500D02*
Y-86400D01*
X112400D01*
Y-87500D02*
Y-86400D01*
X108500Y-85500D02*
X112400D01*
X108500D02*
Y-84500D01*
X112400D01*
Y-85500D02*
Y-84500D01*
X108500Y-83500D02*
X112400D01*
X108500D02*
Y-82500D01*
X112400D01*
Y-83500D02*
Y-82500D01*
X108500Y-81600D02*
X112400D01*
X108500D02*
Y-80500D01*
X112400D01*
Y-81600D02*
Y-80500D01*
X108500Y-79600D02*
X112400D01*
X108500D02*
Y-78500D01*
X112400D01*
Y-79600D02*
Y-78500D01*
X108500Y-77600D02*
X112400D01*
X108500D02*
Y-76600D01*
X112400D01*
Y-77600D02*
Y-76600D01*
X108500Y-75700D02*
X112400D01*
X108500D02*
Y-74600D01*
X112400D01*
Y-75700D02*
Y-74600D01*
X108500Y-73700D02*
X112400D01*
X108500D02*
Y-72600D01*
X112400D01*
Y-73700D02*
Y-72600D01*
X108500Y-71700D02*
X112400D01*
X108500D02*
Y-70700D01*
X112400D01*
Y-71700D02*
Y-70700D01*
X108500Y-69800D02*
X112400D01*
X108500D02*
Y-68700D01*
X112400D01*
Y-69800D02*
Y-68700D01*
D114*
X161063Y-48579D02*
X168937D01*
Y-58421D02*
Y-48579D01*
X161063Y-58421D02*
Y-48579D01*
Y-58421D02*
X168937D01*
M02*
